<mxfile host="app.diagrams.net" agent="Mozilla/5.0 (Windows NT 10.0; Win64; x64) AppleWebKit/537.36 (KHTML, like Gecko) Chrome/139.0.0.0 Safari/537.36" version="28.1.2">
  <diagram name="Page-1" id="_0VTo2fCzSq2z_QCoyB9">
    <mxGraphModel dx="1042" dy="614" grid="1" gridSize="10" guides="1" tooltips="1" connect="1" arrows="0" fold="1" page="1" pageScale="1" pageWidth="850" pageHeight="1100" math="0" shadow="0">
      <root>
        <mxCell id="0" />
        <mxCell id="1" parent="0" />
        <mxCell id="KTDEi440R383_NZQk0O4-1" value="Mulai" style="ellipse;whiteSpace=wrap;html=1;strokeWidth=1;fontFamily=Times New Roman;fontSize=10;labelBackgroundColor=none;" parent="1" vertex="1">
          <mxGeometry x="350" y="80" width="100" height="40" as="geometry" />
        </mxCell>
        <mxCell id="KTDEi440R383_NZQk0O4-5" value="" style="endArrow=classic;html=1;rounded=0;fontSize=12;startSize=8;endSize=8;curved=1;labelBackgroundColor=none;fontColor=default;" parent="1" edge="1">
          <mxGeometry width="50" height="50" relative="1" as="geometry">
            <mxPoint x="400.21" y="120" as="sourcePoint" />
            <mxPoint x="400" y="150" as="targetPoint" />
          </mxGeometry>
        </mxCell>
        <mxCell id="KTDEi440R383_NZQk0O4-95" style="edgeStyle=none;curved=1;rounded=0;orthogonalLoop=1;jettySize=auto;html=1;exitX=0.5;exitY=1;exitDx=0;exitDy=0;entryX=0.5;entryY=0;entryDx=0;entryDy=0;fontSize=12;startSize=8;endSize=8;labelBackgroundColor=none;fontColor=default;" parent="1" source="KTDEi440R383_NZQk0O4-7" target="KTDEi440R383_NZQk0O4-91" edge="1">
          <mxGeometry relative="1" as="geometry" />
        </mxCell>
        <mxCell id="KTDEi440R383_NZQk0O4-129" style="edgeStyle=elbowEdgeStyle;rounded=0;orthogonalLoop=1;jettySize=auto;html=1;exitX=1;exitY=0.5;exitDx=0;exitDy=0;fontSize=12;startSize=8;endSize=8;entryX=0;entryY=0.5;entryDx=0;entryDy=0;labelBackgroundColor=none;fontColor=default;" parent="1" source="KTDEi440R383_NZQk0O4-7" target="KTDEi440R383_NZQk0O4-33" edge="1">
          <mxGeometry relative="1" as="geometry">
            <mxPoint x="490" y="170.25" as="targetPoint" />
          </mxGeometry>
        </mxCell>
        <mxCell id="KTDEi440R383_NZQk0O4-7" value="Perencanaan" style="rounded=0;whiteSpace=wrap;html=1;strokeWidth=1;fontFamily=Times New Roman;fontSize=10;labelBackgroundColor=none;" parent="1" vertex="1">
          <mxGeometry x="350" y="151" width="100" height="39" as="geometry" />
        </mxCell>
        <mxCell id="KTDEi440R383_NZQk0O4-51" value="" style="endArrow=none;html=1;rounded=0;fontSize=12;startSize=8;endSize=8;curved=1;strokeColor=none;labelBackgroundColor=none;fontColor=default;" parent="1" edge="1">
          <mxGeometry width="50" height="50" relative="1" as="geometry">
            <mxPoint x="480" y="190" as="sourcePoint" />
            <mxPoint x="480" y="150" as="targetPoint" />
          </mxGeometry>
        </mxCell>
        <mxCell id="KTDEi440R383_NZQk0O4-71" value="Observasi&amp;nbsp;" style="rounded=0;whiteSpace=wrap;html=1;strokeWidth=1;fontFamily=Times New Roman;fontSize=10;labelBackgroundColor=none;" parent="1" vertex="1">
          <mxGeometry x="710" y="120" width="100" height="30" as="geometry" />
        </mxCell>
        <mxCell id="KTDEi440R383_NZQk0O4-75" value="Penelusuran Jurnal" style="rounded=0;whiteSpace=wrap;html=1;strokeWidth=1;fontFamily=Times New Roman;fontSize=10;labelBackgroundColor=none;" parent="1" vertex="1">
          <mxGeometry x="710" y="230" width="100" height="30" as="geometry" />
        </mxCell>
        <mxCell id="KTDEi440R383_NZQk0O4-77" value="Teori CNN &amp;amp; YOLOv8" style="rounded=0;whiteSpace=wrap;html=1;strokeWidth=1;fontFamily=Times New Roman;fontSize=10;labelBackgroundColor=none;" parent="1" vertex="1">
          <mxGeometry x="710" y="313" width="100" height="30" as="geometry" />
        </mxCell>
        <mxCell id="KTDEi440R383_NZQk0O4-127" style="edgeStyle=elbowEdgeStyle;rounded=0;orthogonalLoop=1;jettySize=auto;html=1;exitX=1;exitY=0.5;exitDx=0;exitDy=0;fontSize=12;startSize=8;endSize=8;entryX=0;entryY=0.5;entryDx=0;entryDy=0;labelBackgroundColor=none;fontColor=default;" parent="1" source="KTDEi440R383_NZQk0O4-91" target="KTDEi440R383_NZQk0O4-114" edge="1">
          <mxGeometry relative="1" as="geometry">
            <mxPoint x="480" y="259.65517241379314" as="targetPoint" />
          </mxGeometry>
        </mxCell>
        <mxCell id="KTDEi440R383_NZQk0O4-151" style="edgeStyle=none;curved=1;rounded=0;orthogonalLoop=1;jettySize=auto;html=1;exitX=0.5;exitY=1;exitDx=0;exitDy=0;fontSize=12;startSize=8;endSize=8;entryX=0.5;entryY=0;entryDx=0;entryDy=0;labelBackgroundColor=none;fontColor=default;" parent="1" source="KTDEi440R383_NZQk0O4-91" target="KTDEi440R383_NZQk0O4-96" edge="1">
          <mxGeometry relative="1" as="geometry">
            <mxPoint x="400" y="330" as="targetPoint" />
          </mxGeometry>
        </mxCell>
        <mxCell id="KTDEi440R383_NZQk0O4-91" value="Pengumpulan Data" style="rounded=0;whiteSpace=wrap;html=1;strokeWidth=1;fontFamily=Times New Roman;fontSize=10;labelBackgroundColor=none;" parent="1" vertex="1">
          <mxGeometry x="350" y="239" width="100" height="39" as="geometry" />
        </mxCell>
        <mxCell id="KTDEi440R383_NZQk0O4-96" value="Pengembangan Model" style="rounded=0;whiteSpace=wrap;html=1;strokeWidth=1;fontFamily=Times New Roman;fontSize=10;labelBackgroundColor=none;" parent="1" vertex="1">
          <mxGeometry x="350" y="313" width="100" height="40" as="geometry" />
        </mxCell>
        <mxCell id="KTDEi440R383_NZQk0O4-97" value="Evaluasi Model" style="rounded=0;whiteSpace=wrap;html=1;strokeWidth=1;fontFamily=Times New Roman;fontSize=10;labelBackgroundColor=none;" parent="1" vertex="1">
          <mxGeometry x="350" y="380" width="100" height="30" as="geometry" />
        </mxCell>
        <mxCell id="KTDEi440R383_NZQk0O4-185" style="edgeStyle=none;curved=1;rounded=0;orthogonalLoop=1;jettySize=auto;html=1;exitX=0.5;exitY=1;exitDx=0;exitDy=0;entryX=0.5;entryY=0;entryDx=0;entryDy=0;fontSize=12;startSize=8;endSize=8;" parent="1" source="KTDEi440R383_NZQk0O4-97" target="KTDEi440R383_NZQk0O4-98" edge="1">
          <mxGeometry relative="1" as="geometry" />
        </mxCell>
        <mxCell id="KTDEi440R383_NZQk0O4-188" style="edgeStyle=elbowEdgeStyle;rounded=0;orthogonalLoop=1;jettySize=auto;html=1;exitX=1;exitY=0.5;exitDx=0;exitDy=0;fontSize=12;startSize=8;endSize=8;entryX=0;entryY=0.5;entryDx=0;entryDy=0;" parent="1" source="KTDEi440R383_NZQk0O4-98" target="KTDEi440R383_NZQk0O4-186" edge="1">
          <mxGeometry relative="1" as="geometry">
            <mxPoint x="490" y="495" as="targetPoint" />
            <Array as="points">
              <mxPoint x="460" y="450" />
            </Array>
          </mxGeometry>
        </mxCell>
        <mxCell id="KTDEi440R383_NZQk0O4-206" style="edgeStyle=none;curved=1;rounded=0;orthogonalLoop=1;jettySize=auto;html=1;exitX=0.5;exitY=1;exitDx=0;exitDy=0;entryX=0.5;entryY=0;entryDx=0;entryDy=0;fontSize=12;startSize=8;endSize=8;" parent="1" source="KTDEi440R383_NZQk0O4-98" target="KTDEi440R383_NZQk0O4-99" edge="1">
          <mxGeometry relative="1" as="geometry" />
        </mxCell>
        <mxCell id="KTDEi440R383_NZQk0O4-98" value="Pengembangan Sistem Menggunakan Metode (Waterfall Model)" style="rounded=0;whiteSpace=wrap;html=1;strokeWidth=1;fontFamily=Times New Roman;fontSize=10;labelBackgroundColor=none;" parent="1" vertex="1">
          <mxGeometry x="345" y="430" width="110" height="50" as="geometry" />
        </mxCell>
        <mxCell id="KTDEi440R383_NZQk0O4-191" style="edgeStyle=elbowEdgeStyle;rounded=0;orthogonalLoop=1;jettySize=auto;html=1;exitX=1;exitY=0.5;exitDx=0;exitDy=0;fontSize=12;startSize=8;endSize=8;entryX=0;entryY=0.5;entryDx=0;entryDy=0;" parent="1" source="KTDEi440R383_NZQk0O4-99" target="KTDEi440R383_NZQk0O4-192" edge="1">
          <mxGeometry relative="1" as="geometry">
            <mxPoint x="479.9999999999999" y="559.6666666666666" as="targetPoint" />
          </mxGeometry>
        </mxCell>
        <mxCell id="KTDEi440R383_NZQk0O4-213" style="edgeStyle=none;curved=1;rounded=0;orthogonalLoop=1;jettySize=auto;html=1;exitX=0.5;exitY=1;exitDx=0;exitDy=0;entryX=0.5;entryY=0;entryDx=0;entryDy=0;fontSize=12;startSize=8;endSize=8;" parent="1" source="KTDEi440R383_NZQk0O4-99" target="KTDEi440R383_NZQk0O4-100" edge="1">
          <mxGeometry relative="1" as="geometry" />
        </mxCell>
        <mxCell id="KTDEi440R383_NZQk0O4-99" value="Pengujian Sistem" style="rounded=0;whiteSpace=wrap;html=1;strokeWidth=1;fontFamily=Times New Roman;fontSize=10;labelBackgroundColor=none;" parent="1" vertex="1">
          <mxGeometry x="350" y="509" width="100" height="29" as="geometry" />
        </mxCell>
        <mxCell id="KTDEi440R383_NZQk0O4-214" style="edgeStyle=none;curved=1;rounded=0;orthogonalLoop=1;jettySize=auto;html=1;exitX=0.5;exitY=1;exitDx=0;exitDy=0;entryX=0.5;entryY=0;entryDx=0;entryDy=0;fontSize=12;startSize=8;endSize=8;" parent="1" source="KTDEi440R383_NZQk0O4-100" target="KTDEi440R383_NZQk0O4-199" edge="1">
          <mxGeometry relative="1" as="geometry" />
        </mxCell>
        <mxCell id="KTDEi440R383_NZQk0O4-100" value="Analisis dan Kesimpulan" style="rounded=0;whiteSpace=wrap;html=1;strokeWidth=1;fontFamily=Times New Roman;fontSize=10;labelBackgroundColor=none;" parent="1" vertex="1">
          <mxGeometry x="350" y="559" width="100" height="39" as="geometry" />
        </mxCell>
        <mxCell id="KTDEi440R383_NZQk0O4-114" value="Dataset Citra Kucing Dari Kaggle" style="rounded=0;whiteSpace=wrap;html=1;strokeWidth=1;fontFamily=Times New Roman;fontSize=10;labelBackgroundColor=none;" parent="1" vertex="1">
          <mxGeometry x="500" y="220" width="130" height="30" as="geometry" />
        </mxCell>
        <mxCell id="KTDEi440R383_NZQk0O4-115" value="Anotasi dan Preprocessing (Roboflow, Resize, Split Data)" style="rounded=0;whiteSpace=wrap;html=1;strokeWidth=1;fontFamily=Times New Roman;fontSize=10;labelBackgroundColor=none;" parent="1" vertex="1">
          <mxGeometry x="501" y="260" width="129" height="30" as="geometry" />
        </mxCell>
        <mxCell id="KTDEi440R383_NZQk0O4-128" style="edgeStyle=elbowEdgeStyle;rounded=0;orthogonalLoop=1;jettySize=auto;html=1;exitX=1;exitY=0.5;exitDx=0;exitDy=0;fontSize=12;startSize=8;endSize=8;entryX=0;entryY=0.5;entryDx=0;entryDy=0;labelBackgroundColor=none;fontColor=default;" parent="1" target="KTDEi440R383_NZQk0O4-115" edge="1">
          <mxGeometry relative="1" as="geometry">
            <mxPoint x="498" y="259.33" as="targetPoint" />
            <mxPoint x="449" y="259.33" as="sourcePoint" />
          </mxGeometry>
        </mxCell>
        <mxCell id="KTDEi440R383_NZQk0O4-152" style="edgeStyle=elbowEdgeStyle;rounded=0;orthogonalLoop=1;jettySize=auto;html=1;exitX=1;exitY=0.5;exitDx=0;exitDy=0;fontSize=12;startSize=8;endSize=8;entryX=0;entryY=0.5;entryDx=0;entryDy=0;labelBackgroundColor=none;fontColor=default;" parent="1" source="KTDEi440R383_NZQk0O4-33" target="KTDEi440R383_NZQk0O4-71" edge="1">
          <mxGeometry relative="1" as="geometry">
            <mxPoint x="620" y="149.2" as="targetPoint" />
          </mxGeometry>
        </mxCell>
        <mxCell id="KTDEi440R383_NZQk0O4-33" value="Identifikasi Masalah" style="rounded=0;whiteSpace=wrap;html=1;strokeWidth=1;fontFamily=Times New Roman;fontSize=10;labelBackgroundColor=none;" parent="1" vertex="1">
          <mxGeometry x="491" y="134" width="100" height="30" as="geometry" />
        </mxCell>
        <mxCell id="KTDEi440R383_NZQk0O4-34" value="Studi Literatur" style="rounded=0;whiteSpace=wrap;html=1;strokeWidth=1;fontFamily=Times New Roman;fontSize=10;labelBackgroundColor=none;" parent="1" vertex="1">
          <mxGeometry x="491" y="174" width="100" height="30" as="geometry" />
        </mxCell>
        <mxCell id="KTDEi440R383_NZQk0O4-130" style="edgeStyle=elbowEdgeStyle;rounded=0;orthogonalLoop=1;jettySize=auto;html=1;exitX=1;exitY=0.5;exitDx=0;exitDy=0;fontSize=12;startSize=8;endSize=8;entryX=0;entryY=0.5;entryDx=0;entryDy=0;labelBackgroundColor=none;fontColor=default;" parent="1" target="KTDEi440R383_NZQk0O4-34" edge="1">
          <mxGeometry relative="1" as="geometry">
            <mxPoint x="498" y="129.5" as="targetPoint" />
            <mxPoint x="450" y="170.5" as="sourcePoint" />
          </mxGeometry>
        </mxCell>
        <mxCell id="KTDEi440R383_NZQk0O4-139" value="Diskusi Dosen" style="rounded=0;whiteSpace=wrap;html=1;strokeWidth=1;fontFamily=Times New Roman;fontSize=10;labelBackgroundColor=none;" parent="1" vertex="1">
          <mxGeometry x="710" y="164" width="100" height="30" as="geometry" />
        </mxCell>
        <mxCell id="KTDEi440R383_NZQk0O4-143" value="Hasil Penelitian Terkait" style="rounded=0;whiteSpace=wrap;html=1;strokeWidth=1;fontFamily=Times New Roman;fontSize=10;labelBackgroundColor=none;" parent="1" vertex="1">
          <mxGeometry x="710" y="270" width="100" height="30" as="geometry" />
        </mxCell>
        <mxCell id="KTDEi440R383_NZQk0O4-148" style="edgeStyle=elbowEdgeStyle;rounded=0;orthogonalLoop=1;jettySize=auto;html=1;exitX=1;exitY=0.5;exitDx=0;exitDy=0;fontSize=12;startSize=8;endSize=8;entryX=0.001;entryY=0.578;entryDx=0;entryDy=0;entryPerimeter=0;labelBackgroundColor=none;fontColor=default;" parent="1" source="KTDEi440R383_NZQk0O4-34" target="KTDEi440R383_NZQk0O4-77" edge="1">
          <mxGeometry relative="1" as="geometry">
            <mxPoint x="643" y="245" as="targetPoint" />
            <mxPoint x="599" y="190" as="sourcePoint" />
          </mxGeometry>
        </mxCell>
        <mxCell id="KTDEi440R383_NZQk0O4-153" style="edgeStyle=elbowEdgeStyle;rounded=0;orthogonalLoop=1;jettySize=auto;html=1;exitX=1;exitY=0.5;exitDx=0;exitDy=0;fontSize=12;startSize=8;endSize=8;entryX=0;entryY=0.5;entryDx=0;entryDy=0;labelBackgroundColor=none;fontColor=default;" parent="1" target="KTDEi440R383_NZQk0O4-139" edge="1">
          <mxGeometry relative="1" as="geometry">
            <mxPoint x="641" y="125" as="targetPoint" />
            <mxPoint x="591" y="149" as="sourcePoint" />
          </mxGeometry>
        </mxCell>
        <mxCell id="KTDEi440R383_NZQk0O4-156" style="edgeStyle=elbowEdgeStyle;rounded=0;orthogonalLoop=1;jettySize=auto;html=1;exitX=1;exitY=0.5;exitDx=0;exitDy=0;fontSize=12;startSize=8;endSize=8;entryX=0;entryY=0.5;entryDx=0;entryDy=0;labelBackgroundColor=none;fontColor=default;" parent="1" target="KTDEi440R383_NZQk0O4-143" edge="1">
          <mxGeometry relative="1" as="geometry">
            <mxPoint x="642" y="286" as="targetPoint" />
            <mxPoint x="591" y="189" as="sourcePoint" />
          </mxGeometry>
        </mxCell>
        <mxCell id="KTDEi440R383_NZQk0O4-158" style="edgeStyle=elbowEdgeStyle;rounded=0;orthogonalLoop=1;jettySize=auto;html=1;exitX=1;exitY=0.5;exitDx=0;exitDy=0;fontSize=12;startSize=8;endSize=8;entryX=0;entryY=0.5;entryDx=0;entryDy=0;labelBackgroundColor=none;fontColor=default;" parent="1" target="KTDEi440R383_NZQk0O4-75" edge="1">
          <mxGeometry relative="1" as="geometry">
            <mxPoint x="642" y="245" as="targetPoint" />
            <mxPoint x="591" y="189" as="sourcePoint" />
          </mxGeometry>
        </mxCell>
        <mxCell id="KTDEi440R383_NZQk0O4-176" style="edgeStyle=none;curved=1;rounded=0;orthogonalLoop=1;jettySize=auto;html=1;exitX=0.5;exitY=1;exitDx=0;exitDy=0;fontSize=12;startSize=8;endSize=8;entryX=0.5;entryY=0;entryDx=0;entryDy=0;labelBackgroundColor=none;fontColor=default;" parent="1" source="KTDEi440R383_NZQk0O4-96" target="KTDEi440R383_NZQk0O4-97" edge="1">
          <mxGeometry relative="1" as="geometry">
            <mxPoint x="399.71" y="421" as="targetPoint" />
            <mxPoint x="399.71" y="370" as="sourcePoint" />
          </mxGeometry>
        </mxCell>
        <mxCell id="KTDEi440R383_NZQk0O4-180" style="edgeStyle=none;curved=1;rounded=0;orthogonalLoop=1;jettySize=auto;html=1;exitX=1;exitY=0.5;exitDx=0;exitDy=0;entryX=0;entryY=0.5;entryDx=0;entryDy=0;fontSize=12;startSize=8;endSize=8;" parent="1" source="KTDEi440R383_NZQk0O4-97" target="KTDEi440R383_NZQk0O4-177" edge="1">
          <mxGeometry relative="1" as="geometry" />
        </mxCell>
        <mxCell id="KTDEi440R383_NZQk0O4-177" value="Precision, Recall, mAP" style="rounded=0;whiteSpace=wrap;html=1;strokeWidth=1;fontFamily=Times New Roman;fontSize=10;labelBackgroundColor=none;" parent="1" vertex="1">
          <mxGeometry x="505" y="380" width="120" height="30" as="geometry" />
        </mxCell>
        <mxCell id="KTDEi440R383_NZQk0O4-186" value="&lt;font&gt;Analisis&amp;nbsp;→ Desain&amp;nbsp;→ Pengembangan&amp;nbsp;→ Pengujian&amp;nbsp;→ Implementasi&amp;nbsp;→ Review&amp;nbsp;&lt;/font&gt;" style="rounded=0;whiteSpace=wrap;html=1;strokeWidth=1;fontFamily=Times New Roman;fontSize=10;labelBackgroundColor=none;align=center;" parent="1" vertex="1">
          <mxGeometry x="480" y="420" width="330" height="30" as="geometry" />
        </mxCell>
        <mxCell id="KTDEi440R383_NZQk0O4-189" value="&lt;font&gt;Integrasi Model Pada Website&lt;/font&gt;" style="rounded=0;whiteSpace=wrap;html=1;strokeWidth=1;fontFamily=Times New Roman;fontSize=10;labelBackgroundColor=none;align=center;" parent="1" vertex="1">
          <mxGeometry x="480" y="459" width="130" height="30" as="geometry" />
        </mxCell>
        <mxCell id="KTDEi440R383_NZQk0O4-192" value="&lt;font&gt;Fungsionalitas Sistem&lt;/font&gt;" style="rounded=0;whiteSpace=wrap;html=1;strokeWidth=1;fontFamily=Times New Roman;fontSize=10;labelBackgroundColor=none;align=center;" parent="1" vertex="1">
          <mxGeometry x="500" y="501" width="130" height="25" as="geometry" />
        </mxCell>
        <mxCell id="KTDEi440R383_NZQk0O4-193" value="&lt;font&gt;Akurasi Deteksi&lt;/font&gt;" style="rounded=0;whiteSpace=wrap;html=1;strokeWidth=1;fontFamily=Times New Roman;fontSize=10;labelBackgroundColor=none;align=center;" parent="1" vertex="1">
          <mxGeometry x="500" y="538" width="130" height="21" as="geometry" />
        </mxCell>
        <mxCell id="KTDEi440R383_NZQk0O4-199" value="Selesai" style="ellipse;whiteSpace=wrap;html=1;strokeWidth=1;fontFamily=Times New Roman;fontSize=10;labelBackgroundColor=none;" parent="1" vertex="1">
          <mxGeometry x="350" y="620" width="100" height="40" as="geometry" />
        </mxCell>
        <mxCell id="KTDEi440R383_NZQk0O4-162" value="Pengaturan Hyper Parameter&lt;div&gt;(Epochs, Batch Size, dll)&lt;/div&gt;" style="rounded=0;whiteSpace=wrap;html=1;strokeWidth=1;fontFamily=Times New Roman;fontSize=10;labelBackgroundColor=none;" parent="1" vertex="1">
          <mxGeometry x="506" y="343" width="122" height="30" as="geometry" />
        </mxCell>
        <mxCell id="KTDEi440R383_NZQk0O4-160" value="Pelatihan Model YOLOv8&amp;nbsp;&lt;div&gt;(Google Colab)&lt;/div&gt;" style="rounded=0;whiteSpace=wrap;html=1;strokeWidth=1;fontFamily=Times New Roman;fontSize=10;labelBackgroundColor=none;" parent="1" vertex="1">
          <mxGeometry x="506" y="304" width="119" height="30" as="geometry" />
        </mxCell>
        <mxCell id="KTDEi440R383_NZQk0O4-169" style="edgeStyle=elbowEdgeStyle;rounded=0;orthogonalLoop=1;jettySize=auto;html=1;exitX=1;exitY=0.5;exitDx=0;exitDy=0;fontSize=12;startSize=8;endSize=8;entryX=0;entryY=0.5;entryDx=0;entryDy=0;labelBackgroundColor=none;fontColor=default;" parent="1" target="KTDEi440R383_NZQk0O4-162" edge="1">
          <mxGeometry relative="1" as="geometry">
            <mxPoint x="498" y="363" as="targetPoint" />
            <mxPoint x="450" y="334" as="sourcePoint" />
            <Array as="points">
              <mxPoint x="470" y="344" />
            </Array>
          </mxGeometry>
        </mxCell>
        <mxCell id="KTDEi440R383_NZQk0O4-184" style="edgeStyle=elbowEdgeStyle;rounded=0;orthogonalLoop=1;jettySize=auto;html=1;exitX=1;exitY=0.5;exitDx=0;exitDy=0;fontSize=12;startSize=8;endSize=8;entryX=0;entryY=0.5;entryDx=0;entryDy=0;labelBackgroundColor=none;fontColor=default;" parent="1" target="KTDEi440R383_NZQk0O4-160" edge="1">
          <mxGeometry relative="1" as="geometry">
            <mxPoint x="490" y="359" as="targetPoint" />
            <mxPoint x="450" y="334" as="sourcePoint" />
            <Array as="points">
              <mxPoint x="470" y="344" />
            </Array>
          </mxGeometry>
        </mxCell>
        <mxCell id="KTDEi440R383_NZQk0O4-209" style="edgeStyle=elbowEdgeStyle;rounded=0;orthogonalLoop=1;jettySize=auto;html=1;exitX=1;exitY=0.5;exitDx=0;exitDy=0;fontSize=12;startSize=8;endSize=8;entryX=0;entryY=0.5;entryDx=0;entryDy=0;" parent="1" target="KTDEi440R383_NZQk0O4-189" edge="1">
          <mxGeometry relative="1" as="geometry">
            <mxPoint x="480" y="445" as="targetPoint" />
            <mxPoint x="455" y="455" as="sourcePoint" />
            <Array as="points">
              <mxPoint x="460" y="450" />
            </Array>
          </mxGeometry>
        </mxCell>
        <mxCell id="KTDEi440R383_NZQk0O4-211" style="edgeStyle=elbowEdgeStyle;rounded=0;orthogonalLoop=1;jettySize=auto;html=1;exitX=1;exitY=0.5;exitDx=0;exitDy=0;fontSize=12;startSize=8;endSize=8;entryX=0;entryY=0.5;entryDx=0;entryDy=0;" parent="1" target="KTDEi440R383_NZQk0O4-193" edge="1">
          <mxGeometry relative="1" as="geometry">
            <mxPoint x="500" y="513" as="targetPoint" />
            <mxPoint x="450" y="523" as="sourcePoint" />
          </mxGeometry>
        </mxCell>
        <UserObject label="" plantUmlData="{&#xa;  &quot;data&quot;: &quot;@startuml\nleft to right direction\nskinparam packageStyle rectangle\nskinparam shadowing false\nskinparam defaultTextAlignment center\n\nactor Admin\nactor Teknisi\nactor Pelanggan\n\nrectangle \&quot;Sistem Informasi Perbaikan Kendaraan\&quot; {\n\n  rectangle \&quot;1.0 Kelola Data Pelanggan &amp; Kendaraan\&quot; as P1\n  rectangle \&quot;2.0 Penjadwalan &amp; Servis\&quot; as P2\n  rectangle \&quot;3.0 Kelola Suku Cadang\&quot; as P3\n  rectangle \&quot;4.0 Laporan &amp; Histori\&quot; as P4\n\n  database \&quot;Data Pelanggan &amp; Kendaraan\&quot; as D1\n  database \&quot;Data Jadwal &amp; Servis\&quot; as D2\n  database \&quot;Data Suku Cadang\&quot; as D3\n  database \&quot;Data Histori Servis\&quot; as D4\n}\n\n&#39; Interaksi Pelanggan\nPelanggan --&gt; P1 : Input Data\nPelanggan --&gt; P2 : Booking Servis\n\n&#39; Interaksi Teknisi\nTeknisi --&gt; P2 : Update Status Servis\n\n&#39; Interaksi Admin\nAdmin --&gt; P3 : Kelola Stok\nAdmin --&gt; P4 : Lihat Laporan\n\n&#39; Proses ke Data Store\nP1 --&gt; D1 : Simpan / Ambil Data\nP2 --&gt; D2 : Simpan / Ambil Jadwal\nP2 --&gt; D4 : Simpan / Update Histori\nP3 --&gt; D3 : Simpan / Update Stok\nP4 --&gt; D1 : Ambil Data Pelanggan\nP4 --&gt; D2 : Ambil Data Jadwal\nP4 --&gt; D3 : Ambil Data Stok\nP4 --&gt; D4 : Ambil Histori\n\n@enduml\n&quot;,&#xa;  &quot;format&quot;: &quot;svg&quot;&#xa;}" id="hAPKSh9ywb4FfvCKl24X-1">
          <mxCell style="shape=image;noLabel=1;verticalAlign=top;aspect=fixed;imageAspect=0;image=data:image/svg+xml,PHN2ZyB4bWxucz0iaHR0cDovL3d3dy53My5vcmcvMjAwMC9zdmciIHhtbG5zOnhsaW5rPSJodHRwOi8vd3d3LnczLm9yZy8xOTk5L3hsaW5rIiBjb250ZW50U3R5bGVUeXBlPSJ0ZXh0L2NzcyIgZGF0YS1kaWFncmFtLXR5cGU9IkRFU0NSSVBUSU9OIiBoZWlnaHQ9IjQ5N3B4IiBwcmVzZXJ2ZUFzcGVjdFJhdGlvPSJub25lIiBzdHlsZT0id2lkdGg6OTc3cHg7aGVpZ2h0OjQ5N3B4O2JhY2tncm91bmQ6I0ZGRkZGRjsiIHZlcnNpb249IjEuMSIgdmlld0JveD0iMCAwIDk3NyA0OTciIHdpZHRoPSI5NzdweCIgem9vbUFuZFBhbj0ibWFnbmlmeSI+PGRlZnMvPjxnPjwhLS1jbHVzdGVyIFNpc3RlbSBJbmZvcm1hc2kgUGVyYmFpa2FuIEtlbmRhcmFhbi0tPjxnIGNsYXNzPSJjbHVzdGVyIiBkYXRhLWVudGl0eT0iU2lzdGVtIEluZm9ybWFzaSBQZXJiYWlrYW4gS2VuZGFyYWFuIiBkYXRhLXNvdXJjZS1saW5lPSIxMCIgZGF0YS11aWQ9ImVudDAwMDUiIGlkPSJjbHVzdGVyX1Npc3RlbSBJbmZvcm1hc2kgUGVyYmFpa2FuIEtlbmRhcmFhbiI+PHJlY3QgZmlsbD0ibm9uZSIgaGVpZ2h0PSI0ODQiIHJ4PSIyLjUiIHJ5PSIyLjUiIHN0eWxlPSJzdHJva2U6IzE4MTgxODtzdHJva2Utd2lkdGg6MTsiIHdpZHRoPSI3MjQiIHg9IjI0NyIgeT0iNyIvPjx0ZXh0IGZpbGw9IiMwMDAwMDAiIGZvbnQtZmFtaWx5PSJzYW5zLXNlcmlmIiBmb250LXNpemU9IjE0IiBmb250LXdlaWdodD0iYm9sZCIgbGVuZ3RoQWRqdXN0PSJzcGFjaW5nIiB0ZXh0TGVuZ3RoPSIyNTIiIHg9IjQ4MyIgeT0iMjIuMjM0NCI+U2lzdGVtIEluZm9ybWFzaSBQZXJiYWlrYW4gS2VuZGFyYWFuPC90ZXh0PjwvZz48IS0tZW50aXR5IFAxLS0+PGcgY2xhc3M9ImVudGl0eSIgZGF0YS1lbnRpdHk9IlAxIiBkYXRhLXNvdXJjZS1saW5lPSIxMiIgZGF0YS11aWQ9ImVudDAwMDYiIGlkPSJlbnRpdHlfUDEiPjxyZWN0IGZpbGw9IiNGMUYxRjEiIGhlaWdodD0iMzQuOTg0NCIgcng9IjIuNSIgcnk9IjIuNSIgc3R5bGU9InN0cm9rZTojMTgxODE4O3N0cm9rZS13aWR0aDowLjU7IiB3aWR0aD0iMjc5IiB4PSIyNjMiIHk9IjQyMi41Ii8+PHRleHQgZmlsbD0iIzAwMDAwMCIgZm9udC1mYW1pbHk9InNhbnMtc2VyaWYiIGZvbnQtc2l6ZT0iMTQiIGxlbmd0aEFkanVzdD0ic3BhY2luZyIgdGV4dExlbmd0aD0iMjU5IiB4PSIyNzMiIHk9IjQ0NS43MzQ0Ij4xLjAgS2Vsb2xhIERhdGEgUGVsYW5nZ2FuICZhbXA7IEtlbmRhcmFhbjwvdGV4dD48L2c+PCEtLWVudGl0eSBQMi0tPjxnIGNsYXNzPSJlbnRpdHkiIGRhdGEtZW50aXR5PSJQMiIgZGF0YS1zb3VyY2UtbGluZT0iMTMiIGRhdGEtdWlkPSJlbnQwMDA3IiBpZD0iZW50aXR5X1AyIj48cmVjdCBmaWxsPSIjRjFGMUYxIiBoZWlnaHQ9IjM0Ljk4NDQiIHJ4PSIyLjUiIHJ5PSIyLjUiIHN0eWxlPSJzdHJva2U6IzE4MTgxODtzdHJva2Utd2lkdGg6MC41OyIgd2lkdGg9IjE4OCIgeD0iMzA4LjUiIHk9IjMzMi41Ii8+PHRleHQgZmlsbD0iIzAwMDAwMCIgZm9udC1mYW1pbHk9InNhbnMtc2VyaWYiIGZvbnQtc2l6ZT0iMTQiIGxlbmd0aEFkanVzdD0ic3BhY2luZyIgdGV4dExlbmd0aD0iMTY4IiB4PSIzMTguNSIgeT0iMzU1LjczNDQiPjIuMCBQZW5qYWR3YWxhbiAmYW1wOyBTZXJ2aXM8L3RleHQ+PC9nPjwhLS1lbnRpdHkgUDMtLT48ZyBjbGFzcz0iZW50aXR5IiBkYXRhLWVudGl0eT0iUDMiIGRhdGEtc291cmNlLWxpbmU9IjE0IiBkYXRhLXVpZD0iZW50MDAwOCIgaWQ9ImVudGl0eV9QMyI+PHJlY3QgZmlsbD0iI0YxRjFGMSIgaGVpZ2h0PSIzNC45ODQ0IiByeD0iMi41IiByeT0iMi41IiBzdHlsZT0ic3Ryb2tlOiMxODE4MTg7c3Ryb2tlLXdpZHRoOjAuNTsiIHdpZHRoPSIxNzQiIHg9IjMxNS41IiB5PSI1OS41Ii8+PHRleHQgZmlsbD0iIzAwMDAwMCIgZm9udC1mYW1pbHk9InNhbnMtc2VyaWYiIGZvbnQtc2l6ZT0iMTQiIGxlbmd0aEFkanVzdD0ic3BhY2luZyIgdGV4dExlbmd0aD0iMTU0IiB4PSIzMjUuNSIgeT0iODIuNzM0NCI+My4wIEtlbG9sYSBTdWt1IENhZGFuZzwvdGV4dD48L2c+PCEtLWVudGl0eSBQNC0tPjxnIGNsYXNzPSJlbnRpdHkiIGRhdGEtZW50aXR5PSJQNCIgZGF0YS1zb3VyY2UtbGluZT0iMTUiIGRhdGEtdWlkPSJlbnQwMDA5IiBpZD0iZW50aXR5X1A0Ij48cmVjdCBmaWxsPSIjRjFGMUYxIiBoZWlnaHQ9IjM0Ljk4NDQiIHJ4PSIyLjUiIHJ5PSIyLjUiIHN0eWxlPSJzdHJva2U6IzE4MTgxODtzdHJva2Utd2lkdGg6MC41OyIgd2lkdGg9IjE2NyIgeD0iMzE5IiB5PSIxNDcuNSIvPjx0ZXh0IGZpbGw9IiMwMDAwMDAiIGZvbnQtZmFtaWx5PSJzYW5zLXNlcmlmIiBmb250LXNpemU9IjE0IiBsZW5ndGhBZGp1c3Q9InNwYWNpbmciIHRleHRMZW5ndGg9IjE0NyIgeD0iMzI5IiB5PSIxNzAuNzM0NCI+NC4wIExhcG9yYW4gJmFtcDsgSGlzdG9yaTwvdGV4dD48L2c+PCEtLWVudGl0eSBEMS0tPjxnIGNsYXNzPSJlbnRpdHkiIGRhdGEtZW50aXR5PSJEMSIgZGF0YS1zb3VyY2UtbGluZT0iMTciIGRhdGEtdWlkPSJlbnQwMDEwIiBpZD0iZW50aXR5X0QxIj48cGF0aCBkPSJNNzUzLDQxMyBDNzUzLDQwMyA4NTQsNDAzIDg1NCw0MDMgQzg1NCw0MDMgOTU1LDQwMyA5NTUsNDEzIEw5NTUsNDM2Ljk4NDQgQzk1NSw0NDYuOTg0NCA4NTQsNDQ2Ljk4NDQgODU0LDQ0Ni45ODQ0IEM4NTQsNDQ2Ljk4NDQgNzUzLDQ0Ni45ODQ0IDc1Myw0MzYuOTg0NCBMNzUzLDQxMyIgZmlsbD0iI0YxRjFGMSIgc3R5bGU9InN0cm9rZTojMTgxODE4O3N0cm9rZS13aWR0aDowLjU7Ii8+PHBhdGggZD0iTTc1Myw0MTMgQzc1Myw0MjMgODU0LDQyMyA4NTQsNDIzIEM4NTQsNDIzIDk1NSw0MjMgOTU1LDQxMyIgZmlsbD0ibm9uZSIgc3R5bGU9InN0cm9rZTojMTgxODE4O3N0cm9rZS13aWR0aDowLjU7Ii8+PHRleHQgZmlsbD0iIzAwMDAwMCIgZm9udC1mYW1pbHk9InNhbnMtc2VyaWYiIGZvbnQtc2l6ZT0iMTQiIGxlbmd0aEFkanVzdD0ic3BhY2luZyIgdGV4dExlbmd0aD0iMTgyIiB4PSI3NjMiIHk9IjQ0MC4yMzQ0Ij5EYXRhIFBlbGFuZ2dhbiAmYW1wOyBLZW5kYXJhYW48L3RleHQ+PC9nPjwhLS1lbnRpdHkgRDItLT48ZyBjbGFzcz0iZW50aXR5IiBkYXRhLWVudGl0eT0iRDIiIGRhdGEtc291cmNlLWxpbmU9IjE4IiBkYXRhLXVpZD0iZW50MDAxMSIgaWQ9ImVudGl0eV9EMiI+PHBhdGggZD0iTTc3NCwzMDMgQzc3NCwyOTMgODU0LDI5MyA4NTQsMjkzIEM4NTQsMjkzIDkzNCwyOTMgOTM0LDMwMyBMOTM0LDMyNi45ODQ0IEM5MzQsMzM2Ljk4NDQgODU0LDMzNi45ODQ0IDg1NCwzMzYuOTg0NCBDODU0LDMzNi45ODQ0IDc3NCwzMzYuOTg0NCA3NzQsMzI2Ljk4NDQgTDc3NCwzMDMiIGZpbGw9IiNGMUYxRjEiIHN0eWxlPSJzdHJva2U6IzE4MTgxODtzdHJva2Utd2lkdGg6MC41OyIvPjxwYXRoIGQ9Ik03NzQsMzAzIEM3NzQsMzEzIDg1NCwzMTMgODU0LDMxMyBDODU0LDMxMyA5MzQsMzEzIDkzNCwzMDMiIGZpbGw9Im5vbmUiIHN0eWxlPSJzdHJva2U6IzE4MTgxODtzdHJva2Utd2lkdGg6MC41OyIvPjx0ZXh0IGZpbGw9IiMwMDAwMDAiIGZvbnQtZmFtaWx5PSJzYW5zLXNlcmlmIiBmb250LXNpemU9IjE0IiBsZW5ndGhBZGp1c3Q9InNwYWNpbmciIHRleHRMZW5ndGg9IjE0MCIgeD0iNzg0IiB5PSIzMzAuMjM0NCI+RGF0YSBKYWR3YWwgJmFtcDsgU2VydmlzPC90ZXh0PjwvZz48IS0tZW50aXR5IEQzLS0+PGcgY2xhc3M9ImVudGl0eSIgZGF0YS1lbnRpdHk9IkQzIiBkYXRhLXNvdXJjZS1saW5lPSIxOSIgZGF0YS11aWQ9ImVudDAwMTIiIGlkPSJlbnRpdHlfRDMiPjxwYXRoIGQ9Ik03ODgsNzQgQzc4OCw2NCA4NTQsNjQgODU0LDY0IEM4NTQsNjQgOTIwLDY0IDkyMCw3NCBMOTIwLDk3Ljk4NDQgQzkyMCwxMDcuOTg0NCA4NTQsMTA3Ljk4NDQgODU0LDEwNy45ODQ0IEM4NTQsMTA3Ljk4NDQgNzg4LDEwNy45ODQ0IDc4OCw5Ny45ODQ0IEw3ODgsNzQiIGZpbGw9IiNGMUYxRjEiIHN0eWxlPSJzdHJva2U6IzE4MTgxODtzdHJva2Utd2lkdGg6MC41OyIvPjxwYXRoIGQ9Ik03ODgsNzQgQzc4OCw4NCA4NTQsODQgODU0LDg0IEM4NTQsODQgOTIwLDg0IDkyMCw3NCIgZmlsbD0ibm9uZSIgc3R5bGU9InN0cm9rZTojMTgxODE4O3N0cm9rZS13aWR0aDowLjU7Ii8+PHRleHQgZmlsbD0iIzAwMDAwMCIgZm9udC1mYW1pbHk9InNhbnMtc2VyaWYiIGZvbnQtc2l6ZT0iMTQiIGxlbmd0aEFkanVzdD0ic3BhY2luZyIgdGV4dExlbmd0aD0iMTEyIiB4PSI3OTgiIHk9IjEwMS4yMzQ0Ij5EYXRhIFN1a3UgQ2FkYW5nPC90ZXh0PjwvZz48IS0tZW50aXR5IEQ0LS0+PGcgY2xhc3M9ImVudGl0eSIgZGF0YS1lbnRpdHk9IkQ0IiBkYXRhLXNvdXJjZS1saW5lPSIyMCIgZGF0YS11aWQ9ImVudDAwMTMiIGlkPSJlbnRpdHlfRDQiPjxwYXRoIGQ9Ik03NzcuNSwxOTMgQzc3Ny41LDE4MyA4NTQsMTgzIDg1NCwxODMgQzg1NCwxODMgOTMwLjUsMTgzIDkzMC41LDE5MyBMOTMwLjUsMjE2Ljk4NDQgQzkzMC41LDIyNi45ODQ0IDg1NCwyMjYuOTg0NCA4NTQsMjI2Ljk4NDQgQzg1NCwyMjYuOTg0NCA3NzcuNSwyMjYuOTg0NCA3NzcuNSwyMTYuOTg0NCBMNzc3LjUsMTkzIiBmaWxsPSIjRjFGMUYxIiBzdHlsZT0ic3Ryb2tlOiMxODE4MTg7c3Ryb2tlLXdpZHRoOjAuNTsiLz48cGF0aCBkPSJNNzc3LjUsMTkzIEM3NzcuNSwyMDMgODU0LDIwMyA4NTQsMjAzIEM4NTQsMjAzIDkzMC41LDIwMyA5MzAuNSwxOTMiIGZpbGw9Im5vbmUiIHN0eWxlPSJzdHJva2U6IzE4MTgxODtzdHJva2Utd2lkdGg6MC41OyIvPjx0ZXh0IGZpbGw9IiMwMDAwMDAiIGZvbnQtZmFtaWx5PSJzYW5zLXNlcmlmIiBmb250LXNpemU9IjE0IiBsZW5ndGhBZGp1c3Q9InNwYWNpbmciIHRleHRMZW5ndGg9IjEzMyIgeD0iNzg3LjUiIHk9IjIyMC4yMzQ0Ij5EYXRhIEhpc3RvcmkgU2VydmlzPC90ZXh0PjwvZz48IS0tZW50aXR5IEFkbWluLS0+PGcgY2xhc3M9ImVudGl0eSIgZGF0YS1lbnRpdHk9IkFkbWluIiBkYXRhLXNvdXJjZS1saW5lPSI2IiBkYXRhLXVpZD0iZW50MDAwMiIgaWQ9ImVudGl0eV9BZG1pbiI+PGVsbGlwc2UgY3g9IjM3LjUiIGN5PSI4NCIgZmlsbD0iI0YxRjFGMSIgcng9IjgiIHJ5PSI4IiBzdHlsZT0ic3Ryb2tlOiMxODE4MTg7c3Ryb2tlLXdpZHRoOjAuNTsiLz48cGF0aCBkPSJNMzcuNSw5MiBMMzcuNSwxMTkgTTI0LjUsMTAwIEw1MC41LDEwMCBNMzcuNSwxMTkgTDI0LjUsMTM0IE0zNy41LDExOSBMNTAuNSwxMzQiIGZpbGw9Im5vbmUiIHN0eWxlPSJzdHJva2U6IzE4MTgxODtzdHJva2Utd2lkdGg6MC41OyIvPjx0ZXh0IGZpbGw9IiMwMDAwMDAiIGZvbnQtZmFtaWx5PSJzYW5zLXNlcmlmIiBmb250LXNpemU9IjE0IiBsZW5ndGhBZGp1c3Q9InNwYWNpbmciIHRleHRMZW5ndGg9IjM1IiB4PSIyMCIgeT0iMTQ4LjczNDQiPkFkbWluPC90ZXh0PjwvZz48IS0tZW50aXR5IFRla25pc2ktLT48ZyBjbGFzcz0iZW50aXR5IiBkYXRhLWVudGl0eT0iVGVrbmlzaSIgZGF0YS1zb3VyY2UtbGluZT0iNyIgZGF0YS11aWQ9ImVudDAwMDMiIGlkPSJlbnRpdHlfVGVrbmlzaSI+PGVsbGlwc2UgY3g9IjM3LjUiIGN5PSIzMDEiIGZpbGw9IiNGMUYxRjEiIHJ4PSI4IiByeT0iOCIgc3R5bGU9InN0cm9rZTojMTgxODE4O3N0cm9rZS13aWR0aDowLjU7Ii8+PHBhdGggZD0iTTM3LjUsMzA5IEwzNy41LDMzNiBNMjQuNSwzMTcgTDUwLjUsMzE3IE0zNy41LDMzNiBMMjQuNSwzNTEgTTM3LjUsMzM2IEw1MC41LDM1MSIgZmlsbD0ibm9uZSIgc3R5bGU9InN0cm9rZTojMTgxODE4O3N0cm9rZS13aWR0aDowLjU7Ii8+PHRleHQgZmlsbD0iIzAwMDAwMCIgZm9udC1mYW1pbHk9InNhbnMtc2VyaWYiIGZvbnQtc2l6ZT0iMTQiIGxlbmd0aEFkanVzdD0ic3BhY2luZyIgdGV4dExlbmd0aD0iNDkiIHg9IjEzIiB5PSIzNjUuNzM0NCI+VGVrbmlzaTwvdGV4dD48L2c+PCEtLWVudGl0eSBQZWxhbmdnYW4tLT48ZyBjbGFzcz0iZW50aXR5IiBkYXRhLWVudGl0eT0iUGVsYW5nZ2FuIiBkYXRhLXNvdXJjZS1saW5lPSI4IiBkYXRhLXVpZD0iZW50MDAwNCIgaWQ9ImVudGl0eV9QZWxhbmdnYW4iPjxlbGxpcHNlIGN4PSIzNy41IiBjeT0iNDExIiBmaWxsPSIjRjFGMUYxIiByeD0iOCIgcnk9IjgiIHN0eWxlPSJzdHJva2U6IzE4MTgxODtzdHJva2Utd2lkdGg6MC41OyIvPjxwYXRoIGQ9Ik0zNy41LDQxOSBMMzcuNSw0NDYgTTI0LjUsNDI3IEw1MC41LDQyNyBNMzcuNSw0NDYgTDI0LjUsNDYxIE0zNy41LDQ0NiBMNTAuNSw0NjEiIGZpbGw9Im5vbmUiIHN0eWxlPSJzdHJva2U6IzE4MTgxODtzdHJva2Utd2lkdGg6MC41OyIvPjx0ZXh0IGZpbGw9IiMwMDAwMDAiIGZvbnQtZmFtaWx5PSJzYW5zLXNlcmlmIiBmb250LXNpemU9IjE0IiBsZW5ndGhBZGp1c3Q9InNwYWNpbmciIHRleHRMZW5ndGg9IjYzIiB4PSI2IiB5PSI0NzUuNzM0NCI+UGVsYW5nZ2FuPC90ZXh0PjwvZz48IS0tbGluayBQZWxhbmdnYW4gdG8gUDEtLT48ZyBjbGFzcz0ibGluayIgZGF0YS1lbnRpdHktMT0iUGVsYW5nZ2FuIiBkYXRhLWVudGl0eS0yPSJQMSIgZGF0YS1zb3VyY2UtbGluZT0iMjQiIGRhdGEtdWlkPSJsbmsxNCIgaWQ9ImxpbmtfUGVsYW5nZ2FuX1AxIj48cGF0aCBkPSJNNjkuMjcsNDQxLjgyIEM3OC43OSw0NDIuMzEgODkuMzMsNDQyLjc2IDk5LDQ0MyBDMTUyLjU1LDQ0NC4zMyAyMDUuNDUwNiw0NDQuMjA1MSAyNTYuOTQwNiw0NDMuNDc1MSIgZmlsbD0ibm9uZSIgaWQ9IlBlbGFuZ2dhbi10by1QMSIgc3R5bGU9InN0cm9rZTojMTgxODE4O3N0cm9rZS13aWR0aDoxOyIvPjxwb2x5Z29uIGZpbGw9IiMxODE4MTgiIHBvaW50cz0iMjYyLjk0LDQ0My4zOSwyNTMuODg0Miw0MzkuNTE4LDI1Ny45NDA1LDQ0My40NjA5LDI1My45OTc2LDQ0Ny41MTcyLDI2Mi45NCw0NDMuMzkiIHN0eWxlPSJzdHJva2U6IzE4MTgxODtzdHJva2Utd2lkdGg6MTsiLz48dGV4dCBmaWxsPSIjMDAwMDAwIiBmb250LWZhbWlseT0ic2Fucy1zZXJpZiIgZm9udC1zaXplPSIxMyIgbGVuZ3RoQWRqdXN0PSJzcGFjaW5nIiB0ZXh0TGVuZ3RoPSI2NSIgeD0iMTMyLjUiIHk9IjQ0MS4yODkxIj5JbnB1dCBEYXRhPC90ZXh0PjwvZz48IS0tbGluayBQZWxhbmdnYW4gdG8gUDItLT48ZyBjbGFzcz0ibGluayIgZGF0YS1lbnRpdHktMT0iUGVsYW5nZ2FuIiBkYXRhLWVudGl0eS0yPSJQMiIgZGF0YS1zb3VyY2UtbGluZT0iMjUiIGRhdGEtdWlkPSJsbmsxNSIgaWQ9ImxpbmtfUGVsYW5nZ2FuX1AyIj48cGF0aCBkPSJNNjkuMjUsNDMxLjc1IEM3OC43OCw0MjkuMjMgODkuMzEsNDI2LjQ3IDk5LDQyNCBDMTc3LjA3LDQwNC4xMyAyNjAuOTA2NywzODMuNzI0MyAzMjIuMjE2NywzNjguOTY0MyIgZmlsbD0ibm9uZSIgaWQ9IlBlbGFuZ2dhbi10by1QMiIgc3R5bGU9InN0cm9rZTojMTgxODE4O3N0cm9rZS13aWR0aDoxOyIvPjxwb2x5Z29uIGZpbGw9IiMxODE4MTgiIHBvaW50cz0iMzI4LjA1LDM2Ny41NiwzMTguMzYzOCwzNjUuNzc3NiwzMjMuMTg4OSwzNjguNzMwMywzMjAuMjM2MiwzNzMuNTU1NCwzMjguMDUsMzY3LjU2IiBzdHlsZT0ic3Ryb2tlOiMxODE4MTg7c3Ryb2tlLXdpZHRoOjE7Ii8+PHRleHQgZmlsbD0iIzAwMDAwMCIgZm9udC1mYW1pbHk9InNhbnMtc2VyaWYiIGZvbnQtc2l6ZT0iMTMiIGxlbmd0aEFkanVzdD0ic3BhY2luZyIgdGV4dExlbmd0aD0iOTEiIHg9IjExOS41IiB5PSIzOTEuMjg5MSI+Qm9va2luZyBTZXJ2aXM8L3RleHQ+PC9nPjwhLS1saW5rIFRla25pc2kgdG8gUDItLT48ZyBjbGFzcz0ibGluayIgZGF0YS1lbnRpdHktMT0iVGVrbmlzaSIgZGF0YS1lbnRpdHktMj0iUDIiIGRhdGEtc291cmNlLWxpbmU9IjI4IiBkYXRhLXVpZD0ibG5rMTYiIGlkPSJsaW5rX1Rla25pc2lfUDIiPjxwYXRoIGQ9Ik02Mi4wNCwzMzEuMyBDMTEwLjksMzMzLjk5IDIxOS42NTkxLDMzOS45Nzk5IDMwMi4yMjkxLDM0NC41Mjk5IiBmaWxsPSJub25lIiBpZD0iVGVrbmlzaS10by1QMiIgc3R5bGU9InN0cm9rZTojMTgxODE4O3N0cm9rZS13aWR0aDoxOyIvPjxwb2x5Z29uIGZpbGw9IiMxODE4MTgiIHBvaW50cz0iMzA4LjIyLDM0NC44NiwyOTkuNDUzNywzNDAuMzcwOSwzMDMuMjI3NiwzNDQuNTg0OSwyOTkuMDEzNSwzNDguMzU4NywzMDguMjIsMzQ0Ljg2IiBzdHlsZT0ic3Ryb2tlOiMxODE4MTg7c3Ryb2tlLXdpZHRoOjE7Ii8+PHRleHQgZmlsbD0iIzAwMDAwMCIgZm9udC1mYW1pbHk9InNhbnMtc2VyaWYiIGZvbnQtc2l6ZT0iMTMiIGxlbmd0aEFkanVzdD0ic3BhY2luZyIgdGV4dExlbmd0aD0iMTMwIiB4PSIxMDAiIHk9IjMzMi4yODkxIj5VcGRhdGUgU3RhdHVzIFNlcnZpczwvdGV4dD48L2c+PCEtLWxpbmsgQWRtaW4gdG8gUDMtLT48ZyBjbGFzcz0ibGluayIgZGF0YS1lbnRpdHktMT0iQWRtaW4iIGRhdGEtZW50aXR5LTI9IlAzIiBkYXRhLXNvdXJjZS1saW5lPSIzMSIgZGF0YS11aWQ9ImxuazE3IiBpZD0ibGlua19BZG1pbl9QMyI+PHBhdGggZD0iTTU1LjA0LDExMS4zNiBDMTAwLjI2LDEwNi44OCAyMjIuMzc5Myw5NC43NjIzIDMwOS40NzkzLDg2LjEyMjMiIGZpbGw9Im5vbmUiIGlkPSJBZG1pbi10by1QMyIgc3R5bGU9InN0cm9rZTojMTgxODE4O3N0cm9rZS13aWR0aDoxOyIvPjxwb2x5Z29uIGZpbGw9IiMxODE4MTgiIHBvaW50cz0iMzE1LjQ1LDg1LjUzLDMwNi4wOTkxLDgyLjQzNzksMzEwLjQ3NDQsODYuMDIzNiwzMDYuODg4OCw5MC4zOTg5LDMxNS40NSw4NS41MyIgc3R5bGU9InN0cm9rZTojMTgxODE4O3N0cm9rZS13aWR0aDoxOyIvPjx0ZXh0IGZpbGw9IiMwMDAwMDAiIGZvbnQtZmFtaWx5PSJzYW5zLXNlcmlmIiBmb250LXNpemU9IjEzIiBsZW5ndGhBZGp1c3Q9InNwYWNpbmciIHRleHRMZW5ndGg9IjcxLjUiIHg9IjEyOS41IiB5PSI5Mi4yODkxIj5LZWxvbGEgU3RvazwvdGV4dD48L2c+PCEtLWxpbmsgQWRtaW4gdG8gUDQtLT48ZyBjbGFzcz0ibGluayIgZGF0YS1lbnRpdHktMT0iQWRtaW4iIGRhdGEtZW50aXR5LTI9IlA0IiBkYXRhLXNvdXJjZS1saW5lPSIzMiIgZGF0YS11aWQ9ImxuazE4IiBpZD0ibGlua19BZG1pbl9QNCI+PHBhdGggZD0iTTU1LjAyLDExOC40MSBDNjcuMDksMTIyLjE3IDgzLjkxLDEyNy4wMyA5OSwxMzAgQzE3Mi42NiwxNDQuNTEgMjUxLjY5MjQsMTUzLjE4MjUgMzEyLjgwMjQsMTU4LjQ3MjUiIGZpbGw9Im5vbmUiIGlkPSJBZG1pbi10by1QNCIgc3R5bGU9InN0cm9rZTojMTgxODE4O3N0cm9rZS13aWR0aDoxOyIvPjxwb2x5Z29uIGZpbGw9IiMxODE4MTgiIHBvaW50cz0iMzE4Ljc4LDE1OC45OSwzMTAuMTU4NSwxNTQuMjI4NywzMTMuNzk4NiwxNTguNTU4OCwzMDkuNDY4NiwxNjIuMTk4OSwzMTguNzgsMTU4Ljk5IiBzdHlsZT0ic3Ryb2tlOiMxODE4MTg7c3Ryb2tlLXdpZHRoOjE7Ii8+PHRleHQgZmlsbD0iIzAwMDAwMCIgZm9udC1mYW1pbHk9InNhbnMtc2VyaWYiIGZvbnQtc2l6ZT0iMTMiIGxlbmd0aEFkanVzdD0ic3BhY2luZyIgdGV4dExlbmd0aD0iODQuNSIgeD0iMTIzIiB5PSIxMjguMjg5MSI+TGloYXQgTGFwb3JhbjwvdGV4dD48L2c+PCEtLWxpbmsgUDEgdG8gRDEtLT48ZyBjbGFzcz0ibGluayIgZGF0YS1lbnRpdHktMT0iUDEiIGRhdGEtZW50aXR5LTI9IkQxIiBkYXRhLXNvdXJjZS1saW5lPSIzNSIgZGF0YS11aWQ9ImxuazE5IiBpZD0ibGlua19QMV9EMSI+PHBhdGggZD0iTTU0Mi4wMyw0NDYuMDEgQzU5OC4yNiw0NDcuMjMgNjYzLjc5LDQ0Ny4wOCA3MjMsNDQzIEM3MzIuNjYsNDQyLjMzIDczNi43MzU4LDQ0Mi4wNDQ3IDc0Ni43NTU4LDQ0MC45NDQ3IiBmaWxsPSJub25lIiBpZD0iUDEtdG8tRDEiIHN0eWxlPSJzdHJva2U6IzE4MTgxODtzdHJva2Utd2lkdGg6MTsiLz48cG9seWdvbiBmaWxsPSIjMTgxODE4IiBwb2ludHM9Ijc1Mi43Miw0NDAuMjksNzQzLjMzNzIsNDM3LjI5Niw3NDcuNzQ5OSw0NDAuODM1Niw3NDQuMjEwMiw0NDUuMjQ4Miw3NTIuNzIsNDQwLjI5IiBzdHlsZT0ic3Ryb2tlOiMxODE4MTg7c3Ryb2tlLXdpZHRoOjE7Ii8+PHRleHQgZmlsbD0iIzAwMDAwMCIgZm9udC1mYW1pbHk9InNhbnMtc2VyaWYiIGZvbnQtc2l6ZT0iMTMiIGxlbmd0aEFkanVzdD0ic3BhY2luZyIgdGV4dExlbmd0aD0iMTIzLjUiIHg9IjU4NiIgeT0iNDQxLjI4OTEiPlNpbXBhbiAvIEFtYmlsIERhdGE8L3RleHQ+PC9nPjwhLS1saW5rIFAyIHRvIEQyLS0+PGcgY2xhc3M9ImxpbmsiIGRhdGEtZW50aXR5LTE9IlAyIiBkYXRhLWVudGl0eS0yPSJEMiIgZGF0YS1zb3VyY2UtbGluZT0iMzYiIGRhdGEtdWlkPSJsbmsyMCIgaWQ9ImxpbmtfUDJfRDIiPjxwYXRoIGQ9Ik00NTQuMzgsMzY3LjUzIEM1MTguMSwzODYuODggNjMwLjE4LDQxMi4yOCA3MjMsMzg4IEM3NjAuNTYsMzc4LjE4IDc5My44MjkzLDM1OC4yNDc0IDgxOC45OTkzLDM0MC41Nzc0IiBmaWxsPSJub25lIiBpZD0iUDItdG8tRDIiIHN0eWxlPSJzdHJva2U6IzE4MTgxODtzdHJva2Utd2lkdGg6MTsiLz48cG9seWdvbiBmaWxsPSIjMTgxODE4IiBwb2ludHM9IjgyMy45MSwzMzcuMTMsODE0LjI0NTYsMzM5LjAyNzQsODE5LjgxNzcsMzQwLjAwMjksODE4Ljg0MjIsMzQ1LjU3NSw4MjMuOTEsMzM3LjEzIiBzdHlsZT0ic3Ryb2tlOiMxODE4MTg7c3Ryb2tlLXdpZHRoOjE7Ii8+PHRleHQgZmlsbD0iIzAwMDAwMCIgZm9udC1mYW1pbHk9InNhbnMtc2VyaWYiIGZvbnQtc2l6ZT0iMTMiIGxlbmd0aEFkanVzdD0ic3BhY2luZyIgdGV4dExlbmd0aD0iMTM2LjUiIHg9IjU3OS41IiB5PSIzODYuMjg5MSI+U2ltcGFuIC8gQW1iaWwgSmFkd2FsPC90ZXh0PjwvZz48IS0tbGluayBQMiB0byBENC0tPjxnIGNsYXNzPSJsaW5rIiBkYXRhLWVudGl0eS0xPSJQMiIgZGF0YS1lbnRpdHktMj0iRDQiIGRhdGEtc291cmNlLWxpbmU9IjM3IiBkYXRhLXVpZD0ibG5rMjEiIGlkPSJsaW5rX1AyX0Q0Ij48cGF0aCBkPSJNNDMwLjAzLDMzMi4zNCBDNDYyLjI2LDMxMS42OCA1MTguOTIsMjc3LjkzIDU3MiwyNTkgQzYzOS4zOCwyMzQuOTcgNzEzLjkyMzMsMjIxLjY4OCA3NzEuNDUzMywyMTMuOTY4IiBmaWxsPSJub25lIiBpZD0iUDItdG8tRDQiIHN0eWxlPSJzdHJva2U6IzE4MTgxODtzdHJva2Utd2lkdGg6MTsiLz48cG9seWdvbiBmaWxsPSIjMTgxODE4IiBwb2ludHM9Ijc3Ny40LDIxMy4xNyw3NjcuOTQ4LDIxMC40MDI1LDc3Mi40NDQ0LDIxMy44MzUsNzY5LjAxMTksMjE4LjMzMTUsNzc3LjQsMjEzLjE3IiBzdHlsZT0ic3Ryb2tlOiMxODE4MTg7c3Ryb2tlLXdpZHRoOjE7Ii8+PHRleHQgZmlsbD0iIzAwMDAwMCIgZm9udC1mYW1pbHk9InNhbnMtc2VyaWYiIGZvbnQtc2l6ZT0iMTMiIGxlbmd0aEFkanVzdD0ic3BhY2luZyIgdGV4dExlbmd0aD0iMTQ5LjUiIHg9IjU3MyIgeT0iMjIwLjI4OTEiPlNpbXBhbiAvIFVwZGF0ZSBIaXN0b3JpPC90ZXh0PjwvZz48IS0tbGluayBQMyB0byBEMy0tPjxnIGNsYXNzPSJsaW5rIiBkYXRhLWVudGl0eS0xPSJQMyIgZGF0YS1lbnRpdHktMj0iRDMiIGRhdGEtc291cmNlLWxpbmU9IjM4IiBkYXRhLXVpZD0ibG5rMjIiIGlkPSJsaW5rX1AzX0QzIj48cGF0aCBkPSJNNDg5LjY0LDc4LjcyIEM1NzYuNjksODAuNDcgNzAzLjI3MTIsODIuOTk5NSA3ODEuOTExMiw4NC41Nzk1IiBmaWxsPSJub25lIiBpZD0iUDMtdG8tRDMiIHN0eWxlPSJzdHJva2U6IzE4MTgxODtzdHJva2Utd2lkdGg6MTsiLz48cG9seWdvbiBmaWxsPSIjMTgxODE4IiBwb2ludHM9Ijc4Ny45MSw4NC43LDc3OC45OTIyLDgwLjUyLDc4Mi45MTEsODQuNTk5Niw3NzguODMxNSw4OC41MTg0LDc4Ny45MSw4NC43IiBzdHlsZT0ic3Ryb2tlOiMxODE4MTg7c3Ryb2tlLXdpZHRoOjE7Ii8+PHRleHQgZmlsbD0iIzAwMDAwMCIgZm9udC1mYW1pbHk9InNhbnMtc2VyaWYiIGZvbnQtc2l6ZT0iMTMiIGxlbmd0aEFkanVzdD0ic3BhY2luZyIgdGV4dExlbmd0aD0iMTMwIiB4PSI1ODIuNSIgeT0iNzkuMjg5MSI+U2ltcGFuIC8gVXBkYXRlIFN0b2s8L3RleHQ+PC9nPjwhLS1saW5rIFA0IHRvIEQxLS0+PGcgY2xhc3M9ImxpbmsiIGRhdGEtZW50aXR5LTE9IlA0IiBkYXRhLWVudGl0eS0yPSJEMSIgZGF0YS1zb3VyY2UtbGluZT0iMzkiIGRhdGEtdWlkPSJsbmsyMyIgaWQ9ImxpbmtfUDRfRDEiPjxwYXRoIGQ9Ik00MTguNjksMTgyLjY2IEM0NTIuODQsMjIxLjk3IDUzNS41NSwzMTQuODIgNTcyLDMzNSBDNjMyLjE4LDM2OC4zMiA2NTcuNTcsMzQ3Ljc1IDcyMywzNjkgQzc1MS43NSwzNzguMzQgNzc3LjQyNzMsMzg5LjEyNjUgODAyLjAxNzMsNDAwLjQxNjUiIGZpbGw9Im5vbmUiIGlkPSJQNC10by1EMSIgc3R5bGU9InN0cm9rZTojMTgxODE4O3N0cm9rZS13aWR0aDoxOyIvPjxwb2x5Z29uIGZpbGw9IiMxODE4MTgiIHBvaW50cz0iODA3LjQ3LDQwMi45Miw4MDAuOTU5OSwzOTUuNTI5Niw4MDIuOTI2LDQwMC44MzM3LDc5Ny42MjE5LDQwMi43OTk5LDgwNy40Nyw0MDIuOTIiIHN0eWxlPSJzdHJva2U6IzE4MTgxODtzdHJva2Utd2lkdGg6MTsiLz48dGV4dCBmaWxsPSIjMDAwMDAwIiBmb250LWZhbWlseT0ic2Fucy1zZXJpZiIgZm9udC1zaXplPSIxMyIgbGVuZ3RoQWRqdXN0PSJzcGFjaW5nIiB0ZXh0TGVuZ3RoPSIxMzAiIHg9IjU4Mi41IiB5PSIzMzMuMjg5MSI+QW1iaWwgRGF0YSBQZWxhbmdnYW48L3RleHQ+PC9nPjwhLS1saW5rIFA0IHRvIEQyLS0+PGcgY2xhc3M9ImxpbmsiIGRhdGEtZW50aXR5LTE9IlA0IiBkYXRhLWVudGl0eS0yPSJEMiIgZGF0YS1zb3VyY2UtbGluZT0iNDAiIGRhdGEtdWlkPSJsbmsyNCIgaWQ9ImxpbmtfUDRfRDIiPjxwYXRoIGQ9Ik00MjIuNDgsMTgyLjU2IEM0NTEuOTgsMjA4LjcgNTExLjcsMjU3LjIxIDU3MiwyODAgQzYzNy4wNywzMDQuNiA3MTAuMDY0OSwzMTIuNDU4NyA3NjcuNzA0OSwzMTQuNzc4NyIgZmlsbD0ibm9uZSIgaWQ9IlA0LXRvLUQyIiBzdHlsZT0ic3Ryb2tlOiMxODE4MTg7c3Ryb2tlLXdpZHRoOjE7Ii8+PHBvbHlnb24gZmlsbD0iIzE4MTgxOCIgcG9pbnRzPSI3NzMuNywzMTUuMDIsNzY0Ljg2ODIsMzEwLjY2MTMsNzY4LjcwNCwzMTQuODE4OSw3NjQuNTQ2NCwzMTguNjU0OCw3NzMuNywzMTUuMDIiIHN0eWxlPSJzdHJva2U6IzE4MTgxODtzdHJva2Utd2lkdGg6MTsiLz48dGV4dCBmaWxsPSIjMDAwMDAwIiBmb250LWZhbWlseT0ic2Fucy1zZXJpZiIgZm9udC1zaXplPSIxMyIgbGVuZ3RoQWRqdXN0PSJzcGFjaW5nIiB0ZXh0TGVuZ3RoPSIxMTAuNSIgeD0iNTkyLjUiIHk9IjI3OC4yODkxIj5BbWJpbCBEYXRhIEphZHdhbDwvdGV4dD48L2c+PCEtLWxpbmsgUDQgdG8gRDMtLT48ZyBjbGFzcz0ibGluayIgZGF0YS1lbnRpdHktMT0iUDQiIGRhdGEtZW50aXR5LTI9IkQzIiBkYXRhLXNvdXJjZS1saW5lPSI0MSIgZGF0YS11aWQ9ImxuazI1IiBpZD0ibGlua19QNF9EMyI+PHBhdGggZD0iTTQ4Ni4yMSwxNTAuNDYgQzU3My4xOCwxMzUuMTggNzAyLjMzMDUsMTEyLjQ3ODMgNzgyLjAxMDUsOTguNDc4MyIgZmlsbD0ibm9uZSIgaWQ9IlA0LXRvLUQzIiBzdHlsZT0ic3Ryb2tlOiMxODE4MTg7c3Ryb2tlLXdpZHRoOjE7Ii8+PHBvbHlnb24gZmlsbD0iIzE4MTgxOCIgcG9pbnRzPSI3ODcuOTIsOTcuNDQsNzc4LjM2MzYsOTUuMDU3OCw3ODIuOTk1NCw5OC4zMDUzLDc3OS43NDgsMTAyLjkzNzEsNzg3LjkyLDk3LjQ0IiBzdHlsZT0ic3Ryb2tlOiMxODE4MTg7c3Ryb2tlLXdpZHRoOjE7Ii8+PHRleHQgZmlsbD0iIzAwMDAwMCIgZm9udC1mYW1pbHk9InNhbnMtc2VyaWYiIGZvbnQtc2l6ZT0iMTMiIGxlbmd0aEFkanVzdD0ic3BhY2luZyIgdGV4dExlbmd0aD0iOTcuNSIgeD0iNTk5IiB5PSIxMDguMjg5MSI+QW1iaWwgRGF0YSBTdG9rPC90ZXh0PjwvZz48IS0tbGluayBQNCB0byBENC0tPjxnIGNsYXNzPSJsaW5rIiBkYXRhLWVudGl0eS0xPSJQNCIgZGF0YS1lbnRpdHktMj0iRDQiIGRhdGEtc291cmNlLWxpbmU9IjQyIiBkYXRhLXVpZD0ibG5rMjYiIGlkPSJsaW5rX1A0X0Q0Ij48cGF0aCBkPSJNNDg2LjIxLDE3Mi4zNiBDNTY5LjM4LDE3OS43NiA2OTAuNTQzNiwxOTAuNTM3OSA3NzEuMTgzNiwxOTcuNzE3OSIgZmlsbD0ibm9uZSIgaWQ9IlA0LXRvLUQ0IiBzdHlsZT0ic3Ryb2tlOiMxODE4MTg7c3Ryb2tlLXdpZHRoOjE7Ii8+PHBvbHlnb24gZmlsbD0iIzE4MTgxOCIgcG9pbnRzPSI3NzcuMTYsMTk4LjI1LDc2OC41NTAyLDE5My40Njc2LDc3Mi4xNzk3LDE5Ny44MDY2LDc2Ny44NDA3LDIwMS40MzYxLDc3Ny4xNiwxOTguMjUiIHN0eWxlPSJzdHJva2U6IzE4MTgxODtzdHJva2Utd2lkdGg6MTsiLz48dGV4dCBmaWxsPSIjMDAwMDAwIiBmb250LWZhbWlseT0ic2Fucy1zZXJpZiIgZm9udC1zaXplPSIxMyIgbGVuZ3RoQWRqdXN0PSJzcGFjaW5nIiB0ZXh0TGVuZ3RoPSI4NC41IiB4PSI2MDUuNSIgeT0iMTc5LjI4OTEiPkFtYmlsIEhpc3Rvcmk8L3RleHQ+PC9nPjwhLS1TUkM9W1hQQkJSamltNDROdF84ZjE1a3FnUklyZmJLSzFmcmhxYU9LMTlIeW1qaU9vSXVlS0lBZmY0RUpWQ244Yll1ZTNQQUM3eGhhcFRwWktUMG1HQjNaUGQwQktxajRYSTZrNEx6OXF3QjI1M1d5QTZ3aDJhb09PUDNJRGZXSm05d3BqZXBHRDc1N3hMQWRmWUJxRXpfR19SQkxpSjRpY204NFZ2OEowR3gwRWpkS2hwVkh6SnlmOEJ3VV83TWRrckEwSHVqbUxoWWhmMHhObW9ub2pRejVCbmptVWZLODNWeVpLdDFSRDVKbUIwUDJ1RGItIC1pUW9qSFlXbnU1OFJGZ0tzekIzUmg5cVBFdFRhX2NCelk3aGFBdEJfZjh6bWplUnBmS3RMZ252LU9DckFIRkNyTVoxd1h2cnJPeXNWRjlMckNmQjU0QnhjYzdscUo3dUdrRG5TcWhfN2pFa2lQTlI5bEdyUHZmVkM1NnJMZ1gwbEdkcGM5VjBZS09yQmM3VXIxQnMtX2l3ZDJKVUNUTnFPcF9zamNoNXdRd3FReGF3aWxvdXhOdVpmbFBXVUVhdjlLMEtDbE5fTjZrX0wtOG9zZDZ0cFJlOUxnTEltVDJURjZFUUQzQUxzcGRob2UyWlU2Rk91NFpwRnUyWTdpSWhQVFpwOEx6WXNVd2NkLVJBZVB2VHd0Q2NQQTU5WTZjU3dRaTVQSG9QX1huY3BTLTlwWkFMeGtlTFlvUDQwU3VQWWdQLWVnekI1TVBqSWxHODBdLS0+PC9nPjwvc3ZnPg==;" parent="1" vertex="1">
            <mxGeometry y="970" width="977" height="497" as="geometry" />
          </mxCell>
        </UserObject>
        <UserObject label="" plantUmlData="{&#xa;  &quot;data&quot;: &quot;@startuml\nleft to right direction\nskinparam packageStyle rectangle\nskinparam shadowing false\nskinparam defaultTextAlignment center\n\nactor Admin\nactor Teknisi\nactor Manajer\nactor Pelanggan\n\ncircle \&quot;0\\nSistem Informasi Perbaikan Kendaraan\&quot; as P0\n\nAdmin --&gt; P0 : Data Pelanggan &amp; Kendaraan\nP0 --&gt; Admin : Bukti Transaksi &amp; Jadwal Servis\n\nTeknisi --&gt; P0 : Laporan Perbaikan\nP0 --&gt; Teknisi : Jadwal Kerja &amp; Detail Kendaraan\n\nManajer --&gt; P0 : Permintaan Laporan\nP0 --&gt; Manajer : Laporan Servis &amp; Stok\n\nPelanggan --&gt; P0 : Permintaan Status Kendaraan\nP0 --&gt; Pelanggan : Status Kendaraan\n\n@enduml\n&quot;,&#xa;  &quot;format&quot;: &quot;svg&quot;&#xa;}" id="hAPKSh9ywb4FfvCKl24X-2">
          <mxCell style="shape=image;noLabel=1;verticalAlign=top;aspect=fixed;imageAspect=0;image=data:image/svg+xml,PHN2ZyB4bWxucz0iaHR0cDovL3d3dy53My5vcmcvMjAwMC9zdmciIHhtbG5zOnhsaW5rPSJodHRwOi8vd3d3LnczLm9yZy8xOTk5L3hsaW5rIiBjb250ZW50U3R5bGVUeXBlPSJ0ZXh0L2NzcyIgZGF0YS1kaWFncmFtLXR5cGU9IkRFU0NSSVBUSU9OIiBoZWlnaHQ9IjM1N3B4IiBwcmVzZXJ2ZUFzcGVjdFJhdGlvPSJub25lIiBzdHlsZT0id2lkdGg6NjU1cHg7aGVpZ2h0OjM1N3B4O2JhY2tncm91bmQ6I0ZGRkZGRjsiIHZlcnNpb249IjEuMSIgdmlld0JveD0iMCAwIDY1NSAzNTciIHdpZHRoPSI2NTVweCIgem9vbUFuZFBhbj0ibWFnbmlmeSI+PGRlZnMvPjxnPjwhLS1lbnRpdHkgQWRtaW4tLT48ZyBjbGFzcz0iZW50aXR5IiBkYXRhLWVudGl0eT0iQWRtaW4iIGRhdGEtc291cmNlLWxpbmU9IjYiIGRhdGEtdWlkPSJlbnQwMDAyIiBpZD0iZW50aXR5X0FkbWluIj48ZWxsaXBzZSBjeD0iMjMuNSIgY3k9IjEyOC42MyIgZmlsbD0iI0YxRjFGMSIgcng9IjgiIHJ5PSI4IiBzdHlsZT0ic3Ryb2tlOiMxODE4MTg7c3Ryb2tlLXdpZHRoOjAuNTsiLz48cGF0aCBkPSJNMjMuNSwxMzYuNjMgTDIzLjUsMTYzLjYzIE0xMC41LDE0NC42MyBMMzYuNSwxNDQuNjMgTTIzLjUsMTYzLjYzIEwxMC41LDE3OC42MyBNMjMuNSwxNjMuNjMgTDM2LjUsMTc4LjYzIiBmaWxsPSJub25lIiBzdHlsZT0ic3Ryb2tlOiMxODE4MTg7c3Ryb2tlLXdpZHRoOjAuNTsiLz48dGV4dCBmaWxsPSIjMDAwMDAwIiBmb250LWZhbWlseT0ic2Fucy1zZXJpZiIgZm9udC1zaXplPSIxNCIgbGVuZ3RoQWRqdXN0PSJzcGFjaW5nIiB0ZXh0TGVuZ3RoPSIzNSIgeD0iNiIgeT0iMTkzLjM2NDQiPkFkbWluPC90ZXh0PjwvZz48IS0tZW50aXR5IFRla25pc2ktLT48ZyBjbGFzcz0iZW50aXR5IiBkYXRhLWVudGl0eT0iVGVrbmlzaSIgZGF0YS1zb3VyY2UtbGluZT0iNyIgZGF0YS11aWQ9ImVudDAwMDMiIGlkPSJlbnRpdHlfVGVrbmlzaSI+PGVsbGlwc2UgY3g9IjYxNi41IiBjeT0iMTguNjMiIGZpbGw9IiNGMUYxRjEiIHJ4PSI4IiByeT0iOCIgc3R5bGU9InN0cm9rZTojMTgxODE4O3N0cm9rZS13aWR0aDowLjU7Ii8+PHBhdGggZD0iTTYxNi41LDI2LjYzIEw2MTYuNSw1My42MyBNNjAzLjUsMzQuNjMgTDYyOS41LDM0LjYzIE02MTYuNSw1My42MyBMNjAzLjUsNjguNjMgTTYxNi41LDUzLjYzIEw2MjkuNSw2OC42MyIgZmlsbD0ibm9uZSIgc3R5bGU9InN0cm9rZTojMTgxODE4O3N0cm9rZS13aWR0aDowLjU7Ii8+PHRleHQgZmlsbD0iIzAwMDAwMCIgZm9udC1mYW1pbHk9InNhbnMtc2VyaWYiIGZvbnQtc2l6ZT0iMTQiIGxlbmd0aEFkanVzdD0ic3BhY2luZyIgdGV4dExlbmd0aD0iNDkiIHg9IjU5MiIgeT0iODMuMzY0NCI+VGVrbmlzaTwvdGV4dD48L2c+PCEtLWVudGl0eSBNYW5hamVyLS0+PGcgY2xhc3M9ImVudGl0eSIgZGF0YS1lbnRpdHk9Ik1hbmFqZXIiIGRhdGEtc291cmNlLWxpbmU9IjgiIGRhdGEtdWlkPSJlbnQwMDA0IiBpZD0iZW50aXR5X01hbmFqZXIiPjxlbGxpcHNlIGN4PSI2MTYuNSIgY3k9IjE1NS42MyIgZmlsbD0iI0YxRjFGMSIgcng9IjgiIHJ5PSI4IiBzdHlsZT0ic3Ryb2tlOiMxODE4MTg7c3Ryb2tlLXdpZHRoOjAuNTsiLz48cGF0aCBkPSJNNjE2LjUsMTYzLjYzIEw2MTYuNSwxOTAuNjMgTTYwMy41LDE3MS42MyBMNjI5LjUsMTcxLjYzIE02MTYuNSwxOTAuNjMgTDYwMy41LDIwNS42MyBNNjE2LjUsMTkwLjYzIEw2MjkuNSwyMDUuNjMiIGZpbGw9Im5vbmUiIHN0eWxlPSJzdHJva2U6IzE4MTgxODtzdHJva2Utd2lkdGg6MC41OyIvPjx0ZXh0IGZpbGw9IiMwMDAwMDAiIGZvbnQtZmFtaWx5PSJzYW5zLXNlcmlmIiBmb250LXNpemU9IjE0IiBsZW5ndGhBZGp1c3Q9InNwYWNpbmciIHRleHRMZW5ndGg9IjQ5IiB4PSI1OTIiIHk9IjIyMC4zNjQ0Ij5NYW5hamVyPC90ZXh0PjwvZz48IS0tZW50aXR5IFBlbGFuZ2dhbi0tPjxnIGNsYXNzPSJlbnRpdHkiIGRhdGEtZW50aXR5PSJQZWxhbmdnYW4iIGRhdGEtc291cmNlLWxpbmU9IjkiIGRhdGEtdWlkPSJlbnQwMDA1IiBpZD0iZW50aXR5X1BlbGFuZ2dhbiI+PGVsbGlwc2UgY3g9IjYxNi41IiBjeT0iMjY1LjYzIiBmaWxsPSIjRjFGMUYxIiByeD0iOCIgcnk9IjgiIHN0eWxlPSJzdHJva2U6IzE4MTgxODtzdHJva2Utd2lkdGg6MC41OyIvPjxwYXRoIGQ9Ik02MTYuNSwyNzMuNjMgTDYxNi41LDMwMC42MyBNNjAzLjUsMjgxLjYzIEw2MjkuNSwyODEuNjMgTTYxNi41LDMwMC42MyBMNjAzLjUsMzE1LjYzIE02MTYuNSwzMDAuNjMgTDYyOS41LDMxNS42MyIgZmlsbD0ibm9uZSIgc3R5bGU9InN0cm9rZTojMTgxODE4O3N0cm9rZS13aWR0aDowLjU7Ii8+PHRleHQgZmlsbD0iIzAwMDAwMCIgZm9udC1mYW1pbHk9InNhbnMtc2VyaWYiIGZvbnQtc2l6ZT0iMTQiIGxlbmd0aEFkanVzdD0ic3BhY2luZyIgdGV4dExlbmd0aD0iNjMiIHg9IjU4NSIgeT0iMzMwLjM2NDQiPlBlbGFuZ2dhbjwvdGV4dD48L2c+PCEtLWVudGl0eSBQMC0tPjxnIGNsYXNzPSJlbnRpdHkiIGRhdGEtZW50aXR5PSJQMCIgZGF0YS1zb3VyY2UtbGluZT0iMTEiIGRhdGEtdWlkPSJlbnQwMDA2IiBpZD0iZW50aXR5X1AwIj48ZWxsaXBzZSBjeD0iMzEzIiBjeT0iMTU3LjYzIiBmaWxsPSIjRjFGMUYxIiByeD0iOCIgcnk9IjgiIHN0eWxlPSJzdHJva2U6IzE4MTgxODtzdHJva2Utd2lkdGg6MC41OyIvPjx0ZXh0IGZpbGw9IiMwMDAwMDAiIGZvbnQtZmFtaWx5PSJzYW5zLXNlcmlmIiBmb250LXNpemU9IjE0IiBsZW5ndGhBZGp1c3Q9InNwYWNpbmciIHRleHRMZW5ndGg9IjciIHg9IjMwOS41IiB5PSIxODcuODY0NCI+MDwvdGV4dD48dGV4dCBmaWxsPSIjMDAwMDAwIiBmb250LWZhbWlseT0ic2Fucy1zZXJpZiIgZm9udC1zaXplPSIxNCIgbGVuZ3RoQWRqdXN0PSJzcGFjaW5nIiB0ZXh0TGVuZ3RoPSIyNTIiIHg9IjE4NyIgeT0iMjAyLjg0ODgiPlNpc3RlbSBJbmZvcm1hc2kgUGVyYmFpa2FuIEtlbmRhcmFhbjwvdGV4dD48L2c+PCEtLWxpbmsgQWRtaW4gdG8gUDAtLT48ZyBjbGFzcz0ibGluayIgZGF0YS1lbnRpdHktMT0iQWRtaW4iIGRhdGEtZW50aXR5LTI9IlAwIiBkYXRhLXNvdXJjZS1saW5lPSIxMyIgZGF0YS11aWQ9ImxuazciIGlkPSJsaW5rX0FkbWluX1AwIj48cGF0aCBkPSJNNDEuMiwxNTcuNjMgQzk1LjM3LDE1Ny42MyAyNTguOTUsMTU3LjYzIDI5Ny45NSwxNTcuNjMiIGZpbGw9Im5vbmUiIGlkPSJBZG1pbi10by1QMCIgc3R5bGU9InN0cm9rZTojMTgxODE4O3N0cm9rZS13aWR0aDoxOyIvPjxwb2x5Z29uIGZpbGw9IiMxODE4MTgiIHBvaW50cz0iMzAzLjk1LDE1Ny42MywyOTQuOTUsMTUzLjYzLDI5OC45NSwxNTcuNjMsMjk0Ljk1LDE2MS42MywzMDMuOTUsMTU3LjYzIiBzdHlsZT0ic3Ryb2tlOiMxODE4MTg7c3Ryb2tlLXdpZHRoOjE7Ii8+PHRleHQgZmlsbD0iIzAwMDAwMCIgZm9udC1mYW1pbHk9InNhbnMtc2VyaWYiIGZvbnQtc2l6ZT0iMTMiIGxlbmd0aEFkanVzdD0ic3BhY2luZyIgdGV4dExlbmd0aD0iMTY5IiB4PSI4OCIgeT0iMTU1LjkxOTEiPkRhdGEgUGVsYW5nZ2FuICZhbXA7IEtlbmRhcmFhbjwvdGV4dD48L2c+PCEtLWxpbmsgUDAgdG8gQWRtaW4tLT48ZyBjbGFzcz0ibGluayIgZGF0YS1lbnRpdHktMT0iUDAiIGRhdGEtZW50aXR5LTI9IkFkbWluIiBkYXRhLXNvdXJjZS1saW5lPSIxNCIgZGF0YS11aWQ9ImxuazgiIGlkPSJsaW5rX1AwX0FkbWluIj48cGF0aCBkPSJNMzAzLjg3LDE2NC4zNyBDMjk2LjU3LDE2OS45NiAyODUuMjksMTc3LjQ4IDI3NCwxODAuNjMgQzE4Ny4xLDIwNC44OCAxNTguODUsMjAxLjE3IDcxLDE4MC42MyBDNjAuNDgsMTc4LjE3IDU0LjgyNTksMTc1LjkwNzkgNDYuMjQ1OSwxNzEuMDY3OSIgZmlsbD0ibm9uZSIgaWQ9IlAwLXRvLUFkbWluIiBzdHlsZT0ic3Ryb2tlOiMxODE4MTg7c3Ryb2tlLXdpZHRoOjE7Ii8+PHBvbHlnb24gZmlsbD0iIzE4MTgxOCIgcG9pbnRzPSI0MS4wMiwxNjguMTIsNDYuODkzNSwxNzYuMDI1OCw0NS4zNzQ5LDE3MC41NzY2LDUwLjgyNDEsMTY5LjA1OCw0MS4wMiwxNjguMTIiIHN0eWxlPSJzdHJva2U6IzE4MTgxODtzdHJva2Utd2lkdGg6MTsiLz48dGV4dCBmaWxsPSIjMDAwMDAwIiBmb250LWZhbWlseT0ic2Fucy1zZXJpZiIgZm9udC1zaXplPSIxMyIgbGVuZ3RoQWRqdXN0PSJzcGFjaW5nIiB0ZXh0TGVuZ3RoPSIyMDEuNSIgeD0iNzIiIHk9IjE3OC45MTkxIj5CdWt0aSBUcmFuc2Frc2kgJmFtcDsgSmFkd2FsIFNlcnZpczwvdGV4dD48L2c+PCEtLWxpbmsgVGVrbmlzaSB0byBQMC0tPjxnIGNsYXNzPSJsaW5rIiBkYXRhLWVudGl0eS0xPSJUZWtuaXNpIiBkYXRhLWVudGl0eS0yPSJQMCIgZGF0YS1zb3VyY2UtbGluZT0iMTYiIGRhdGEtdWlkPSJsbms5IiBpZD0ibGlua19UZWtuaXNpX1AwIj48cGF0aCBkPSJNNTkxLjgyLDYwLjY1IEM1ODAuODQsNjYuMzYgNTY3LjQ4LDcyLjgzIDU1NSw3Ny42MyBDNDY3LjUzLDExMS4yNiA0MzcuOTgsOTcuMzYgMzUyLDEzNC42MyBDMzQxLjEsMTM5LjM1IDMzNC41MTkxLDE0My4zMjc5IDMyNy4wNDkxLDE0OC40NDc5IiBmaWxsPSJub25lIiBpZD0iVGVrbmlzaS10by1QMCIgc3R5bGU9InN0cm9rZTojMTgxODE4O3N0cm9rZS13aWR0aDoxOyIvPjxwb2x5Z29uIGZpbGw9IiMxODE4MTgiIHBvaW50cz0iMzIyLjEsMTUxLjg0LDMzMS43ODUsMTUwLjA1MTIsMzI2LjIyNDIsMTQ5LjAxMzIsMzI3LjI2MjIsMTQzLjQ1MjQsMzIyLjEsMTUxLjg0IiBzdHlsZT0ic3Ryb2tlOiMxODE4MTg7c3Ryb2tlLXdpZHRoOjE7Ii8+PHRleHQgZmlsbD0iIzAwMDAwMCIgZm9udC1mYW1pbHk9InNhbnMtc2VyaWYiIGZvbnQtc2l6ZT0iMTMiIGxlbmd0aEFkanVzdD0ic3BhY2luZyIgdGV4dExlbmd0aD0iMTEwLjUiIHg9IjM5OC41IiB5PSI3NS45MTkxIj5MYXBvcmFuIFBlcmJhaWthbjwvdGV4dD48L2c+PCEtLWxpbmsgUDAgdG8gVGVrbmlzaS0tPjxnIGNsYXNzPSJsaW5rIiBkYXRhLWVudGl0eS0xPSJQMCIgZGF0YS1lbnRpdHktMj0iVGVrbmlzaSIgZGF0YS1zb3VyY2UtbGluZT0iMTciIGRhdGEtdWlkPSJsbmsxMCIgaWQ9ImxpbmtfUDBfVGVrbmlzaSI+PHBhdGggZD0iTTMxNC4zNywxNDguNTcgQzMxNS43MiwxMjguNDUgMzIyLjEsODAuMTEgMzUyLDU4LjYzIEM0MjUuMjUsNiA1MzUuOTkwNiwyNi4zNTk5IDU4NS44MzA2LDM5LjIyOTkiIGZpbGw9Im5vbmUiIGlkPSJQMC10by1UZWtuaXNpIiBzdHlsZT0ic3Ryb2tlOiMxODE4MTg7c3Ryb2tlLXdpZHRoOjE7Ii8+PHBvbHlnb24gZmlsbD0iIzE4MTgxOCIgcG9pbnRzPSI1OTEuNjQsNDAuNzMsNTgzLjkyNTksMzQuNjA2OCw1ODYuNzk4OCwzOS40Nzk5LDU4MS45MjU3LDQyLjM1MjcsNTkxLjY0LDQwLjczIiBzdHlsZT0ic3Ryb2tlOiMxODE4MTg7c3Ryb2tlLXdpZHRoOjE7Ii8+PHRleHQgZmlsbD0iIzAwMDAwMCIgZm9udC1mYW1pbHk9InNhbnMtc2VyaWYiIGZvbnQtc2l6ZT0iMTMiIGxlbmd0aEFkanVzdD0ic3BhY2luZyIgdGV4dExlbmd0aD0iMjAxLjUiIHg9IjM1MyIgeT0iMjMuOTE5MSI+SmFkd2FsIEtlcmphICZhbXA7IERldGFpbCBLZW5kYXJhYW48L3RleHQ+PC9nPjwhLS1saW5rIE1hbmFqZXIgdG8gUDAtLT48ZyBjbGFzcz0ibGluayIgZGF0YS1lbnRpdHktMT0iTWFuYWplciIgZGF0YS1lbnRpdHktMj0iUDAiIGRhdGEtc291cmNlLWxpbmU9IjE5IiBkYXRhLXVpZD0ibG5rMTEiIGlkPSJsaW5rX01hbmFqZXJfUDAiPjxwYXRoIGQ9Ik01OTEuNzQsMTkwLjEyIEM1NDQuNDksMTk5LjkyIDQzNi4wNiwyMTYuODEgMzUyLDE4Ny42MyBDMzQwLjA5LDE4My41IDMzMy4yODE5LDE3OC4yMDI3IDMyNi4yMTE5LDE3MC45NjI3IiBmaWxsPSJub25lIiBpZD0iTWFuYWplci10by1QMCIgc3R5bGU9InN0cm9rZTojMTgxODE4O3N0cm9rZS13aWR0aDoxOyIvPjxwb2x5Z29uIGZpbGw9IiMxODE4MTgiIHBvaW50cz0iMzIyLjAyLDE2Ni42NywzMjUuNDQ2MSwxNzUuOTAzNywzMjUuNTEzMywxNzAuMjQ3MywzMzEuMTY5NywxNzAuMzE0NSwzMjIuMDIsMTY2LjY3IiBzdHlsZT0ic3Ryb2tlOiMxODE4MTg7c3Ryb2tlLXdpZHRoOjE7Ii8+PHRleHQgZmlsbD0iIzAwMDAwMCIgZm9udC1mYW1pbHk9InNhbnMtc2VyaWYiIGZvbnQtc2l6ZT0iMTMiIGxlbmd0aEFkanVzdD0ic3BhY2luZyIgdGV4dExlbmd0aD0iMTE3IiB4PSIzOTUiIHk9IjE4NS45MTkxIj5QZXJtaW50YWFuIExhcG9yYW48L3RleHQ+PC9nPjwhLS1saW5rIFAwIHRvIE1hbmFqZXItLT48ZyBjbGFzcz0ibGluayIgZGF0YS1lbnRpdHktMT0iUDAiIGRhdGEtZW50aXR5LTI9Ik1hbmFqZXIiIGRhdGEtc291cmNlLWxpbmU9IjIwIiBkYXRhLXVpZD0ibG5rMTIiIGlkPSJsaW5rX1AwX01hbmFqZXIiPjxwYXRoIGQ9Ik0zMjIuMzksMTU3LjM3IEMzNTMuNDQsMTU2LjU1IDQ2NC43NSwxNTQuOCA1NTUsMTY4LjYzIEM1NjcuMzUsMTcwLjUyIDU3NS4wNDUyLDE3Mi4yNzY2IDU4Ni4xMzUyLDE3NS40NzY2IiBmaWxsPSJub25lIiBpZD0iUDAtdG8tTWFuYWplciIgc3R5bGU9InN0cm9rZTojMTgxODE4O3N0cm9rZS13aWR0aDoxOyIvPjxwb2x5Z29uIGZpbGw9IiMxODE4MTgiIHBvaW50cz0iNTkxLjksMTc3LjE0LDU4NC4zNjE3LDE3MC44MDE3LDU4Ny4wOTYsMTc1Ljc1MzgsNTgyLjE0MzgsMTc4LjQ4ODEsNTkxLjksMTc3LjE0IiBzdHlsZT0ic3Ryb2tlOiMxODE4MTg7c3Ryb2tlLXdpZHRoOjE7Ii8+PHRleHQgZmlsbD0iIzAwMDAwMCIgZm9udC1mYW1pbHk9InNhbnMtc2VyaWYiIGZvbnQtc2l6ZT0iMTMiIGxlbmd0aEFkanVzdD0ic3BhY2luZyIgdGV4dExlbmd0aD0iMTM2LjUiIHg9IjM4NS41IiB5PSIxNTUuOTE5MSI+TGFwb3JhbiBTZXJ2aXMgJmFtcDsgU3RvazwvdGV4dD48L2c+PCEtLWxpbmsgUGVsYW5nZ2FuIHRvIFAwLS0+PGcgY2xhc3M9ImxpbmsiIGRhdGEtZW50aXR5LTE9IlBlbGFuZ2dhbiIgZGF0YS1lbnRpdHktMj0iUDAiIGRhdGEtc291cmNlLWxpbmU9IjIyIiBkYXRhLXVpZD0ibG5rMTMiIGlkPSJsaW5rX1BlbGFuZ2dhbl9QMCI+PHBhdGggZD0iTTU4NC45MSwzMDUuOTMgQzUzMS41NywzMjMuNDkgNDIwLjY4LDM1MC4xNiAzNTIsMjk3LjYzIEMzMzAuNjksMjgxLjM0IDMxOS4yNywyMDEuMTk1NCAzMTUuNzgsMTcyLjcyNTQiIGZpbGw9Im5vbmUiIGlkPSJQZWxhbmdnYW4tdG8tUDAiIHN0eWxlPSJzdHJva2U6IzE4MTgxODtzdHJva2Utd2lkdGg6MTsiLz48cG9seWdvbiBmaWxsPSIjMTgxODE4IiBwb2ludHM9IjMxNS4wNSwxNjYuNzcsMzEyLjE3NDgsMTc2LjE4OTgsMzE1LjY1ODQsMTcxLjczMjksMzIwLjExNTMsMTc1LjIxNjQsMzE1LjA1LDE2Ni43NyIgc3R5bGU9InN0cm9rZTojMTgxODE4O3N0cm9rZS13aWR0aDoxOyIvPjx0ZXh0IGZpbGw9IiMwMDAwMDAiIGZvbnQtZmFtaWx5PSJzYW5zLXNlcmlmIiBmb250LXNpemU9IjEzIiBsZW5ndGhBZGp1c3Q9InNwYWNpbmciIHRleHRMZW5ndGg9IjE3NS41IiB4PSIzNjYiIHk9IjI5NS45MTkxIj5QZXJtaW50YWFuIFN0YXR1cyBLZW5kYXJhYW48L3RleHQ+PC9nPjwhLS1saW5rIFAwIHRvIFBlbGFuZ2dhbi0tPjxnIGNsYXNzPSJsaW5rIiBkYXRhLWVudGl0eS0xPSJQMCIgZGF0YS1lbnRpdHktMj0iUGVsYW5nZ2FuIiBkYXRhLXNvdXJjZS1saW5lPSIyMyIgZGF0YS11aWQ9ImxuazE0IiBpZD0ibGlua19QMF9QZWxhbmdnYW4iPjxwYXRoIGQ9Ik0zMTYuNDYsMTY2Ljc5IEMzMjAuOTQsMTgxLjY5IDMzMS44OSwyMTEuMDUgMzUyLDIyNi42MyBDNDI1LjYzLDI4My42NyA0NjQuODcsMjU1LjE3IDU1NSwyNzguNjMgQzU2NC42NywyODEuMTUgNTY5LjQwOTgsMjgyLjM4NDYgNTc4LjkyOTgsMjg0LjkwNDYiIGZpbGw9Im5vbmUiIGlkPSJQMC10by1QZWxhbmdnYW4iIHN0eWxlPSJzdHJva2U6IzE4MTgxODtzdHJva2Utd2lkdGg6MTsiLz48cG9seWdvbiBmaWxsPSIjMTgxODE4IiBwb2ludHM9IjU4NC43MywyODYuNDQsNTc3LjA1MzIsMjgwLjI3MDEsNTc5Ljg5NjUsMjg1LjE2MDUsNTc1LjAwNjEsMjg4LjAwMzgsNTg0LjczLDI4Ni40NCIgc3R5bGU9InN0cm9rZTojMTgxODE4O3N0cm9rZS13aWR0aDoxOyIvPjx0ZXh0IGZpbGw9IiMwMDAwMDAiIGZvbnQtZmFtaWx5PSJzYW5zLXNlcmlmIiBmb250LXNpemU9IjEzIiBsZW5ndGhBZGp1c3Q9InNwYWNpbmciIHRleHRMZW5ndGg9IjEwNCIgeD0iNDAxLjUiIHk9IjIyNC45MTkxIj5TdGF0dXMgS2VuZGFyYWFuPC90ZXh0PjwvZz48IS0tU1JDPVtST3luUnk5MDM4TnQtbktNMG5pSVN1UEFMMm1qaE9HS25Zdmt1V0hwNXJ6cVBxaHh4c2pBZWFFWW8tY2l6X296dnEyVFdhUDh0MXlMTWF4S0E0VG5zUkVDYzcyMDRIa0ZGVE53NG1Za0NhZVZ3Q3dHWnpaNjJxaUY3T1B5aHhKS3VKZGVXUnZyNHhZTldLSVhpT1VJU3pYZUpCMWYxdlJmVm8wbGQ3Y1F0YjdtUENSUmpBVFdrSnNBU21zZG5nZWlyWHpJU3JPUXU0TXdjMFJDUkJScVlVbkhPNFZJTVdjSzFNMjZfVGd2bG9YT2hQdmlXV2dzZzVZbWkybVJwbEloeFJQR21WRlBBeUNYZU1KcTVoQTRMc21sNkEyY3pDTlBrUWJ1T1JfWDZDclV3aXA4c0xkRFkxc2I0bmZuSXVlU3haZ3V3VnUyRFBacktIRGRfYW9UaElOdXJpb3VqS1JsTjNkcEZyZ2pnRVZ5VTdfUGdYdXlsbTAwXS0tPjwvZz48L3N2Zz4=;" parent="1" vertex="1">
            <mxGeometry x="161" y="1600" width="655" height="357" as="geometry" />
          </mxCell>
        </UserObject>
        <UserObject label="" plantUmlData="{&#xa;  &quot;data&quot;: &quot;@startuml\nstart\n\n:Admin menerima pelanggan;\n:Admin input data kendaraan;\n:Admin membuat jadwal servis;\n:Admin menetapkan teknisi;\n\npartition Teknisi {\n  :Teknisi melihat jadwal kerja;\n  :Teknisi memeriksa kendaraan;\n  :Teknisi mencatat hasil perbaikan;\n  :Teknisi menginput kebutuhan suku cadang;\n}\n\npartition Admin {\n  :Admin memeriksa hasil perbaikan;\n  :Admin mencatat transaksi servis;\n  :Admin mencetak laporan servis;\n}\n\nstop\n@enduml\n&quot;,&#xa;  &quot;format&quot;: &quot;svg&quot;&#xa;}" id="hAPKSh9ywb4FfvCKl24X-3">
          <mxCell style="shape=image;noLabel=1;verticalAlign=top;aspect=fixed;imageAspect=0;image=data:image/svg+xml,PHN2ZyB4bWxucz0iaHR0cDovL3d3dy53My5vcmcvMjAwMC9zdmciIHhtbG5zOnhsaW5rPSJodHRwOi8vd3d3LnczLm9yZy8xOTk5L3hsaW5rIiBjb250ZW50U3R5bGVUeXBlPSJ0ZXh0L2NzcyIgZGF0YS1kaWFncmFtLXR5cGU9IkFDVElWSVRZIiBoZWlnaHQ9IjczOHB4IiBwcmVzZXJ2ZUFzcGVjdFJhdGlvPSJub25lIiBzdHlsZT0id2lkdGg6Mjk2cHg7aGVpZ2h0OjczOHB4O2JhY2tncm91bmQ6I0ZGRkZGRjsiIHZlcnNpb249IjEuMSIgdmlld0JveD0iMCAwIDI5NiA3MzgiIHdpZHRoPSIyOTZweCIgem9vbUFuZFBhbj0ibWFnbmlmeSI+PGRlZnMvPjxnPjxlbGxpcHNlIGN4PSIxNDgiIGN5PSIyMCIgZmlsbD0iIzIyMjIyMiIgcng9IjEwIiByeT0iMTAiIHN0eWxlPSJzdHJva2U6IzIyMjIyMjtzdHJva2Utd2lkdGg6MTsiLz48cmVjdCBmaWxsPSIjRjFGMUYxIiBoZWlnaHQ9IjMyLjg0MzgiIHJ4PSIxMi41IiByeT0iMTIuNSIgc3R5bGU9InN0cm9rZTojMTgxODE4O3N0cm9rZS13aWR0aDowLjU7IiB3aWR0aD0iMTY0IiB4PSI2NiIgeT0iNTAiLz48dGV4dCBmaWxsPSIjMDAwMDAwIiBmb250LWZhbWlseT0ic2Fucy1zZXJpZiIgZm9udC1zaXplPSIxMiIgbGVuZ3RoQWRqdXN0PSJzcGFjaW5nIiB0ZXh0TGVuZ3RoPSIxNDQiIHg9Ijc2IiB5PSI3MS4zNDM4Ij5BZG1pbiBtZW5lcmltYSBwZWxhbmdnYW48L3RleHQ+PHJlY3QgZmlsbD0iI0YxRjFGMSIgaGVpZ2h0PSIzMi44NDM4IiByeD0iMTIuNSIgcnk9IjEyLjUiIHN0eWxlPSJzdHJva2U6IzE4MTgxODtzdHJva2Utd2lkdGg6MC41OyIgd2lkdGg9IjE3NiIgeD0iNjAiIHk9IjEwMi44NDM4Ii8+PHRleHQgZmlsbD0iIzAwMDAwMCIgZm9udC1mYW1pbHk9InNhbnMtc2VyaWYiIGZvbnQtc2l6ZT0iMTIiIGxlbmd0aEFkanVzdD0ic3BhY2luZyIgdGV4dExlbmd0aD0iMTU2IiB4PSI3MCIgeT0iMTI0LjE4NzUiPkFkbWluIGlucHV0IGRhdGEga2VuZGFyYWFuPC90ZXh0PjxyZWN0IGZpbGw9IiNGMUYxRjEiIGhlaWdodD0iMzIuODQzOCIgcng9IjEyLjUiIHJ5PSIxMi41IiBzdHlsZT0ic3Ryb2tlOiMxODE4MTg7c3Ryb2tlLXdpZHRoOjAuNTsiIHdpZHRoPSIxODIiIHg9IjU3IiB5PSIxNTUuNjg3NSIvPjx0ZXh0IGZpbGw9IiMwMDAwMDAiIGZvbnQtZmFtaWx5PSJzYW5zLXNlcmlmIiBmb250LXNpemU9IjEyIiBsZW5ndGhBZGp1c3Q9InNwYWNpbmciIHRleHRMZW5ndGg9IjE2MiIgeD0iNjciIHk9IjE3Ny4wMzEzIj5BZG1pbiBtZW1idWF0IGphZHdhbCBzZXJ2aXM8L3RleHQ+PHJlY3QgZmlsbD0iI0YxRjFGMSIgaGVpZ2h0PSIzMi44NDM4IiByeD0iMTIuNSIgcnk9IjEyLjUiIHN0eWxlPSJzdHJva2U6IzE4MTgxODtzdHJva2Utd2lkdGg6MC41OyIgd2lkdGg9IjE2NCIgeD0iNjYiIHk9IjIwOC41MzEzIi8+PHRleHQgZmlsbD0iIzAwMDAwMCIgZm9udC1mYW1pbHk9InNhbnMtc2VyaWYiIGZvbnQtc2l6ZT0iMTIiIGxlbmd0aEFkanVzdD0ic3BhY2luZyIgdGV4dExlbmd0aD0iMTQ0IiB4PSI3NiIgeT0iMjI5Ljg3NSI+QWRtaW4gbWVuZXRhcGthbiB0ZWtuaXNpPC90ZXh0PjxyZWN0IGZpbGw9Im5vbmUiIGhlaWdodD0iMjM4LjM1OTQiIHN0eWxlPSJzdHJva2U6IzAwMDAwMDtzdHJva2Utd2lkdGg6MS41OyIgd2lkdGg9IjI3NCIgeD0iMTEiIHk9IjI1MS4zNzUiLz48cGF0aCBkPSJNNzAsMjUxLjM3NSBMNzAsMjU5LjM1OTQgTDYwLDI2OS4zNTk0IEwxMSwyNjkuMzU5NCIgZmlsbD0ibm9uZSIgc3R5bGU9InN0cm9rZTojMDAwMDAwO3N0cm9rZS13aWR0aDoxLjU7Ii8+PHRleHQgZmlsbD0iIzAwMDAwMCIgZm9udC1mYW1pbHk9InNhbnMtc2VyaWYiIGZvbnQtc2l6ZT0iMTQiIGxlbmd0aEFkanVzdD0ic3BhY2luZyIgdGV4dExlbmd0aD0iNDkiIHg9IjE0IiB5PSIyNjUuNjA5NCI+VGVrbmlzaTwvdGV4dD48cmVjdCBmaWxsPSIjRjFGMUYxIiBoZWlnaHQ9IjMyLjg0MzgiIHJ4PSIxMi41IiByeT0iMTIuNSIgc3R5bGU9InN0cm9rZTojMTgxODE4O3N0cm9rZS13aWR0aDowLjU7IiB3aWR0aD0iMTg4IiB4PSI1NCIgeT0iMjg2LjM1OTQiLz48dGV4dCBmaWxsPSIjMDAwMDAwIiBmb250LWZhbWlseT0ic2Fucy1zZXJpZiIgZm9udC1zaXplPSIxMiIgbGVuZ3RoQWRqdXN0PSJzcGFjaW5nIiB0ZXh0TGVuZ3RoPSIxNjgiIHg9IjY0IiB5PSIzMDcuNzAzMSI+VGVrbmlzaSBtZWxpaGF0IGphZHdhbCBrZXJqYTwvdGV4dD48cmVjdCBmaWxsPSIjRjFGMUYxIiBoZWlnaHQ9IjMyLjg0MzgiIHJ4PSIxMi41IiByeT0iMTIuNSIgc3R5bGU9InN0cm9rZTojMTgxODE4O3N0cm9rZS13aWR0aDowLjU7IiB3aWR0aD0iMTgyIiB4PSI1NyIgeT0iMzM5LjIwMzEiLz48dGV4dCBmaWxsPSIjMDAwMDAwIiBmb250LWZhbWlseT0ic2Fucy1zZXJpZiIgZm9udC1zaXplPSIxMiIgbGVuZ3RoQWRqdXN0PSJzcGFjaW5nIiB0ZXh0TGVuZ3RoPSIxNjIiIHg9IjY3IiB5PSIzNjAuNTQ2OSI+VGVrbmlzaSBtZW1lcmlrc2Ega2VuZGFyYWFuPC90ZXh0PjxyZWN0IGZpbGw9IiNGMUYxRjEiIGhlaWdodD0iMzIuODQzOCIgcng9IjEyLjUiIHJ5PSIxMi41IiBzdHlsZT0ic3Ryb2tlOiMxODE4MTg7c3Ryb2tlLXdpZHRoOjAuNTsiIHdpZHRoPSIyMTIiIHg9IjQyIiB5PSIzOTIuMDQ2OSIvPjx0ZXh0IGZpbGw9IiMwMDAwMDAiIGZvbnQtZmFtaWx5PSJzYW5zLXNlcmlmIiBmb250LXNpemU9IjEyIiBsZW5ndGhBZGp1c3Q9InNwYWNpbmciIHRleHRMZW5ndGg9IjE5MiIgeD0iNTIiIHk9IjQxMy4zOTA2Ij5UZWtuaXNpIG1lbmNhdGF0IGhhc2lsIHBlcmJhaWthbjwvdGV4dD48cmVjdCBmaWxsPSIjRjFGMUYxIiBoZWlnaHQ9IjMyLjg0MzgiIHJ4PSIxMi41IiByeT0iMTIuNSIgc3R5bGU9InN0cm9rZTojMTgxODE4O3N0cm9rZS13aWR0aDowLjU7IiB3aWR0aD0iMjU0IiB4PSIyMSIgeT0iNDQ0Ljg5MDYiLz48dGV4dCBmaWxsPSIjMDAwMDAwIiBmb250LWZhbWlseT0ic2Fucy1zZXJpZiIgZm9udC1zaXplPSIxMiIgbGVuZ3RoQWRqdXN0PSJzcGFjaW5nIiB0ZXh0TGVuZ3RoPSIyMzQiIHg9IjMxIiB5PSI0NjYuMjM0NCI+VGVrbmlzaSBtZW5naW5wdXQga2VidXR1aGFuIHN1a3UgY2FkYW5nPC90ZXh0PjxyZWN0IGZpbGw9Im5vbmUiIGhlaWdodD0iMTg1LjUxNTYiIHN0eWxlPSJzdHJva2U6IzAwMDAwMDtzdHJva2Utd2lkdGg6MS41OyIgd2lkdGg9IjIyNiIgeD0iMzUiIHk9IjQ5OS43MzQ0Ii8+PHBhdGggZD0iTTgwLDQ5OS43MzQ0IEw4MCw1MDcuNzE4OCBMNzAsNTE3LjcxODggTDM1LDUxNy43MTg4IiBmaWxsPSJub25lIiBzdHlsZT0ic3Ryb2tlOiMwMDAwMDA7c3Ryb2tlLXdpZHRoOjEuNTsiLz48dGV4dCBmaWxsPSIjMDAwMDAwIiBmb250LWZhbWlseT0ic2Fucy1zZXJpZiIgZm9udC1zaXplPSIxNCIgbGVuZ3RoQWRqdXN0PSJzcGFjaW5nIiB0ZXh0TGVuZ3RoPSIzNSIgeD0iMzgiIHk9IjUxMy45Njg4Ij5BZG1pbjwvdGV4dD48cmVjdCBmaWxsPSIjRjFGMUYxIiBoZWlnaHQ9IjMyLjg0MzgiIHJ4PSIxMi41IiByeT0iMTIuNSIgc3R5bGU9InN0cm9rZTojMTgxODE4O3N0cm9rZS13aWR0aDowLjU7IiB3aWR0aD0iMjA2IiB4PSI0NSIgeT0iNTM0LjcxODgiLz48dGV4dCBmaWxsPSIjMDAwMDAwIiBmb250LWZhbWlseT0ic2Fucy1zZXJpZiIgZm9udC1zaXplPSIxMiIgbGVuZ3RoQWRqdXN0PSJzcGFjaW5nIiB0ZXh0TGVuZ3RoPSIxODYiIHg9IjU1IiB5PSI1NTYuMDYyNSI+QWRtaW4gbWVtZXJpa3NhIGhhc2lsIHBlcmJhaWthbjwvdGV4dD48cmVjdCBmaWxsPSIjRjFGMUYxIiBoZWlnaHQ9IjMyLjg0MzgiIHJ4PSIxMi41IiByeT0iMTIuNSIgc3R5bGU9InN0cm9rZTojMTgxODE4O3N0cm9rZS13aWR0aDowLjU7IiB3aWR0aD0iMjA2IiB4PSI0NSIgeT0iNTg3LjU2MjUiLz48dGV4dCBmaWxsPSIjMDAwMDAwIiBmb250LWZhbWlseT0ic2Fucy1zZXJpZiIgZm9udC1zaXplPSIxMiIgbGVuZ3RoQWRqdXN0PSJzcGFjaW5nIiB0ZXh0TGVuZ3RoPSIxODYiIHg9IjU1IiB5PSI2MDguOTA2MyI+QWRtaW4gbWVuY2F0YXQgdHJhbnNha3NpIHNlcnZpczwvdGV4dD48cmVjdCBmaWxsPSIjRjFGMUYxIiBoZWlnaHQ9IjMyLjg0MzgiIHJ4PSIxMi41IiByeT0iMTIuNSIgc3R5bGU9InN0cm9rZTojMTgxODE4O3N0cm9rZS13aWR0aDowLjU7IiB3aWR0aD0iMTk0IiB4PSI1MSIgeT0iNjQwLjQwNjMiLz48dGV4dCBmaWxsPSIjMDAwMDAwIiBmb250LWZhbWlseT0ic2Fucy1zZXJpZiIgZm9udC1zaXplPSIxMiIgbGVuZ3RoQWRqdXN0PSJzcGFjaW5nIiB0ZXh0TGVuZ3RoPSIxNzQiIHg9IjYxIiB5PSI2NjEuNzUiPkFkbWluIG1lbmNldGFrIGxhcG9yYW4gc2VydmlzPC90ZXh0PjxlbGxpcHNlIGN4PSIxNDgiIGN5PSI3MTYuMjUiIGZpbGw9Im5vbmUiIHJ4PSIxMSIgcnk9IjExIiBzdHlsZT0ic3Ryb2tlOiMyMjIyMjI7c3Ryb2tlLXdpZHRoOjE7Ii8+PGVsbGlwc2UgY3g9IjE0OCIgY3k9IjcxNi4yNSIgZmlsbD0iIzIyMjIyMiIgcng9IjYiIHJ5PSI2IiBzdHlsZT0ic3Ryb2tlOiMyMjIyMjI7c3Ryb2tlLXdpZHRoOjE7Ii8+PGxpbmUgc3R5bGU9InN0cm9rZTojMTgxODE4O3N0cm9rZS13aWR0aDoxOyIgeDE9IjE0OCIgeDI9IjE0OCIgeTE9IjMwIiB5Mj0iNTAiLz48cG9seWdvbiBmaWxsPSIjMTgxODE4IiBwb2ludHM9IjE0NCw0MCwxNDgsNTAsMTUyLDQwLDE0OCw0NCIgc3R5bGU9InN0cm9rZTojMTgxODE4O3N0cm9rZS13aWR0aDoxOyIvPjxsaW5lIHN0eWxlPSJzdHJva2U6IzE4MTgxODtzdHJva2Utd2lkdGg6MTsiIHgxPSIxNDgiIHgyPSIxNDgiIHkxPSI4Mi44NDM4IiB5Mj0iMTAyLjg0MzgiLz48cG9seWdvbiBmaWxsPSIjMTgxODE4IiBwb2ludHM9IjE0NCw5Mi44NDM4LDE0OCwxMDIuODQzOCwxNTIsOTIuODQzOCwxNDgsOTYuODQzOCIgc3R5bGU9InN0cm9rZTojMTgxODE4O3N0cm9rZS13aWR0aDoxOyIvPjxsaW5lIHN0eWxlPSJzdHJva2U6IzE4MTgxODtzdHJva2Utd2lkdGg6MTsiIHgxPSIxNDgiIHgyPSIxNDgiIHkxPSIxMzUuNjg3NSIgeTI9IjE1NS42ODc1Ii8+PHBvbHlnb24gZmlsbD0iIzE4MTgxOCIgcG9pbnRzPSIxNDQsMTQ1LjY4NzUsMTQ4LDE1NS42ODc1LDE1MiwxNDUuNjg3NSwxNDgsMTQ5LjY4NzUiIHN0eWxlPSJzdHJva2U6IzE4MTgxODtzdHJva2Utd2lkdGg6MTsiLz48bGluZSBzdHlsZT0ic3Ryb2tlOiMxODE4MTg7c3Ryb2tlLXdpZHRoOjE7IiB4MT0iMTQ4IiB4Mj0iMTQ4IiB5MT0iMTg4LjUzMTMiIHkyPSIyMDguNTMxMyIvPjxwb2x5Z29uIGZpbGw9IiMxODE4MTgiIHBvaW50cz0iMTQ0LDE5OC41MzEzLDE0OCwyMDguNTMxMywxNTIsMTk4LjUzMTMsMTQ4LDIwMi41MzEzIiBzdHlsZT0ic3Ryb2tlOiMxODE4MTg7c3Ryb2tlLXdpZHRoOjE7Ii8+PGxpbmUgc3R5bGU9InN0cm9rZTojMTgxODE4O3N0cm9rZS13aWR0aDoxOyIgeDE9IjE0OCIgeDI9IjE0OCIgeTE9IjMxOS4yMDMxIiB5Mj0iMzM5LjIwMzEiLz48cG9seWdvbiBmaWxsPSIjMTgxODE4IiBwb2ludHM9IjE0NCwzMjkuMjAzMSwxNDgsMzM5LjIwMzEsMTUyLDMyOS4yMDMxLDE0OCwzMzMuMjAzMSIgc3R5bGU9InN0cm9rZTojMTgxODE4O3N0cm9rZS13aWR0aDoxOyIvPjxsaW5lIHN0eWxlPSJzdHJva2U6IzE4MTgxODtzdHJva2Utd2lkdGg6MTsiIHgxPSIxNDgiIHgyPSIxNDgiIHkxPSIzNzIuMDQ2OSIgeTI9IjM5Mi4wNDY5Ii8+PHBvbHlnb24gZmlsbD0iIzE4MTgxOCIgcG9pbnRzPSIxNDQsMzgyLjA0NjksMTQ4LDM5Mi4wNDY5LDE1MiwzODIuMDQ2OSwxNDgsMzg2LjA0NjkiIHN0eWxlPSJzdHJva2U6IzE4MTgxODtzdHJva2Utd2lkdGg6MTsiLz48bGluZSBzdHlsZT0ic3Ryb2tlOiMxODE4MTg7c3Ryb2tlLXdpZHRoOjE7IiB4MT0iMTQ4IiB4Mj0iMTQ4IiB5MT0iNDI0Ljg5MDYiIHkyPSI0NDQuODkwNiIvPjxwb2x5Z29uIGZpbGw9IiMxODE4MTgiIHBvaW50cz0iMTQ0LDQzNC44OTA2LDE0OCw0NDQuODkwNiwxNTIsNDM0Ljg5MDYsMTQ4LDQzOC44OTA2IiBzdHlsZT0ic3Ryb2tlOiMxODE4MTg7c3Ryb2tlLXdpZHRoOjE7Ii8+PGxpbmUgc3R5bGU9InN0cm9rZTojMTgxODE4O3N0cm9rZS13aWR0aDoxOyIgeDE9IjE0OCIgeDI9IjE0OCIgeTE9IjI0MS4zNzUiIHkyPSIyODYuMzU5NCIvPjxwb2x5Z29uIGZpbGw9IiMxODE4MTgiIHBvaW50cz0iMTQ0LDI3Ni4zNTk0LDE0OCwyODYuMzU5NCwxNTIsMjc2LjM1OTQsMTQ4LDI4MC4zNTk0IiBzdHlsZT0ic3Ryb2tlOiMxODE4MTg7c3Ryb2tlLXdpZHRoOjE7Ii8+PGxpbmUgc3R5bGU9InN0cm9rZTojMTgxODE4O3N0cm9rZS13aWR0aDoxOyIgeDE9IjE0OCIgeDI9IjE0OCIgeTE9IjU2Ny41NjI1IiB5Mj0iNTg3LjU2MjUiLz48cG9seWdvbiBmaWxsPSIjMTgxODE4IiBwb2ludHM9IjE0NCw1NzcuNTYyNSwxNDgsNTg3LjU2MjUsMTUyLDU3Ny41NjI1LDE0OCw1ODEuNTYyNSIgc3R5bGU9InN0cm9rZTojMTgxODE4O3N0cm9rZS13aWR0aDoxOyIvPjxsaW5lIHN0eWxlPSJzdHJva2U6IzE4MTgxODtzdHJva2Utd2lkdGg6MTsiIHgxPSIxNDgiIHgyPSIxNDgiIHkxPSI2MjAuNDA2MyIgeTI9IjY0MC40MDYzIi8+PHBvbHlnb24gZmlsbD0iIzE4MTgxOCIgcG9pbnRzPSIxNDQsNjMwLjQwNjMsMTQ4LDY0MC40MDYzLDE1Miw2MzAuNDA2MywxNDgsNjM0LjQwNjMiIHN0eWxlPSJzdHJva2U6IzE4MTgxODtzdHJva2Utd2lkdGg6MTsiLz48bGluZSBzdHlsZT0ic3Ryb2tlOiMxODE4MTg7c3Ryb2tlLXdpZHRoOjE7IiB4MT0iMTQ4IiB4Mj0iMTQ4IiB5MT0iNDc3LjczNDQiIHkyPSI1MzQuNzE4OCIvPjxwb2x5Z29uIGZpbGw9IiMxODE4MTgiIHBvaW50cz0iMTQ0LDUyNC43MTg4LDE0OCw1MzQuNzE4OCwxNTIsNTI0LjcxODgsMTQ4LDUyOC43MTg4IiBzdHlsZT0ic3Ryb2tlOiMxODE4MTg7c3Ryb2tlLXdpZHRoOjE7Ii8+PGxpbmUgc3R5bGU9InN0cm9rZTojMTgxODE4O3N0cm9rZS13aWR0aDoxOyIgeDE9IjE0OCIgeDI9IjE0OCIgeTE9IjY3My4yNSIgeTI9IjcwNS4yNSIvPjxwb2x5Z29uIGZpbGw9IiMxODE4MTgiIHBvaW50cz0iMTQ0LDY5NS4yNSwxNDgsNzA1LjI1LDE1Miw2OTUuMjUsMTQ4LDY5OS4yNSIgc3R5bGU9InN0cm9rZTojMTgxODE4O3N0cm9rZS13aWR0aDoxOyIvPjwhLS1TUkM9W1JQMTFTaUNXMzROdGQ0QmQyQWxTZUhWdTNlb2oyNkc2SEJsZXpFd2JUUHBRcW9uMVZfSlZLcERLUy12bzNQY0xTakhPRU9EQUpEMXZYbGZ6bjVnd0tPMjE5NmYwbk02T092dXdaRXU4N3FaS09kdGR2ZXpSM0tNV1A1Nks2dGxkb2tYYnVyTmZSVmtaSnFUcXNIeXY5YngtRGFnaVRfWHA4MHpLUUlVU3FybmwwelBlR1VDcVhFZTRibC1YVUhFSkU3TmhvcTFpTkpoVDQ4UV9Ucno3cUN0YzVfRWZfTTF1TFZBS3RwWWlHWGphakV4ZEVNTjZYT0dJb2JmXzYxdzlLVHppQlR5MF0tLT48L2c+PC9zdmc+;" parent="1" vertex="1">
            <mxGeometry x="1110" y="1230" width="296" height="738" as="geometry" />
          </mxCell>
        </UserObject>
        <UserObject label="" plantUmlData="{&#xa;  &quot;data&quot;: &quot;@startuml\nstart\n\n:Pelangan datang ke bengkel;\n:Admin menerima dan mencatat data pelanggan;\n:Admin mencatat data kendaraan;\n:Admin menjadwalkan servis dan menetapkan teknisi;\n\n:Teknisi menerima jadwal dan memeriksa kendaraan;\n\nif (Kendaraan memerlukan suku cadang?) then (Ya)\n  :Teknisi mengajukan permintaan suku cadang;\n  :Admin menyetujui dan mencatat penggunaan suku cadang;\nelse (Tidak)\nendif\n\n:Teknisi mencatat hasil perbaikan;\n\n:Admin mencatat transaksi servis;\n:Admin mencetak laporan servis;\nstop\n@enduml\n&quot;,&#xa;  &quot;format&quot;: &quot;svg&quot;&#xa;}" id="hAPKSh9ywb4FfvCKl24X-4">
          <mxCell style="shape=image;noLabel=1;verticalAlign=top;aspect=fixed;imageAspect=0;image=data:image/svg+xml,PHN2ZyB4bWxucz0iaHR0cDovL3d3dy53My5vcmcvMjAwMC9zdmciIHhtbG5zOnhsaW5rPSJodHRwOi8vd3d3LnczLm9yZy8xOTk5L3hsaW5rIiBjb250ZW50U3R5bGVUeXBlPSJ0ZXh0L2NzcyIgZGF0YS1kaWFncmFtLXR5cGU9IkFDVElWSVRZIiBoZWlnaHQ9IjcxOHB4IiBwcmVzZXJ2ZUFzcGVjdFJhdGlvPSJub25lIiBzdHlsZT0id2lkdGg6Mzc5cHg7aGVpZ2h0OjcxOHB4O2JhY2tncm91bmQ6I0ZGRkZGRjsiIHZlcnNpb249IjEuMSIgdmlld0JveD0iMCAwIDM3OSA3MTgiIHdpZHRoPSIzNzlweCIgem9vbUFuZFBhbj0ibWFnbmlmeSI+PGRlZnMvPjxnPjxlbGxpcHNlIGN4PSIxNzciIGN5PSIyMCIgZmlsbD0iIzIyMjIyMiIgcng9IjEwIiByeT0iMTAiIHN0eWxlPSJzdHJva2U6IzIyMjIyMjtzdHJva2Utd2lkdGg6MTsiLz48cmVjdCBmaWxsPSIjRjFGMUYxIiBoZWlnaHQ9IjMyLjg0MzgiIHJ4PSIxMi41IiByeT0iMTIuNSIgc3R5bGU9InN0cm9rZTojMTgxODE4O3N0cm9rZS13aWR0aDowLjU7IiB3aWR0aD0iMTc2IiB4PSI4OSIgeT0iNTAiLz48dGV4dCBmaWxsPSIjMDAwMDAwIiBmb250LWZhbWlseT0ic2Fucy1zZXJpZiIgZm9udC1zaXplPSIxMiIgbGVuZ3RoQWRqdXN0PSJzcGFjaW5nIiB0ZXh0TGVuZ3RoPSIxNTYiIHg9Ijk5IiB5PSI3MS4zNDM4Ij5QZWxhbmdhbiBkYXRhbmcga2UgYmVuZ2tlbDwvdGV4dD48cmVjdCBmaWxsPSIjRjFGMUYxIiBoZWlnaHQ9IjMyLjg0MzgiIHJ4PSIxMi41IiByeT0iMTIuNSIgc3R5bGU9InN0cm9rZTojMTgxODE4O3N0cm9rZS13aWR0aDowLjU7IiB3aWR0aD0iMjcyIiB4PSI0MSIgeT0iMTAyLjg0MzgiLz48dGV4dCBmaWxsPSIjMDAwMDAwIiBmb250LWZhbWlseT0ic2Fucy1zZXJpZiIgZm9udC1zaXplPSIxMiIgbGVuZ3RoQWRqdXN0PSJzcGFjaW5nIiB0ZXh0TGVuZ3RoPSIyNTIiIHg9IjUxIiB5PSIxMjQuMTg3NSI+QWRtaW4gbWVuZXJpbWEgZGFuIG1lbmNhdGF0IGRhdGEgcGVsYW5nZ2FuPC90ZXh0PjxyZWN0IGZpbGw9IiNGMUYxRjEiIGhlaWdodD0iMzIuODQzOCIgcng9IjEyLjUiIHJ5PSIxMi41IiBzdHlsZT0ic3Ryb2tlOiMxODE4MTg7c3Ryb2tlLXdpZHRoOjAuNTsiIHdpZHRoPSIxOTQiIHg9IjgwIiB5PSIxNTUuNjg3NSIvPjx0ZXh0IGZpbGw9IiMwMDAwMDAiIGZvbnQtZmFtaWx5PSJzYW5zLXNlcmlmIiBmb250LXNpemU9IjEyIiBsZW5ndGhBZGp1c3Q9InNwYWNpbmciIHRleHRMZW5ndGg9IjE3NCIgeD0iOTAiIHk9IjE3Ny4wMzEzIj5BZG1pbiBtZW5jYXRhdCBkYXRhIGtlbmRhcmFhbjwvdGV4dD48cmVjdCBmaWxsPSIjRjFGMUYxIiBoZWlnaHQ9IjMyLjg0MzgiIHJ4PSIxMi41IiByeT0iMTIuNSIgc3R5bGU9InN0cm9rZTojMTgxODE4O3N0cm9rZS13aWR0aDowLjU7IiB3aWR0aD0iMzA4IiB4PSIyMyIgeT0iMjA4LjUzMTMiLz48dGV4dCBmaWxsPSIjMDAwMDAwIiBmb250LWZhbWlseT0ic2Fucy1zZXJpZiIgZm9udC1zaXplPSIxMiIgbGVuZ3RoQWRqdXN0PSJzcGFjaW5nIiB0ZXh0TGVuZ3RoPSIyODgiIHg9IjMzIiB5PSIyMjkuODc1Ij5BZG1pbiBtZW5qYWR3YWxrYW4gc2VydmlzIGRhbiBtZW5ldGFwa2FuIHRla25pc2k8L3RleHQ+PHJlY3QgZmlsbD0iI0YxRjFGMSIgaGVpZ2h0PSIzMi44NDM4IiByeD0iMTIuNSIgcnk9IjEyLjUiIHN0eWxlPSJzdHJva2U6IzE4MTgxODtzdHJva2Utd2lkdGg6MC41OyIgd2lkdGg9IjMwMiIgeD0iMjYiIHk9IjI2MS4zNzUiLz48dGV4dCBmaWxsPSIjMDAwMDAwIiBmb250LWZhbWlseT0ic2Fucy1zZXJpZiIgZm9udC1zaXplPSIxMiIgbGVuZ3RoQWRqdXN0PSJzcGFjaW5nIiB0ZXh0TGVuZ3RoPSIyODIiIHg9IjM2IiB5PSIyODIuNzE4OCI+VGVrbmlzaSBtZW5lcmltYSBqYWR3YWwgZGFuIG1lbWVyaWtzYSBrZW5kYXJhYW48L3RleHQ+PHJlY3QgZmlsbD0iI0YxRjFGMSIgaGVpZ2h0PSIzMi44NDM4IiByeD0iMTIuNSIgcnk9IjEyLjUiIHN0eWxlPSJzdHJva2U6IzE4MTgxODtzdHJva2Utd2lkdGg6MC41OyIgd2lkdGg9IjI2NiIgeD0iNDQiIHk9IjM2Mi4yMTg4Ii8+PHRleHQgZmlsbD0iIzAwMDAwMCIgZm9udC1mYW1pbHk9InNhbnMtc2VyaWYiIGZvbnQtc2l6ZT0iMTIiIGxlbmd0aEFkanVzdD0ic3BhY2luZyIgdGV4dExlbmd0aD0iMjQ2IiB4PSI1NCIgeT0iMzgzLjU2MjUiPlRla25pc2kgbWVuZ2FqdWthbiBwZXJtaW50YWFuIHN1a3UgY2FkYW5nPC90ZXh0PjxyZWN0IGZpbGw9IiNGMUYxRjEiIGhlaWdodD0iMzIuODQzOCIgcng9IjEyLjUiIHJ5PSIxMi41IiBzdHlsZT0ic3Ryb2tlOiMxODE4MTg7c3Ryb2tlLXdpZHRoOjAuNTsiIHdpZHRoPSIzMzIiIHg9IjExIiB5PSI0MzAuMDYyNSIvPjx0ZXh0IGZpbGw9IiMwMDAwMDAiIGZvbnQtZmFtaWx5PSJzYW5zLXNlcmlmIiBmb250LXNpemU9IjEyIiBsZW5ndGhBZGp1c3Q9InNwYWNpbmciIHRleHRMZW5ndGg9IjMxMiIgeD0iMjEiIHk9IjQ1MS40MDYzIj5BZG1pbiBtZW55ZXR1anVpIGRhbiBtZW5jYXRhdCBwZW5nZ3VuYWFuIHN1a3UgY2FkYW5nPC90ZXh0Pjxwb2x5Z29uIGZpbGw9IiNGMUYxRjEiIHBvaW50cz0iODYuMjUsMzE0LjIxODgsMjY3Ljc1LDMxNC4yMTg4LDI3OS43NSwzMjYuMjE4OCwyNjcuNzUsMzM4LjIxODgsODYuMjUsMzM4LjIxODgsNzQuMjUsMzI2LjIxODgsODYuMjUsMzE0LjIxODgiIHN0eWxlPSJzdHJva2U6IzE4MTgxODtzdHJva2Utd2lkdGg6MC41OyIvPjx0ZXh0IGZpbGw9IiMwMDAwMDAiIGZvbnQtZmFtaWx5PSJzYW5zLXNlcmlmIiBmb250LXNpemU9IjExIiBsZW5ndGhBZGp1c3Q9InNwYWNpbmciIHRleHRMZW5ndGg9IjExIiB4PSIxODEiIHk9IjM0OC42MTcyIj5ZYTwvdGV4dD48dGV4dCBmaWxsPSIjMDAwMDAwIiBmb250LWZhbWlseT0ic2Fucy1zZXJpZiIgZm9udC1zaXplPSIxMSIgbGVuZ3RoQWRqdXN0PSJzcGFjaW5nIiB0ZXh0TGVuZ3RoPSIxODEuNSIgeD0iODYuMjUiIHk9IjMzMC43MzA1Ij5LZW5kYXJhYW4gbWVtZXJsdWthbiBzdWt1IGNhZGFuZz88L3RleHQ+PHRleHQgZmlsbD0iIzAwMDAwMCIgZm9udC1mYW1pbHk9InNhbnMtc2VyaWYiIGZvbnQtc2l6ZT0iMTEiIGxlbmd0aEFkanVzdD0ic3BhY2luZyIgdGV4dExlbmd0aD0iMjcuNSIgeD0iMjc5Ljc1IiB5PSIzMjQuODQzOCI+VGlkYWs8L3RleHQ+PHBvbHlnb24gZmlsbD0iI0YxRjFGMSIgcG9pbnRzPSIxNzcsNDgyLjkwNjMsMTg5LDQ5NC45MDYzLDE3Nyw1MDYuOTA2MywxNjUsNDk0LjkwNjMsMTc3LDQ4Mi45MDYzIiBzdHlsZT0ic3Ryb2tlOiMxODE4MTg7c3Ryb2tlLXdpZHRoOjAuNTsiLz48cmVjdCBmaWxsPSIjRjFGMUYxIiBoZWlnaHQ9IjMyLjg0MzgiIHJ4PSIxMi41IiByeT0iMTIuNSIgc3R5bGU9InN0cm9rZTojMTgxODE4O3N0cm9rZS13aWR0aDowLjU7IiB3aWR0aD0iMjEyIiB4PSI3MSIgeT0iNTI2LjkwNjMiLz48dGV4dCBmaWxsPSIjMDAwMDAwIiBmb250LWZhbWlseT0ic2Fucy1zZXJpZiIgZm9udC1zaXplPSIxMiIgbGVuZ3RoQWRqdXN0PSJzcGFjaW5nIiB0ZXh0TGVuZ3RoPSIxOTIiIHg9IjgxIiB5PSI1NDguMjUiPlRla25pc2kgbWVuY2F0YXQgaGFzaWwgcGVyYmFpa2FuPC90ZXh0PjxyZWN0IGZpbGw9IiNGMUYxRjEiIGhlaWdodD0iMzIuODQzOCIgcng9IjEyLjUiIHJ5PSIxMi41IiBzdHlsZT0ic3Ryb2tlOiMxODE4MTg7c3Ryb2tlLXdpZHRoOjAuNTsiIHdpZHRoPSIyMDYiIHg9Ijc0IiB5PSI1NzkuNzUiLz48dGV4dCBmaWxsPSIjMDAwMDAwIiBmb250LWZhbWlseT0ic2Fucy1zZXJpZiIgZm9udC1zaXplPSIxMiIgbGVuZ3RoQWRqdXN0PSJzcGFjaW5nIiB0ZXh0TGVuZ3RoPSIxODYiIHg9Ijg0IiB5PSI2MDEuMDkzOCI+QWRtaW4gbWVuY2F0YXQgdHJhbnNha3NpIHNlcnZpczwvdGV4dD48cmVjdCBmaWxsPSIjRjFGMUYxIiBoZWlnaHQ9IjMyLjg0MzgiIHJ4PSIxMi41IiByeT0iMTIuNSIgc3R5bGU9InN0cm9rZTojMTgxODE4O3N0cm9rZS13aWR0aDowLjU7IiB3aWR0aD0iMTk0IiB4PSI4MCIgeT0iNjMyLjU5MzgiLz48dGV4dCBmaWxsPSIjMDAwMDAwIiBmb250LWZhbWlseT0ic2Fucy1zZXJpZiIgZm9udC1zaXplPSIxMiIgbGVuZ3RoQWRqdXN0PSJzcGFjaW5nIiB0ZXh0TGVuZ3RoPSIxNzQiIHg9IjkwIiB5PSI2NTMuOTM3NSI+QWRtaW4gbWVuY2V0YWsgbGFwb3JhbiBzZXJ2aXM8L3RleHQ+PGVsbGlwc2UgY3g9IjE3NyIgY3k9IjY5Ni40Mzc1IiBmaWxsPSJub25lIiByeD0iMTEiIHJ5PSIxMSIgc3R5bGU9InN0cm9rZTojMjIyMjIyO3N0cm9rZS13aWR0aDoxOyIvPjxlbGxpcHNlIGN4PSIxNzciIGN5PSI2OTYuNDM3NSIgZmlsbD0iIzIyMjIyMiIgcng9IjYiIHJ5PSI2IiBzdHlsZT0ic3Ryb2tlOiMyMjIyMjI7c3Ryb2tlLXdpZHRoOjE7Ii8+PGxpbmUgc3R5bGU9InN0cm9rZTojMTgxODE4O3N0cm9rZS13aWR0aDoxOyIgeDE9IjE3NyIgeDI9IjE3NyIgeTE9IjMwIiB5Mj0iNTAiLz48cG9seWdvbiBmaWxsPSIjMTgxODE4IiBwb2ludHM9IjE3Myw0MCwxNzcsNTAsMTgxLDQwLDE3Nyw0NCIgc3R5bGU9InN0cm9rZTojMTgxODE4O3N0cm9rZS13aWR0aDoxOyIvPjxsaW5lIHN0eWxlPSJzdHJva2U6IzE4MTgxODtzdHJva2Utd2lkdGg6MTsiIHgxPSIxNzciIHgyPSIxNzciIHkxPSI4Mi44NDM4IiB5Mj0iMTAyLjg0MzgiLz48cG9seWdvbiBmaWxsPSIjMTgxODE4IiBwb2ludHM9IjE3Myw5Mi44NDM4LDE3NywxMDIuODQzOCwxODEsOTIuODQzOCwxNzcsOTYuODQzOCIgc3R5bGU9InN0cm9rZTojMTgxODE4O3N0cm9rZS13aWR0aDoxOyIvPjxsaW5lIHN0eWxlPSJzdHJva2U6IzE4MTgxODtzdHJva2Utd2lkdGg6MTsiIHgxPSIxNzciIHgyPSIxNzciIHkxPSIxMzUuNjg3NSIgeTI9IjE1NS42ODc1Ii8+PHBvbHlnb24gZmlsbD0iIzE4MTgxOCIgcG9pbnRzPSIxNzMsMTQ1LjY4NzUsMTc3LDE1NS42ODc1LDE4MSwxNDUuNjg3NSwxNzcsMTQ5LjY4NzUiIHN0eWxlPSJzdHJva2U6IzE4MTgxODtzdHJva2Utd2lkdGg6MTsiLz48bGluZSBzdHlsZT0ic3Ryb2tlOiMxODE4MTg7c3Ryb2tlLXdpZHRoOjE7IiB4MT0iMTc3IiB4Mj0iMTc3IiB5MT0iMTg4LjUzMTMiIHkyPSIyMDguNTMxMyIvPjxwb2x5Z29uIGZpbGw9IiMxODE4MTgiIHBvaW50cz0iMTczLDE5OC41MzEzLDE3NywyMDguNTMxMywxODEsMTk4LjUzMTMsMTc3LDIwMi41MzEzIiBzdHlsZT0ic3Ryb2tlOiMxODE4MTg7c3Ryb2tlLXdpZHRoOjE7Ii8+PGxpbmUgc3R5bGU9InN0cm9rZTojMTgxODE4O3N0cm9rZS13aWR0aDoxOyIgeDE9IjE3NyIgeDI9IjE3NyIgeTE9IjI0MS4zNzUiIHkyPSIyNjEuMzc1Ii8+PHBvbHlnb24gZmlsbD0iIzE4MTgxOCIgcG9pbnRzPSIxNzMsMjUxLjM3NSwxNzcsMjYxLjM3NSwxODEsMjUxLjM3NSwxNzcsMjU1LjM3NSIgc3R5bGU9InN0cm9rZTojMTgxODE4O3N0cm9rZS13aWR0aDoxOyIvPjxsaW5lIHN0eWxlPSJzdHJva2U6IzE4MTgxODtzdHJva2Utd2lkdGg6MTsiIHgxPSIxNzciIHgyPSIxNzciIHkxPSIzOTUuMDYyNSIgeTI9IjQzMC4wNjI1Ii8+PHBvbHlnb24gZmlsbD0iIzE4MTgxOCIgcG9pbnRzPSIxNzMsNDIwLjA2MjUsMTc3LDQzMC4wNjI1LDE4MSw0MjAuMDYyNSwxNzcsNDI0LjA2MjUiIHN0eWxlPSJzdHJva2U6IzE4MTgxODtzdHJva2Utd2lkdGg6MTsiLz48bGluZSBzdHlsZT0ic3Ryb2tlOiMxODE4MTg7c3Ryb2tlLXdpZHRoOjE7IiB4MT0iMTc3IiB4Mj0iMTc3IiB5MT0iMzM4LjIxODgiIHkyPSIzNjIuMjE4OCIvPjxwb2x5Z29uIGZpbGw9IiMxODE4MTgiIHBvaW50cz0iMTczLDM1Mi4yMTg4LDE3NywzNjIuMjE4OCwxODEsMzUyLjIxODgsMTc3LDM1Ni4yMTg4IiBzdHlsZT0ic3Ryb2tlOiMxODE4MTg7c3Ryb2tlLXdpZHRoOjE7Ii8+PGxpbmUgc3R5bGU9InN0cm9rZTojMTgxODE4O3N0cm9rZS13aWR0aDoxOyIgeDE9IjI3OS43NSIgeDI9IjM1MyIgeTE9IjMyNi4yMTg4IiB5Mj0iMzI2LjIxODgiLz48cG9seWdvbiBmaWxsPSIjMTgxODE4IiBwb2ludHM9IjM0OSw0MDIuNTYyNSwzNTMsNDEyLjU2MjUsMzU3LDQwMi41NjI1LDM1Myw0MDYuNTYyNSIgc3R5bGU9InN0cm9rZTojMTgxODE4O3N0cm9rZS13aWR0aDoxOyIvPjxsaW5lIHN0eWxlPSJzdHJva2U6IzE4MTgxODtzdHJva2Utd2lkdGg6MTsiIHgxPSIzNTMiIHgyPSIzNTMiIHkxPSIzMjYuMjE4OCIgeTI9IjQ5NC45MDYzIi8+PGxpbmUgc3R5bGU9InN0cm9rZTojMTgxODE4O3N0cm9rZS13aWR0aDoxOyIgeDE9IjM1MyIgeDI9IjE4OSIgeTE9IjQ5NC45MDYzIiB5Mj0iNDk0LjkwNjMiLz48cG9seWdvbiBmaWxsPSIjMTgxODE4IiBwb2ludHM9IjE5OSw0OTAuOTA2MywxODksNDk0LjkwNjMsMTk5LDQ5OC45MDYzLDE5NSw0OTQuOTA2MyIgc3R5bGU9InN0cm9rZTojMTgxODE4O3N0cm9rZS13aWR0aDoxOyIvPjxsaW5lIHN0eWxlPSJzdHJva2U6IzE4MTgxODtzdHJva2Utd2lkdGg6MTsiIHgxPSIxNzciIHgyPSIxNzciIHkxPSI0NjIuOTA2MyIgeTI9IjQ4Mi45MDYzIi8+PHBvbHlnb24gZmlsbD0iIzE4MTgxOCIgcG9pbnRzPSIxNzMsNDcyLjkwNjMsMTc3LDQ4Mi45MDYzLDE4MSw0NzIuOTA2MywxNzcsNDc2LjkwNjMiIHN0eWxlPSJzdHJva2U6IzE4MTgxODtzdHJva2Utd2lkdGg6MTsiLz48bGluZSBzdHlsZT0ic3Ryb2tlOiMxODE4MTg7c3Ryb2tlLXdpZHRoOjE7IiB4MT0iMTc3IiB4Mj0iMTc3IiB5MT0iMjk0LjIxODgiIHkyPSIzMTQuMjE4OCIvPjxwb2x5Z29uIGZpbGw9IiMxODE4MTgiIHBvaW50cz0iMTczLDMwNC4yMTg4LDE3NywzMTQuMjE4OCwxODEsMzA0LjIxODgsMTc3LDMwOC4yMTg4IiBzdHlsZT0ic3Ryb2tlOiMxODE4MTg7c3Ryb2tlLXdpZHRoOjE7Ii8+PGxpbmUgc3R5bGU9InN0cm9rZTojMTgxODE4O3N0cm9rZS13aWR0aDoxOyIgeDE9IjE3NyIgeDI9IjE3NyIgeTE9IjUwNi45MDYzIiB5Mj0iNTI2LjkwNjMiLz48cG9seWdvbiBmaWxsPSIjMTgxODE4IiBwb2ludHM9IjE3Myw1MTYuOTA2MywxNzcsNTI2LjkwNjMsMTgxLDUxNi45MDYzLDE3Nyw1MjAuOTA2MyIgc3R5bGU9InN0cm9rZTojMTgxODE4O3N0cm9rZS13aWR0aDoxOyIvPjxsaW5lIHN0eWxlPSJzdHJva2U6IzE4MTgxODtzdHJva2Utd2lkdGg6MTsiIHgxPSIxNzciIHgyPSIxNzciIHkxPSI1NTkuNzUiIHkyPSI1NzkuNzUiLz48cG9seWdvbiBmaWxsPSIjMTgxODE4IiBwb2ludHM9IjE3Myw1NjkuNzUsMTc3LDU3OS43NSwxODEsNTY5Ljc1LDE3Nyw1NzMuNzUiIHN0eWxlPSJzdHJva2U6IzE4MTgxODtzdHJva2Utd2lkdGg6MTsiLz48bGluZSBzdHlsZT0ic3Ryb2tlOiMxODE4MTg7c3Ryb2tlLXdpZHRoOjE7IiB4MT0iMTc3IiB4Mj0iMTc3IiB5MT0iNjEyLjU5MzgiIHkyPSI2MzIuNTkzOCIvPjxwb2x5Z29uIGZpbGw9IiMxODE4MTgiIHBvaW50cz0iMTczLDYyMi41OTM4LDE3Nyw2MzIuNTkzOCwxODEsNjIyLjU5MzgsMTc3LDYyNi41OTM4IiBzdHlsZT0ic3Ryb2tlOiMxODE4MTg7c3Ryb2tlLXdpZHRoOjE7Ii8+PGxpbmUgc3R5bGU9InN0cm9rZTojMTgxODE4O3N0cm9rZS13aWR0aDoxOyIgeDE9IjE3NyIgeDI9IjE3NyIgeTE9IjY2NS40Mzc1IiB5Mj0iNjg1LjQzNzUiLz48cG9seWdvbiBmaWxsPSIjMTgxODE4IiBwb2ludHM9IjE3Myw2NzUuNDM3NSwxNzcsNjg1LjQzNzUsMTgxLDY3NS40Mzc1LDE3Nyw2NzkuNDM3NSIgc3R5bGU9InN0cm9rZTojMTgxODE4O3N0cm9rZS13aWR0aDoxOyIvPjwhLS1TUkM9W1BQMnhMaUNtMzhQdEZ1TjZ2MU1RV1NGQ21qMjVLTXRLTDk3Wi1qWG9FUm16WWFEQjM5aWtfd1ZCZG5NSkVkVHU5dXpYbVcwWmdXS1cxMlNBYXYwVnRFNXJOM1owR2U0SUJzWUljZm5EZ0xLRmlUQTZ4eU14bGIwT0NNN1JkdDd5SDJ5c0I1RXdTdHhDOVNNdUxmS2FTRVIxaFpqa3VVeTk2X2ozQjVRSnQ2bm5WODdreFA1bDZiX2doWTg1cGNaYXpEQTNOWWIwenU2ejB6WGxjTjJrd2FaOWhiTGltTTVMRl9fdThZcnB1VFFNUTNFYzRsdzF2M0QxVC1HSGZOVHM3cl9RenBSd1lmZHprbG80QkZNVmx4UGdtZjFIM0RoQ1F1bXQxbUt5bmJqd2Naa3VoQlZ1M0cwMF0tLT48L2c+PC9zdmc+;" parent="1" vertex="1">
            <mxGeometry x="1470" y="1060" width="379" height="718" as="geometry" />
          </mxCell>
        </UserObject>
        <UserObject label="" plantUmlData="{&#xa;  &quot;data&quot;: &quot;@startuml\nstart\n\n:Admin menerima pelanggan;\n:Admin mencatat data kendaraan;\n:Admin menjadwalkan servis;\n:Admin menetapkan teknisi;\n\n:Teknisi menerima jadwal;\n:Teknisi memeriksa kendaraan;\n\nif (Apakah butuh suku cadang?) then (Ya)\n  :Teknisi meminta suku cadang;\n  :Admin menyetujui permintaan;\n  :Admin mencatat penggunaan suku cadang;\nelse (Tidak)\nendif\n\n:Teknisi mencatat hasil perbaikan;\n:Admin mencatat transaksi servis;\n:Admin mencetak laporan servis;\n\nstop\n@enduml\n&quot;,&#xa;  &quot;format&quot;: &quot;svg&quot;&#xa;}" id="hAPKSh9ywb4FfvCKl24X-5">
          <mxCell style="shape=image;noLabel=1;verticalAlign=top;aspect=fixed;imageAspect=0;image=data:image/svg+xml,PHN2ZyB4bWxucz0iaHR0cDovL3d3dy53My5vcmcvMjAwMC9zdmciIHhtbG5zOnhsaW5rPSJodHRwOi8vd3d3LnczLm9yZy8xOTk5L3hsaW5rIiBjb250ZW50U3R5bGVUeXBlPSJ0ZXh0L2NzcyIgZGF0YS1kaWFncmFtLXR5cGU9IkFDVElWSVRZIiBoZWlnaHQ9IjgwOXB4IiBwcmVzZXJ2ZUFzcGVjdFJhdGlvPSJub25lIiBzdHlsZT0id2lkdGg6Mjg5cHg7aGVpZ2h0OjgwOXB4O2JhY2tncm91bmQ6I0ZGRkZGRjsiIHZlcnNpb249IjEuMSIgdmlld0JveD0iMCAwIDI4OSA4MDkiIHdpZHRoPSIyODlweCIgem9vbUFuZFBhbj0ibWFnbmlmeSI+PGRlZnMvPjxnPjxlbGxpcHNlIGN4PSIxMzIiIGN5PSIyMCIgZmlsbD0iIzIyMjIyMiIgcng9IjEwIiByeT0iMTAiIHN0eWxlPSJzdHJva2U6IzIyMjIyMjtzdHJva2Utd2lkdGg6MTsiLz48cmVjdCBmaWxsPSIjRjFGMUYxIiBoZWlnaHQ9IjMyLjg0MzgiIHJ4PSIxMi41IiByeT0iMTIuNSIgc3R5bGU9InN0cm9rZTojMTgxODE4O3N0cm9rZS13aWR0aDowLjU7IiB3aWR0aD0iMTY0IiB4PSI1MCIgeT0iNTAiLz48dGV4dCBmaWxsPSIjMDAwMDAwIiBmb250LWZhbWlseT0ic2Fucy1zZXJpZiIgZm9udC1zaXplPSIxMiIgbGVuZ3RoQWRqdXN0PSJzcGFjaW5nIiB0ZXh0TGVuZ3RoPSIxNDQiIHg9IjYwIiB5PSI3MS4zNDM4Ij5BZG1pbiBtZW5lcmltYSBwZWxhbmdnYW48L3RleHQ+PHJlY3QgZmlsbD0iI0YxRjFGMSIgaGVpZ2h0PSIzMi44NDM4IiByeD0iMTIuNSIgcnk9IjEyLjUiIHN0eWxlPSJzdHJva2U6IzE4MTgxODtzdHJva2Utd2lkdGg6MC41OyIgd2lkdGg9IjE5NCIgeD0iMzUiIHk9IjEwMi44NDM4Ii8+PHRleHQgZmlsbD0iIzAwMDAwMCIgZm9udC1mYW1pbHk9InNhbnMtc2VyaWYiIGZvbnQtc2l6ZT0iMTIiIGxlbmd0aEFkanVzdD0ic3BhY2luZyIgdGV4dExlbmd0aD0iMTc0IiB4PSI0NSIgeT0iMTI0LjE4NzUiPkFkbWluIG1lbmNhdGF0IGRhdGEga2VuZGFyYWFuPC90ZXh0PjxyZWN0IGZpbGw9IiNGMUYxRjEiIGhlaWdodD0iMzIuODQzOCIgcng9IjEyLjUiIHJ5PSIxMi41IiBzdHlsZT0ic3Ryb2tlOiMxODE4MTg7c3Ryb2tlLXdpZHRoOjAuNTsiIHdpZHRoPSIxNzAiIHg9IjQ3IiB5PSIxNTUuNjg3NSIvPjx0ZXh0IGZpbGw9IiMwMDAwMDAiIGZvbnQtZmFtaWx5PSJzYW5zLXNlcmlmIiBmb250LXNpemU9IjEyIiBsZW5ndGhBZGp1c3Q9InNwYWNpbmciIHRleHRMZW5ndGg9IjE1MCIgeD0iNTciIHk9IjE3Ny4wMzEzIj5BZG1pbiBtZW5qYWR3YWxrYW4gc2VydmlzPC90ZXh0PjxyZWN0IGZpbGw9IiNGMUYxRjEiIGhlaWdodD0iMzIuODQzOCIgcng9IjEyLjUiIHJ5PSIxMi41IiBzdHlsZT0ic3Ryb2tlOiMxODE4MTg7c3Ryb2tlLXdpZHRoOjAuNTsiIHdpZHRoPSIxNjQiIHg9IjUwIiB5PSIyMDguNTMxMyIvPjx0ZXh0IGZpbGw9IiMwMDAwMDAiIGZvbnQtZmFtaWx5PSJzYW5zLXNlcmlmIiBmb250LXNpemU9IjEyIiBsZW5ndGhBZGp1c3Q9InNwYWNpbmciIHRleHRMZW5ndGg9IjE0NCIgeD0iNjAiIHk9IjIyOS44NzUiPkFkbWluIG1lbmV0YXBrYW4gdGVrbmlzaTwvdGV4dD48cmVjdCBmaWxsPSIjRjFGMUYxIiBoZWlnaHQ9IjMyLjg0MzgiIHJ4PSIxMi41IiByeT0iMTIuNSIgc3R5bGU9InN0cm9rZTojMTgxODE4O3N0cm9rZS13aWR0aDowLjU7IiB3aWR0aD0iMTU4IiB4PSI1MyIgeT0iMjYxLjM3NSIvPjx0ZXh0IGZpbGw9IiMwMDAwMDAiIGZvbnQtZmFtaWx5PSJzYW5zLXNlcmlmIiBmb250LXNpemU9IjEyIiBsZW5ndGhBZGp1c3Q9InNwYWNpbmciIHRleHRMZW5ndGg9IjEzOCIgeD0iNjMiIHk9IjI4Mi43MTg4Ij5UZWtuaXNpIG1lbmVyaW1hIGphZHdhbDwvdGV4dD48cmVjdCBmaWxsPSIjRjFGMUYxIiBoZWlnaHQ9IjMyLjg0MzgiIHJ4PSIxMi41IiByeT0iMTIuNSIgc3R5bGU9InN0cm9rZTojMTgxODE4O3N0cm9rZS13aWR0aDowLjU7IiB3aWR0aD0iMTgyIiB4PSI0MSIgeT0iMzE0LjIxODgiLz48dGV4dCBmaWxsPSIjMDAwMDAwIiBmb250LWZhbWlseT0ic2Fucy1zZXJpZiIgZm9udC1zaXplPSIxMiIgbGVuZ3RoQWRqdXN0PSJzcGFjaW5nIiB0ZXh0TGVuZ3RoPSIxNjIiIHg9IjUxIiB5PSIzMzUuNTYyNSI+VGVrbmlzaSBtZW1lcmlrc2Ega2VuZGFyYWFuPC90ZXh0PjxyZWN0IGZpbGw9IiNGMUYxRjEiIGhlaWdodD0iMzIuODQzOCIgcng9IjEyLjUiIHJ5PSIxMi41IiBzdHlsZT0ic3Ryb2tlOiMxODE4MTg7c3Ryb2tlLXdpZHRoOjAuNTsiIHdpZHRoPSIxODIiIHg9IjQxIiB5PSI0MTUuMDYyNSIvPjx0ZXh0IGZpbGw9IiMwMDAwMDAiIGZvbnQtZmFtaWx5PSJzYW5zLXNlcmlmIiBmb250LXNpemU9IjEyIiBsZW5ndGhBZGp1c3Q9InNwYWNpbmciIHRleHRMZW5ndGg9IjE2MiIgeD0iNTEiIHk9IjQzNi40MDYzIj5UZWtuaXNpIG1lbWludGEgc3VrdSBjYWRhbmc8L3RleHQ+PHJlY3QgZmlsbD0iI0YxRjFGMSIgaGVpZ2h0PSIzMi44NDM4IiByeD0iMTIuNSIgcnk9IjEyLjUiIHN0eWxlPSJzdHJva2U6IzE4MTgxODtzdHJva2Utd2lkdGg6MC41OyIgd2lkdGg9IjE4MiIgeD0iNDEiIHk9IjQ2Ny45MDYzIi8+PHRleHQgZmlsbD0iIzAwMDAwMCIgZm9udC1mYW1pbHk9InNhbnMtc2VyaWYiIGZvbnQtc2l6ZT0iMTIiIGxlbmd0aEFkanVzdD0ic3BhY2luZyIgdGV4dExlbmd0aD0iMTYyIiB4PSI1MSIgeT0iNDg5LjI1Ij5BZG1pbiBtZW55ZXR1anVpIHBlcm1pbnRhYW48L3RleHQ+PHJlY3QgZmlsbD0iI0YxRjFGMSIgaGVpZ2h0PSIzMi44NDM4IiByeD0iMTIuNSIgcnk9IjEyLjUiIHN0eWxlPSJzdHJva2U6IzE4MTgxODtzdHJva2Utd2lkdGg6MC41OyIgd2lkdGg9IjI0MiIgeD0iMTEiIHk9IjUyMC43NSIvPjx0ZXh0IGZpbGw9IiMwMDAwMDAiIGZvbnQtZmFtaWx5PSJzYW5zLXNlcmlmIiBmb250LXNpemU9IjEyIiBsZW5ndGhBZGp1c3Q9InNwYWNpbmciIHRleHRMZW5ndGg9IjIyMiIgeD0iMjEiIHk9IjU0Mi4wOTM4Ij5BZG1pbiBtZW5jYXRhdCBwZW5nZ3VuYWFuIHN1a3UgY2FkYW5nPC90ZXh0Pjxwb2x5Z29uIGZpbGw9IiNGMUYxRjEiIHBvaW50cz0iNjMuMjUsMzY3LjA2MjUsMjAwLjc1LDM2Ny4wNjI1LDIxMi43NSwzNzkuMDYyNSwyMDAuNzUsMzkxLjA2MjUsNjMuMjUsMzkxLjA2MjUsNTEuMjUsMzc5LjA2MjUsNjMuMjUsMzY3LjA2MjUiIHN0eWxlPSJzdHJva2U6IzE4MTgxODtzdHJva2Utd2lkdGg6MC41OyIvPjx0ZXh0IGZpbGw9IiMwMDAwMDAiIGZvbnQtZmFtaWx5PSJzYW5zLXNlcmlmIiBmb250LXNpemU9IjExIiBsZW5ndGhBZGp1c3Q9InNwYWNpbmciIHRleHRMZW5ndGg9IjExIiB4PSIxMzYiIHk9IjQwMS40NjA5Ij5ZYTwvdGV4dD48dGV4dCBmaWxsPSIjMDAwMDAwIiBmb250LWZhbWlseT0ic2Fucy1zZXJpZiIgZm9udC1zaXplPSIxMSIgbGVuZ3RoQWRqdXN0PSJzcGFjaW5nIiB0ZXh0TGVuZ3RoPSIxMzcuNSIgeD0iNjMuMjUiIHk9IjM4My41NzQyIj5BcGFrYWggYnV0dWggc3VrdSBjYWRhbmc/PC90ZXh0Pjx0ZXh0IGZpbGw9IiMwMDAwMDAiIGZvbnQtZmFtaWx5PSJzYW5zLXNlcmlmIiBmb250LXNpemU9IjExIiBsZW5ndGhBZGp1c3Q9InNwYWNpbmciIHRleHRMZW5ndGg9IjI3LjUiIHg9IjIxMi43NSIgeT0iMzc3LjY4NzUiPlRpZGFrPC90ZXh0Pjxwb2x5Z29uIGZpbGw9IiNGMUYxRjEiIHBvaW50cz0iMTMyLDU3My41OTM4LDE0NCw1ODUuNTkzOCwxMzIsNTk3LjU5MzgsMTIwLDU4NS41OTM4LDEzMiw1NzMuNTkzOCIgc3R5bGU9InN0cm9rZTojMTgxODE4O3N0cm9rZS13aWR0aDowLjU7Ii8+PHJlY3QgZmlsbD0iI0YxRjFGMSIgaGVpZ2h0PSIzMi44NDM4IiByeD0iMTIuNSIgcnk9IjEyLjUiIHN0eWxlPSJzdHJva2U6IzE4MTgxODtzdHJva2Utd2lkdGg6MC41OyIgd2lkdGg9IjIxMiIgeD0iMjYiIHk9IjYxNy41OTM4Ii8+PHRleHQgZmlsbD0iIzAwMDAwMCIgZm9udC1mYW1pbHk9InNhbnMtc2VyaWYiIGZvbnQtc2l6ZT0iMTIiIGxlbmd0aEFkanVzdD0ic3BhY2luZyIgdGV4dExlbmd0aD0iMTkyIiB4PSIzNiIgeT0iNjM4LjkzNzUiPlRla25pc2kgbWVuY2F0YXQgaGFzaWwgcGVyYmFpa2FuPC90ZXh0PjxyZWN0IGZpbGw9IiNGMUYxRjEiIGhlaWdodD0iMzIuODQzOCIgcng9IjEyLjUiIHJ5PSIxMi41IiBzdHlsZT0ic3Ryb2tlOiMxODE4MTg7c3Ryb2tlLXdpZHRoOjAuNTsiIHdpZHRoPSIyMDYiIHg9IjI5IiB5PSI2NzAuNDM3NSIvPjx0ZXh0IGZpbGw9IiMwMDAwMDAiIGZvbnQtZmFtaWx5PSJzYW5zLXNlcmlmIiBmb250LXNpemU9IjEyIiBsZW5ndGhBZGp1c3Q9InNwYWNpbmciIHRleHRMZW5ndGg9IjE4NiIgeD0iMzkiIHk9IjY5MS43ODEzIj5BZG1pbiBtZW5jYXRhdCB0cmFuc2Frc2kgc2VydmlzPC90ZXh0PjxyZWN0IGZpbGw9IiNGMUYxRjEiIGhlaWdodD0iMzIuODQzOCIgcng9IjEyLjUiIHJ5PSIxMi41IiBzdHlsZT0ic3Ryb2tlOiMxODE4MTg7c3Ryb2tlLXdpZHRoOjAuNTsiIHdpZHRoPSIxOTQiIHg9IjM1IiB5PSI3MjMuMjgxMyIvPjx0ZXh0IGZpbGw9IiMwMDAwMDAiIGZvbnQtZmFtaWx5PSJzYW5zLXNlcmlmIiBmb250LXNpemU9IjEyIiBsZW5ndGhBZGp1c3Q9InNwYWNpbmciIHRleHRMZW5ndGg9IjE3NCIgeD0iNDUiIHk9Ijc0NC42MjUiPkFkbWluIG1lbmNldGFrIGxhcG9yYW4gc2VydmlzPC90ZXh0PjxlbGxpcHNlIGN4PSIxMzIiIGN5PSI3ODcuMTI1IiBmaWxsPSJub25lIiByeD0iMTEiIHJ5PSIxMSIgc3R5bGU9InN0cm9rZTojMjIyMjIyO3N0cm9rZS13aWR0aDoxOyIvPjxlbGxpcHNlIGN4PSIxMzIiIGN5PSI3ODcuMTI1IiBmaWxsPSIjMjIyMjIyIiByeD0iNiIgcnk9IjYiIHN0eWxlPSJzdHJva2U6IzIyMjIyMjtzdHJva2Utd2lkdGg6MTsiLz48bGluZSBzdHlsZT0ic3Ryb2tlOiMxODE4MTg7c3Ryb2tlLXdpZHRoOjE7IiB4MT0iMTMyIiB4Mj0iMTMyIiB5MT0iMzAiIHkyPSI1MCIvPjxwb2x5Z29uIGZpbGw9IiMxODE4MTgiIHBvaW50cz0iMTI4LDQwLDEzMiw1MCwxMzYsNDAsMTMyLDQ0IiBzdHlsZT0ic3Ryb2tlOiMxODE4MTg7c3Ryb2tlLXdpZHRoOjE7Ii8+PGxpbmUgc3R5bGU9InN0cm9rZTojMTgxODE4O3N0cm9rZS13aWR0aDoxOyIgeDE9IjEzMiIgeDI9IjEzMiIgeTE9IjgyLjg0MzgiIHkyPSIxMDIuODQzOCIvPjxwb2x5Z29uIGZpbGw9IiMxODE4MTgiIHBvaW50cz0iMTI4LDkyLjg0MzgsMTMyLDEwMi44NDM4LDEzNiw5Mi44NDM4LDEzMiw5Ni44NDM4IiBzdHlsZT0ic3Ryb2tlOiMxODE4MTg7c3Ryb2tlLXdpZHRoOjE7Ii8+PGxpbmUgc3R5bGU9InN0cm9rZTojMTgxODE4O3N0cm9rZS13aWR0aDoxOyIgeDE9IjEzMiIgeDI9IjEzMiIgeTE9IjEzNS42ODc1IiB5Mj0iMTU1LjY4NzUiLz48cG9seWdvbiBmaWxsPSIjMTgxODE4IiBwb2ludHM9IjEyOCwxNDUuNjg3NSwxMzIsMTU1LjY4NzUsMTM2LDE0NS42ODc1LDEzMiwxNDkuNjg3NSIgc3R5bGU9InN0cm9rZTojMTgxODE4O3N0cm9rZS13aWR0aDoxOyIvPjxsaW5lIHN0eWxlPSJzdHJva2U6IzE4MTgxODtzdHJva2Utd2lkdGg6MTsiIHgxPSIxMzIiIHgyPSIxMzIiIHkxPSIxODguNTMxMyIgeTI9IjIwOC41MzEzIi8+PHBvbHlnb24gZmlsbD0iIzE4MTgxOCIgcG9pbnRzPSIxMjgsMTk4LjUzMTMsMTMyLDIwOC41MzEzLDEzNiwxOTguNTMxMywxMzIsMjAyLjUzMTMiIHN0eWxlPSJzdHJva2U6IzE4MTgxODtzdHJva2Utd2lkdGg6MTsiLz48bGluZSBzdHlsZT0ic3Ryb2tlOiMxODE4MTg7c3Ryb2tlLXdpZHRoOjE7IiB4MT0iMTMyIiB4Mj0iMTMyIiB5MT0iMjQxLjM3NSIgeTI9IjI2MS4zNzUiLz48cG9seWdvbiBmaWxsPSIjMTgxODE4IiBwb2ludHM9IjEyOCwyNTEuMzc1LDEzMiwyNjEuMzc1LDEzNiwyNTEuMzc1LDEzMiwyNTUuMzc1IiBzdHlsZT0ic3Ryb2tlOiMxODE4MTg7c3Ryb2tlLXdpZHRoOjE7Ii8+PGxpbmUgc3R5bGU9InN0cm9rZTojMTgxODE4O3N0cm9rZS13aWR0aDoxOyIgeDE9IjEzMiIgeDI9IjEzMiIgeTE9IjI5NC4yMTg4IiB5Mj0iMzE0LjIxODgiLz48cG9seWdvbiBmaWxsPSIjMTgxODE4IiBwb2ludHM9IjEyOCwzMDQuMjE4OCwxMzIsMzE0LjIxODgsMTM2LDMwNC4yMTg4LDEzMiwzMDguMjE4OCIgc3R5bGU9InN0cm9rZTojMTgxODE4O3N0cm9rZS13aWR0aDoxOyIvPjxsaW5lIHN0eWxlPSJzdHJva2U6IzE4MTgxODtzdHJva2Utd2lkdGg6MTsiIHgxPSIxMzIiIHgyPSIxMzIiIHkxPSI0NDcuOTA2MyIgeTI9IjQ2Ny45MDYzIi8+PHBvbHlnb24gZmlsbD0iIzE4MTgxOCIgcG9pbnRzPSIxMjgsNDU3LjkwNjMsMTMyLDQ2Ny45MDYzLDEzNiw0NTcuOTA2MywxMzIsNDYxLjkwNjMiIHN0eWxlPSJzdHJva2U6IzE4MTgxODtzdHJva2Utd2lkdGg6MTsiLz48bGluZSBzdHlsZT0ic3Ryb2tlOiMxODE4MTg7c3Ryb2tlLXdpZHRoOjE7IiB4MT0iMTMyIiB4Mj0iMTMyIiB5MT0iNTAwLjc1IiB5Mj0iNTIwLjc1Ii8+PHBvbHlnb24gZmlsbD0iIzE4MTgxOCIgcG9pbnRzPSIxMjgsNTEwLjc1LDEzMiw1MjAuNzUsMTM2LDUxMC43NSwxMzIsNTE0Ljc1IiBzdHlsZT0ic3Ryb2tlOiMxODE4MTg7c3Ryb2tlLXdpZHRoOjE7Ii8+PGxpbmUgc3R5bGU9InN0cm9rZTojMTgxODE4O3N0cm9rZS13aWR0aDoxOyIgeDE9IjEzMiIgeDI9IjEzMiIgeTE9IjM5MS4wNjI1IiB5Mj0iNDE1LjA2MjUiLz48cG9seWdvbiBmaWxsPSIjMTgxODE4IiBwb2ludHM9IjEyOCw0MDUuMDYyNSwxMzIsNDE1LjA2MjUsMTM2LDQwNS4wNjI1LDEzMiw0MDkuMDYyNSIgc3R5bGU9InN0cm9rZTojMTgxODE4O3N0cm9rZS13aWR0aDoxOyIvPjxsaW5lIHN0eWxlPSJzdHJva2U6IzE4MTgxODtzdHJva2Utd2lkdGg6MTsiIHgxPSIyMTIuNzUiIHgyPSIyNjMiIHkxPSIzNzkuMDYyNSIgeTI9IjM3OS4wNjI1Ii8+PHBvbHlnb24gZmlsbD0iIzE4MTgxOCIgcG9pbnRzPSIyNTksNDc0LjMyODEsMjYzLDQ4NC4zMjgxLDI2Nyw0NzQuMzI4MSwyNjMsNDc4LjMyODEiIHN0eWxlPSJzdHJva2U6IzE4MTgxODtzdHJva2Utd2lkdGg6MTsiLz48bGluZSBzdHlsZT0ic3Ryb2tlOiMxODE4MTg7c3Ryb2tlLXdpZHRoOjE7IiB4MT0iMjYzIiB4Mj0iMjYzIiB5MT0iMzc5LjA2MjUiIHkyPSI1ODUuNTkzOCIvPjxsaW5lIHN0eWxlPSJzdHJva2U6IzE4MTgxODtzdHJva2Utd2lkdGg6MTsiIHgxPSIyNjMiIHgyPSIxNDQiIHkxPSI1ODUuNTkzOCIgeTI9IjU4NS41OTM4Ii8+PHBvbHlnb24gZmlsbD0iIzE4MTgxOCIgcG9pbnRzPSIxNTQsNTgxLjU5MzgsMTQ0LDU4NS41OTM4LDE1NCw1ODkuNTkzOCwxNTAsNTg1LjU5MzgiIHN0eWxlPSJzdHJva2U6IzE4MTgxODtzdHJva2Utd2lkdGg6MTsiLz48bGluZSBzdHlsZT0ic3Ryb2tlOiMxODE4MTg7c3Ryb2tlLXdpZHRoOjE7IiB4MT0iMTMyIiB4Mj0iMTMyIiB5MT0iNTUzLjU5MzgiIHkyPSI1NzMuNTkzOCIvPjxwb2x5Z29uIGZpbGw9IiMxODE4MTgiIHBvaW50cz0iMTI4LDU2My41OTM4LDEzMiw1NzMuNTkzOCwxMzYsNTYzLjU5MzgsMTMyLDU2Ny41OTM4IiBzdHlsZT0ic3Ryb2tlOiMxODE4MTg7c3Ryb2tlLXdpZHRoOjE7Ii8+PGxpbmUgc3R5bGU9InN0cm9rZTojMTgxODE4O3N0cm9rZS13aWR0aDoxOyIgeDE9IjEzMiIgeDI9IjEzMiIgeTE9IjM0Ny4wNjI1IiB5Mj0iMzY3LjA2MjUiLz48cG9seWdvbiBmaWxsPSIjMTgxODE4IiBwb2ludHM9IjEyOCwzNTcuMDYyNSwxMzIsMzY3LjA2MjUsMTM2LDM1Ny4wNjI1LDEzMiwzNjEuMDYyNSIgc3R5bGU9InN0cm9rZTojMTgxODE4O3N0cm9rZS13aWR0aDoxOyIvPjxsaW5lIHN0eWxlPSJzdHJva2U6IzE4MTgxODtzdHJva2Utd2lkdGg6MTsiIHgxPSIxMzIiIHgyPSIxMzIiIHkxPSI1OTcuNTkzOCIgeTI9IjYxNy41OTM4Ii8+PHBvbHlnb24gZmlsbD0iIzE4MTgxOCIgcG9pbnRzPSIxMjgsNjA3LjU5MzgsMTMyLDYxNy41OTM4LDEzNiw2MDcuNTkzOCwxMzIsNjExLjU5MzgiIHN0eWxlPSJzdHJva2U6IzE4MTgxODtzdHJva2Utd2lkdGg6MTsiLz48bGluZSBzdHlsZT0ic3Ryb2tlOiMxODE4MTg7c3Ryb2tlLXdpZHRoOjE7IiB4MT0iMTMyIiB4Mj0iMTMyIiB5MT0iNjUwLjQzNzUiIHkyPSI2NzAuNDM3NSIvPjxwb2x5Z29uIGZpbGw9IiMxODE4MTgiIHBvaW50cz0iMTI4LDY2MC40Mzc1LDEzMiw2NzAuNDM3NSwxMzYsNjYwLjQzNzUsMTMyLDY2NC40Mzc1IiBzdHlsZT0ic3Ryb2tlOiMxODE4MTg7c3Ryb2tlLXdpZHRoOjE7Ii8+PGxpbmUgc3R5bGU9InN0cm9rZTojMTgxODE4O3N0cm9rZS13aWR0aDoxOyIgeDE9IjEzMiIgeDI9IjEzMiIgeTE9IjcwMy4yODEzIiB5Mj0iNzIzLjI4MTMiLz48cG9seWdvbiBmaWxsPSIjMTgxODE4IiBwb2ludHM9IjEyOCw3MTMuMjgxMywxMzIsNzIzLjI4MTMsMTM2LDcxMy4yODEzLDEzMiw3MTcuMjgxMyIgc3R5bGU9InN0cm9rZTojMTgxODE4O3N0cm9rZS13aWR0aDoxOyIvPjxsaW5lIHN0eWxlPSJzdHJva2U6IzE4MTgxODtzdHJva2Utd2lkdGg6MTsiIHgxPSIxMzIiIHgyPSIxMzIiIHkxPSI3NTYuMTI1IiB5Mj0iNzc2LjEyNSIvPjxwb2x5Z29uIGZpbGw9IiMxODE4MTgiIHBvaW50cz0iMTI4LDc2Ni4xMjUsMTMyLDc3Ni4xMjUsMTM2LDc2Ni4xMjUsMTMyLDc3MC4xMjUiIHN0eWxlPSJzdHJva2U6IzE4MTgxODtzdHJva2Utd2lkdGg6MTsiLz48IS0tU1JDPVtSUDB6UmlDbTM4THRkT0FaVk9Md0E3QTdCMXJWQjJQY1AzRTJIQk5leElsTEcyQVpOR0cxN3lkdGFtdDlkN2l4LUtzS0RiUEVpZTRZaHozUjNKZnJROFIxb0RVTjBnajdtZjdWdVItbTFZWGJKZi1JVXlRNnM4WG5LQ2FvTFNkcF9kczl4bGpKSnhQQUdaeGVFUmRJUzhlOE1FWEloMm9LSW9XcW1yVjd4b0ZQbWFoMzFxUDdyNXlJaFJ3eHFRZG5meHpsamQ4bEtlRWR0eWNjckZDelUtSFFJYjZxWUZxYk5aRkpTMVFGQ0JmZ0xReDdWRmxzV1luaEt4WDBtZF9MTWU5Y1hCaHBqeTJ2RFhYZUhOb2FoYzJOeEg1XzAwMDBdLS0+PC9nPjwvc3ZnPg==;" parent="1" vertex="1">
            <mxGeometry x="1990" y="980" width="289" height="809" as="geometry" />
          </mxCell>
        </UserObject>
        <UserObject label="" plantUmlData="{&#xa;  &quot;data&quot;: &quot;@startuml\n|Pelanggan|\nstart\n:Pelanggan datang ke bengkel;\n|Admin|\n:Admin menerima pelanggan;\n:Admin mencatat data kendaraan;\n:Admin menjadwalkan servis;\n:Admin menetapkan teknisi;\n|Teknisi|\n:Teknisi menerima jadwal servis;\n:Teknisi memeriksa kendaraan;\nif (Butuh suku cadang?) then (Ya)\n  :Teknisi mengajukan permintaan;\n  |Admin|\n  :Admin menyetujui permintaan suku cadang;\n  :Admin mencatat pengeluaran stok;\n  |Teknisi|\nendif\n:Teknisi mencatat hasil perbaikan;\n|Admin|\n:Admin mencatat transaksi servis;\n:Admin mencetak laporan servis;\n|Manajer|\n:Manajer melihat laporan servis;\nstop\n@enduml\n&quot;,&#xa;  &quot;format&quot;: &quot;svg&quot;&#xa;}" id="hAPKSh9ywb4FfvCKl24X-6">
          <mxCell style="shape=image;noLabel=1;verticalAlign=top;aspect=fixed;imageAspect=0;image=data:image/svg+xml,PHN2ZyB4bWxucz0iaHR0cDovL3d3dy53My5vcmcvMjAwMC9zdmciIHhtbG5zOnhsaW5rPSJodHRwOi8vd3d3LnczLm9yZy8xOTk5L3hsaW5rIiBjb250ZW50U3R5bGVUeXBlPSJ0ZXh0L2NzcyIgZGF0YS1kaWFncmFtLXR5cGU9IkFDVElWSVRZIiBoZWlnaHQ9Ijk0MXB4IiBwcmVzZXJ2ZUFzcGVjdFJhdGlvPSJub25lIiBzdHlsZT0id2lkdGg6OTUzcHg7aGVpZ2h0Ojk0MXB4O2JhY2tncm91bmQ6I0ZGRkZGRjsiIHZlcnNpb249IjEuMSIgdmlld0JveD0iMCAwIDk1MyA5NDEiIHdpZHRoPSI5NTNweCIgem9vbUFuZFBhbj0ibWFnbmlmeSI+PGRlZnMvPjxnPjxyZWN0IGZpbGw9Im5vbmUiIGhlaWdodD0iMTkuMjY1NiIgc3R5bGU9InN0cm9rZTpub25lO3N0cm9rZS13aWR0aDoxOyIgd2lkdGg9IjkyMC41IiB4PSIxNSIgeT0iMTEiLz48ZWxsaXBzZSBjeD0iMTEyIiBjeT0iNDUuMjY1NiIgZmlsbD0iIzIyMjIyMiIgcng9IjEwIiByeT0iMTAiIHN0eWxlPSJzdHJva2U6IzIyMjIyMjtzdHJva2Utd2lkdGg6MTsiLz48cmVjdCBmaWxsPSIjRjFGMUYxIiBoZWlnaHQ9IjMyLjg0MzgiIHJ4PSIxMi41IiByeT0iMTIuNSIgc3R5bGU9InN0cm9rZTojMTgxODE4O3N0cm9rZS13aWR0aDowLjU7IiB3aWR0aD0iMTgyIiB4PSIyMSIgeT0iNzUuMjY1NiIvPjx0ZXh0IGZpbGw9IiMwMDAwMDAiIGZvbnQtZmFtaWx5PSJzYW5zLXNlcmlmIiBmb250LXNpemU9IjEyIiBsZW5ndGhBZGp1c3Q9InNwYWNpbmciIHRleHRMZW5ndGg9IjE2MiIgeD0iMzEiIHk9Ijk2LjYwOTQiPlBlbGFuZ2dhbiBkYXRhbmcga2UgYmVuZ2tlbDwvdGV4dD48bGluZSBzdHlsZT0ic3Ryb2tlOiMwMDAwMDA7c3Ryb2tlLXdpZHRoOjEuNTsiIHgxPSIxNSIgeDI9IjE1IiB5MT0iMTEiIHkyPSI5MjkuMDc4MSIvPjxyZWN0IGZpbGw9IiNGMUYxRjEiIGhlaWdodD0iMzIuODQzOCIgcng9IjEyLjUiIHJ5PSIxMi41IiBzdHlsZT0ic3Ryb2tlOiMxODE4MTg7c3Ryb2tlLXdpZHRoOjAuNTsiIHdpZHRoPSIxNjQiIHg9IjI1OCIgeT0iMTI4LjEwOTQiLz48dGV4dCBmaWxsPSIjMDAwMDAwIiBmb250LWZhbWlseT0ic2Fucy1zZXJpZiIgZm9udC1zaXplPSIxMiIgbGVuZ3RoQWRqdXN0PSJzcGFjaW5nIiB0ZXh0TGVuZ3RoPSIxNDQiIHg9IjI2OCIgeT0iMTQ5LjQ1MzEiPkFkbWluIG1lbmVyaW1hIHBlbGFuZ2dhbjwvdGV4dD48cmVjdCBmaWxsPSIjRjFGMUYxIiBoZWlnaHQ9IjMyLjg0MzgiIHJ4PSIxMi41IiByeT0iMTIuNSIgc3R5bGU9InN0cm9rZTojMTgxODE4O3N0cm9rZS13aWR0aDowLjU7IiB3aWR0aD0iMTk0IiB4PSIyNDMiIHk9IjE4MC45NTMxIi8+PHRleHQgZmlsbD0iIzAwMDAwMCIgZm9udC1mYW1pbHk9InNhbnMtc2VyaWYiIGZvbnQtc2l6ZT0iMTIiIGxlbmd0aEFkanVzdD0ic3BhY2luZyIgdGV4dExlbmd0aD0iMTc0IiB4PSIyNTMiIHk9IjIwMi4yOTY5Ij5BZG1pbiBtZW5jYXRhdCBkYXRhIGtlbmRhcmFhbjwvdGV4dD48cmVjdCBmaWxsPSIjRjFGMUYxIiBoZWlnaHQ9IjMyLjg0MzgiIHJ4PSIxMi41IiByeT0iMTIuNSIgc3R5bGU9InN0cm9rZTojMTgxODE4O3N0cm9rZS13aWR0aDowLjU7IiB3aWR0aD0iMTcwIiB4PSIyNTUiIHk9IjIzMy43OTY5Ii8+PHRleHQgZmlsbD0iIzAwMDAwMCIgZm9udC1mYW1pbHk9InNhbnMtc2VyaWYiIGZvbnQtc2l6ZT0iMTIiIGxlbmd0aEFkanVzdD0ic3BhY2luZyIgdGV4dExlbmd0aD0iMTUwIiB4PSIyNjUiIHk9IjI1NS4xNDA2Ij5BZG1pbiBtZW5qYWR3YWxrYW4gc2VydmlzPC90ZXh0PjxyZWN0IGZpbGw9IiNGMUYxRjEiIGhlaWdodD0iMzIuODQzOCIgcng9IjEyLjUiIHJ5PSIxMi41IiBzdHlsZT0ic3Ryb2tlOiMxODE4MTg7c3Ryb2tlLXdpZHRoOjAuNTsiIHdpZHRoPSIxNjQiIHg9IjI1OCIgeT0iMjg2LjY0MDYiLz48dGV4dCBmaWxsPSIjMDAwMDAwIiBmb250LWZhbWlseT0ic2Fucy1zZXJpZiIgZm9udC1zaXplPSIxMiIgbGVuZ3RoQWRqdXN0PSJzcGFjaW5nIiB0ZXh0TGVuZ3RoPSIxNDQiIHg9IjI2OCIgeT0iMzA3Ljk4NDQiPkFkbWluIG1lbmV0YXBrYW4gdGVrbmlzaTwvdGV4dD48cmVjdCBmaWxsPSIjRjFGMUYxIiBoZWlnaHQ9IjMyLjg0MzgiIHJ4PSIxMi41IiByeT0iMTIuNSIgc3R5bGU9InN0cm9rZTojMTgxODE4O3N0cm9rZS13aWR0aDowLjU7IiB3aWR0aD0iMjU0IiB4PSIyMTMiIHk9IjU0Ni4wMTU2Ii8+PHRleHQgZmlsbD0iIzAwMDAwMCIgZm9udC1mYW1pbHk9InNhbnMtc2VyaWYiIGZvbnQtc2l6ZT0iMTIiIGxlbmd0aEFkanVzdD0ic3BhY2luZyIgdGV4dExlbmd0aD0iMjM0IiB4PSIyMjMiIHk9IjU2Ny4zNTk0Ij5BZG1pbiBtZW55ZXR1anVpIHBlcm1pbnRhYW4gc3VrdSBjYWRhbmc8L3RleHQ+PHJlY3QgZmlsbD0iI0YxRjFGMSIgaGVpZ2h0PSIzMi44NDM4IiByeD0iMTIuNSIgcnk9IjEyLjUiIHN0eWxlPSJzdHJva2U6IzE4MTgxODtzdHJva2Utd2lkdGg6MC41OyIgd2lkdGg9IjIwNiIgeD0iMjM3IiB5PSI1OTguODU5NCIvPjx0ZXh0IGZpbGw9IiMwMDAwMDAiIGZvbnQtZmFtaWx5PSJzYW5zLXNlcmlmIiBmb250LXNpemU9IjEyIiBsZW5ndGhBZGp1c3Q9InNwYWNpbmciIHRleHRMZW5ndGg9IjE4NiIgeD0iMjQ3IiB5PSI2MjAuMjAzMSI+QWRtaW4gbWVuY2F0YXQgcGVuZ2VsdWFyYW4gc3RvazwvdGV4dD48cmVjdCBmaWxsPSIjRjFGMUYxIiBoZWlnaHQ9IjMyLjg0MzgiIHJ4PSIxMi41IiByeT0iMTIuNSIgc3R5bGU9InN0cm9rZTojMTgxODE4O3N0cm9rZS13aWR0aDowLjU7IiB3aWR0aD0iMjA2IiB4PSIyMzciIHk9Ijc0OC41NDY5Ii8+PHRleHQgZmlsbD0iIzAwMDAwMCIgZm9udC1mYW1pbHk9InNhbnMtc2VyaWYiIGZvbnQtc2l6ZT0iMTIiIGxlbmd0aEFkanVzdD0ic3BhY2luZyIgdGV4dExlbmd0aD0iMTg2IiB4PSIyNDciIHk9Ijc2OS44OTA2Ij5BZG1pbiBtZW5jYXRhdCB0cmFuc2Frc2kgc2VydmlzPC90ZXh0PjxyZWN0IGZpbGw9IiNGMUYxRjEiIGhlaWdodD0iMzIuODQzOCIgcng9IjEyLjUiIHJ5PSIxMi41IiBzdHlsZT0ic3Ryb2tlOiMxODE4MTg7c3Ryb2tlLXdpZHRoOjAuNTsiIHdpZHRoPSIxOTQiIHg9IjI0MyIgeT0iODAxLjM5MDYiLz48dGV4dCBmaWxsPSIjMDAwMDAwIiBmb250LWZhbWlseT0ic2Fucy1zZXJpZiIgZm9udC1zaXplPSIxMiIgbGVuZ3RoQWRqdXN0PSJzcGFjaW5nIiB0ZXh0TGVuZ3RoPSIxNzQiIHg9IjI1MyIgeT0iODIyLjczNDQiPkFkbWluIG1lbmNldGFrIGxhcG9yYW4gc2VydmlzPC90ZXh0PjxsaW5lIHN0eWxlPSJzdHJva2U6IzAwMDAwMDtzdHJva2Utd2lkdGg6MS41OyIgeDE9IjIwNyIgeDI9IjIwNyIgeTE9IjExIiB5Mj0iOTI5LjA3ODEiLz48cmVjdCBmaWxsPSIjRjFGMUYxIiBoZWlnaHQ9IjMyLjg0MzgiIHJ4PSIxMi41IiByeT0iMTIuNSIgc3R5bGU9InN0cm9rZTojMTgxODE4O3N0cm9rZS13aWR0aDowLjU7IiB3aWR0aD0iMjAwIiB4PSI0ODMiIHk9IjMzOS40ODQ0Ii8+PHRleHQgZmlsbD0iIzAwMDAwMCIgZm9udC1mYW1pbHk9InNhbnMtc2VyaWYiIGZvbnQtc2l6ZT0iMTIiIGxlbmd0aEFkanVzdD0ic3BhY2luZyIgdGV4dExlbmd0aD0iMTgwIiB4PSI0OTMiIHk9IjM2MC44MjgxIj5UZWtuaXNpIG1lbmVyaW1hIGphZHdhbCBzZXJ2aXM8L3RleHQ+PHJlY3QgZmlsbD0iI0YxRjFGMSIgaGVpZ2h0PSIzMi44NDM4IiByeD0iMTIuNSIgcnk9IjEyLjUiIHN0eWxlPSJzdHJva2U6IzE4MTgxODtzdHJva2Utd2lkdGg6MC41OyIgd2lkdGg9IjE4MiIgeD0iNDkyIiB5PSIzOTIuMzI4MSIvPjx0ZXh0IGZpbGw9IiMwMDAwMDAiIGZvbnQtZmFtaWx5PSJzYW5zLXNlcmlmIiBmb250LXNpemU9IjEyIiBsZW5ndGhBZGp1c3Q9InNwYWNpbmciIHRleHRMZW5ndGg9IjE2MiIgeD0iNTAyIiB5PSI0MTMuNjcxOSI+VGVrbmlzaSBtZW1lcmlrc2Ega2VuZGFyYWFuPC90ZXh0PjxyZWN0IGZpbGw9IiNGMUYxRjEiIGhlaWdodD0iMzIuODQzOCIgcng9IjEyLjUiIHJ5PSIxMi41IiBzdHlsZT0ic3Ryb2tlOiMxODE4MTg7c3Ryb2tlLXdpZHRoOjAuNTsiIHdpZHRoPSIxOTQiIHg9IjQ4NiIgeT0iNDkzLjE3MTkiLz48dGV4dCBmaWxsPSIjMDAwMDAwIiBmb250LWZhbWlseT0ic2Fucy1zZXJpZiIgZm9udC1zaXplPSIxMiIgbGVuZ3RoQWRqdXN0PSJzcGFjaW5nIiB0ZXh0TGVuZ3RoPSIxNzQiIHg9IjQ5NiIgeT0iNTE0LjUxNTYiPlRla25pc2kgbWVuZ2FqdWthbiBwZXJtaW50YWFuPC90ZXh0Pjxwb2x5Z29uIGZpbGw9IiNGMUYxRjEiIHBvaW50cz0iNTMzLjUsNDQ1LjE3MTksNjMyLjUsNDQ1LjE3MTksNjQ0LjUsNDU3LjE3MTksNjMyLjUsNDY5LjE3MTksNTMzLjUsNDY5LjE3MTksNTIxLjUsNDU3LjE3MTksNTMzLjUsNDQ1LjE3MTkiIHN0eWxlPSJzdHJva2U6IzE4MTgxODtzdHJva2Utd2lkdGg6MC41OyIvPjx0ZXh0IGZpbGw9IiMwMDAwMDAiIGZvbnQtZmFtaWx5PSJzYW5zLXNlcmlmIiBmb250LXNpemU9IjExIiBsZW5ndGhBZGp1c3Q9InNwYWNpbmciIHRleHRMZW5ndGg9IjExIiB4PSI1ODciIHk9IjQ3OS41NzAzIj5ZYTwvdGV4dD48dGV4dCBmaWxsPSIjMDAwMDAwIiBmb250LWZhbWlseT0ic2Fucy1zZXJpZiIgZm9udC1zaXplPSIxMSIgbGVuZ3RoQWRqdXN0PSJzcGFjaW5nIiB0ZXh0TGVuZ3RoPSI5OSIgeD0iNTMzLjUiIHk9IjQ2MS42ODM2Ij5CdXR1aCBzdWt1IGNhZGFuZz88L3RleHQ+PHBvbHlnb24gZmlsbD0iI0YxRjFGMSIgcG9pbnRzPSI1ODMsNjUxLjcwMzEsNTk1LDY2My43MDMxLDU4Myw2NzUuNzAzMSw1NzEsNjYzLjcwMzEsNTgzLDY1MS43MDMxIiBzdHlsZT0ic3Ryb2tlOiMxODE4MTg7c3Ryb2tlLXdpZHRoOjAuNTsiLz48cmVjdCBmaWxsPSIjRjFGMUYxIiBoZWlnaHQ9IjMyLjg0MzgiIHJ4PSIxMi41IiByeT0iMTIuNSIgc3R5bGU9InN0cm9rZTojMTgxODE4O3N0cm9rZS13aWR0aDowLjU7IiB3aWR0aD0iMjEyIiB4PSI0NzciIHk9IjY5NS43MDMxIi8+PHRleHQgZmlsbD0iIzAwMDAwMCIgZm9udC1mYW1pbHk9InNhbnMtc2VyaWYiIGZvbnQtc2l6ZT0iMTIiIGxlbmd0aEFkanVzdD0ic3BhY2luZyIgdGV4dExlbmd0aD0iMTkyIiB4PSI0ODciIHk9IjcxNy4wNDY5Ij5UZWtuaXNpIG1lbmNhdGF0IGhhc2lsIHBlcmJhaWthbjwvdGV4dD48bGluZSBzdHlsZT0ic3Ryb2tlOiMwMDAwMDA7c3Ryb2tlLXdpZHRoOjEuNTsiIHgxPSI0NzEiIHgyPSI0NzEiIHkxPSIxMSIgeTI9IjkyOS4wNzgxIi8+PHJlY3QgZmlsbD0iI0YxRjFGMSIgaGVpZ2h0PSIzMi44NDM4IiByeD0iMTIuNSIgcnk9IjEyLjUiIHN0eWxlPSJzdHJva2U6IzE4MTgxODtzdHJva2Utd2lkdGg6MC41OyIgd2lkdGg9IjIwMCIgeD0iNzI4IiB5PSI4NTQuMjM0NCIvPjx0ZXh0IGZpbGw9IiMwMDAwMDAiIGZvbnQtZmFtaWx5PSJzYW5zLXNlcmlmIiBmb250LXNpemU9IjEyIiBsZW5ndGhBZGp1c3Q9InNwYWNpbmciIHRleHRMZW5ndGg9IjE4MCIgeD0iNzM4IiB5PSI4NzUuNTc4MSI+TWFuYWplciBtZWxpaGF0IGxhcG9yYW4gc2VydmlzPC90ZXh0PjxlbGxpcHNlIGN4PSI4MjgiIGN5PSI5MTguMDc4MSIgZmlsbD0ibm9uZSIgcng9IjExIiByeT0iMTEiIHN0eWxlPSJzdHJva2U6IzIyMjIyMjtzdHJva2Utd2lkdGg6MTsiLz48ZWxsaXBzZSBjeD0iODI4IiBjeT0iOTE4LjA3ODEiIGZpbGw9IiMyMjIyMjIiIHJ4PSI2IiByeT0iNiIgc3R5bGU9InN0cm9rZTojMjIyMjIyO3N0cm9rZS13aWR0aDoxOyIvPjxsaW5lIHN0eWxlPSJzdHJva2U6IzAwMDAwMDtzdHJva2Utd2lkdGg6MS41OyIgeDE9IjcyMiIgeDI9IjcyMiIgeTE9IjExIiB5Mj0iOTI5LjA3ODEiLz48bGluZSBzdHlsZT0ic3Ryb2tlOiMwMDAwMDA7c3Ryb2tlLXdpZHRoOjEuNTsiIHgxPSI5MzIiIHgyPSI5MzIiIHkxPSIxMSIgeTI9IjkyOS4wNzgxIi8+PGxpbmUgc3R5bGU9InN0cm9rZTojMTgxODE4O3N0cm9rZS13aWR0aDoxOyIgeDE9IjExMiIgeDI9IjExMiIgeTE9IjU1LjI2NTYiIHkyPSI3NS4yNjU2Ii8+PHBvbHlnb24gZmlsbD0iIzE4MTgxOCIgcG9pbnRzPSIxMDgsNjUuMjY1NiwxMTIsNzUuMjY1NiwxMTYsNjUuMjY1NiwxMTIsNjkuMjY1NiIgc3R5bGU9InN0cm9rZTojMTgxODE4O3N0cm9rZS13aWR0aDoxOyIvPjxsaW5lIHN0eWxlPSJzdHJva2U6IzE4MTgxODtzdHJva2Utd2lkdGg6MTsiIHgxPSIzNDAiIHgyPSIzNDAiIHkxPSIxNjAuOTUzMSIgeTI9IjE4MC45NTMxIi8+PHBvbHlnb24gZmlsbD0iIzE4MTgxOCIgcG9pbnRzPSIzMzYsMTcwLjk1MzEsMzQwLDE4MC45NTMxLDM0NCwxNzAuOTUzMSwzNDAsMTc0Ljk1MzEiIHN0eWxlPSJzdHJva2U6IzE4MTgxODtzdHJva2Utd2lkdGg6MTsiLz48bGluZSBzdHlsZT0ic3Ryb2tlOiMxODE4MTg7c3Ryb2tlLXdpZHRoOjE7IiB4MT0iMzQwIiB4Mj0iMzQwIiB5MT0iMjEzLjc5NjkiIHkyPSIyMzMuNzk2OSIvPjxwb2x5Z29uIGZpbGw9IiMxODE4MTgiIHBvaW50cz0iMzM2LDIyMy43OTY5LDM0MCwyMzMuNzk2OSwzNDQsMjIzLjc5NjksMzQwLDIyNy43OTY5IiBzdHlsZT0ic3Ryb2tlOiMxODE4MTg7c3Ryb2tlLXdpZHRoOjE7Ii8+PGxpbmUgc3R5bGU9InN0cm9rZTojMTgxODE4O3N0cm9rZS13aWR0aDoxOyIgeDE9IjM0MCIgeDI9IjM0MCIgeTE9IjI2Ni42NDA2IiB5Mj0iMjg2LjY0MDYiLz48cG9seWdvbiBmaWxsPSIjMTgxODE4IiBwb2ludHM9IjMzNiwyNzYuNjQwNiwzNDAsMjg2LjY0MDYsMzQ0LDI3Ni42NDA2LDM0MCwyODAuNjQwNiIgc3R5bGU9InN0cm9rZTojMTgxODE4O3N0cm9rZS13aWR0aDoxOyIvPjxsaW5lIHN0eWxlPSJzdHJva2U6IzE4MTgxODtzdHJva2Utd2lkdGg6MTsiIHgxPSIzNDAiIHgyPSIzNDAiIHkxPSI1NzguODU5NCIgeTI9IjU5OC44NTk0Ii8+PHBvbHlnb24gZmlsbD0iIzE4MTgxOCIgcG9pbnRzPSIzMzYsNTg4Ljg1OTQsMzQwLDU5OC44NTk0LDM0NCw1ODguODU5NCwzNDAsNTkyLjg1OTQiIHN0eWxlPSJzdHJva2U6IzE4MTgxODtzdHJva2Utd2lkdGg6MTsiLz48bGluZSBzdHlsZT0ic3Ryb2tlOiMxODE4MTg7c3Ryb2tlLXdpZHRoOjE7IiB4MT0iMzQwIiB4Mj0iMzQwIiB5MT0iNzgxLjM5MDYiIHkyPSI4MDEuMzkwNiIvPjxwb2x5Z29uIGZpbGw9IiMxODE4MTgiIHBvaW50cz0iMzM2LDc5MS4zOTA2LDM0MCw4MDEuMzkwNiwzNDQsNzkxLjM5MDYsMzQwLDc5NS4zOTA2IiBzdHlsZT0ic3Ryb2tlOiMxODE4MTg7c3Ryb2tlLXdpZHRoOjE7Ii8+PGxpbmUgc3R5bGU9InN0cm9rZTojMTgxODE4O3N0cm9rZS13aWR0aDoxOyIgeDE9IjU4MyIgeDI9IjU4MyIgeTE9IjM3Mi4zMjgxIiB5Mj0iMzkyLjMyODEiLz48cG9seWdvbiBmaWxsPSIjMTgxODE4IiBwb2ludHM9IjU3OSwzODIuMzI4MSw1ODMsMzkyLjMyODEsNTg3LDM4Mi4zMjgxLDU4MywzODYuMzI4MSIgc3R5bGU9InN0cm9rZTojMTgxODE4O3N0cm9rZS13aWR0aDoxOyIvPjxsaW5lIHN0eWxlPSJzdHJva2U6IzE4MTgxODtzdHJva2Utd2lkdGg6MTsiIHgxPSI1ODMiIHgyPSI1ODMiIHkxPSI0NjkuMTcxOSIgeTI9IjQ5My4xNzE5Ii8+PHBvbHlnb24gZmlsbD0iIzE4MTgxOCIgcG9pbnRzPSI1NzksNDgzLjE3MTksNTgzLDQ5My4xNzE5LDU4Nyw0ODMuMTcxOSw1ODMsNDg3LjE3MTkiIHN0eWxlPSJzdHJva2U6IzE4MTgxODtzdHJva2Utd2lkdGg6MTsiLz48bGluZSBzdHlsZT0ic3Ryb2tlOiMxODE4MTg7c3Ryb2tlLXdpZHRoOjE7IiB4MT0iNjQ0LjUiIHgyPSI3MDMiIHkxPSI0NTcuMTcxOSIgeTI9IjQ1Ny4xNzE5Ii8+PHBvbHlnb24gZmlsbD0iIzE4MTgxOCIgcG9pbnRzPSI2OTksNTUyLjQzNzUsNzAzLDU2Mi40Mzc1LDcwNyw1NTIuNDM3NSw3MDMsNTU2LjQzNzUiIHN0eWxlPSJzdHJva2U6IzE4MTgxODtzdHJva2Utd2lkdGg6MTsiLz48bGluZSBzdHlsZT0ic3Ryb2tlOiMxODE4MTg7c3Ryb2tlLXdpZHRoOjE7IiB4MT0iNzAzIiB4Mj0iNzAzIiB5MT0iNDU3LjE3MTkiIHkyPSI2NjMuNzAzMSIvPjxsaW5lIHN0eWxlPSJzdHJva2U6IzE4MTgxODtzdHJva2Utd2lkdGg6MTsiIHgxPSI3MDMiIHgyPSI1OTUiIHkxPSI2NjMuNzAzMSIgeTI9IjY2My43MDMxIi8+PHBvbHlnb24gZmlsbD0iIzE4MTgxOCIgcG9pbnRzPSI2MDUsNjU5LjcwMzEsNTk1LDY2My43MDMxLDYwNSw2NjcuNzAzMSw2MDEsNjYzLjcwMzEiIHN0eWxlPSJzdHJva2U6IzE4MTgxODtzdHJva2Utd2lkdGg6MTsiLz48bGluZSBzdHlsZT0ic3Ryb2tlOiMxODE4MTg7c3Ryb2tlLXdpZHRoOjE7IiB4MT0iNTgzIiB4Mj0iNTgzIiB5MT0iNDI1LjE3MTkiIHkyPSI0NDUuMTcxOSIvPjxwb2x5Z29uIGZpbGw9IiMxODE4MTgiIHBvaW50cz0iNTc5LDQzNS4xNzE5LDU4Myw0NDUuMTcxOSw1ODcsNDM1LjE3MTksNTgzLDQzOS4xNzE5IiBzdHlsZT0ic3Ryb2tlOiMxODE4MTg7c3Ryb2tlLXdpZHRoOjE7Ii8+PGxpbmUgc3R5bGU9InN0cm9rZTojMTgxODE4O3N0cm9rZS13aWR0aDoxOyIgeDE9IjU4MyIgeDI9IjU4MyIgeTE9IjY3NS43MDMxIiB5Mj0iNjk1LjcwMzEiLz48cG9seWdvbiBmaWxsPSIjMTgxODE4IiBwb2ludHM9IjU3OSw2ODUuNzAzMSw1ODMsNjk1LjcwMzEsNTg3LDY4NS43MDMxLDU4Myw2ODkuNzAzMSIgc3R5bGU9InN0cm9rZTojMTgxODE4O3N0cm9rZS13aWR0aDoxOyIvPjxsaW5lIHN0eWxlPSJzdHJva2U6IzE4MTgxODtzdHJva2Utd2lkdGg6MTsiIHgxPSI4MjgiIHgyPSI4MjgiIHkxPSI4ODcuMDc4MSIgeTI9IjkwNy4wNzgxIi8+PHBvbHlnb24gZmlsbD0iIzE4MTgxOCIgcG9pbnRzPSI4MjQsODk3LjA3ODEsODI4LDkwNy4wNzgxLDgzMiw4OTcuMDc4MSw4MjgsOTAxLjA3ODEiIHN0eWxlPSJzdHJva2U6IzE4MTgxODtzdHJva2Utd2lkdGg6MTsiLz48bGluZSBzdHlsZT0ic3Ryb2tlOiMxODE4MTg7c3Ryb2tlLXdpZHRoOjE7IiB4MT0iMTEyIiB4Mj0iMTEyIiB5MT0iMTA4LjEwOTQiIHkyPSIxMTMuMTA5NCIvPjxsaW5lIHN0eWxlPSJzdHJva2U6IzE4MTgxODtzdHJva2Utd2lkdGg6MTsiIHgxPSIxMTIiIHgyPSIzNDAiIHkxPSIxMTMuMTA5NCIgeTI9IjExMy4xMDk0Ii8+PGxpbmUgc3R5bGU9InN0cm9rZTojMTgxODE4O3N0cm9rZS13aWR0aDoxOyIgeDE9IjM0MCIgeDI9IjM0MCIgeTE9IjExMy4xMDk0IiB5Mj0iMTI4LjEwOTQiLz48cG9seWdvbiBmaWxsPSIjMTgxODE4IiBwb2ludHM9IjMzNiwxMTguMTA5NCwzNDAsMTI4LjEwOTQsMzQ0LDExOC4xMDk0LDM0MCwxMjIuMTA5NCIgc3R5bGU9InN0cm9rZTojMTgxODE4O3N0cm9rZS13aWR0aDoxOyIvPjxsaW5lIHN0eWxlPSJzdHJva2U6IzE4MTgxODtzdHJva2Utd2lkdGg6MTsiIHgxPSIzNDAiIHgyPSIzNDAiIHkxPSIzMTkuNDg0NCIgeTI9IjMyNC40ODQ0Ii8+PGxpbmUgc3R5bGU9InN0cm9rZTojMTgxODE4O3N0cm9rZS13aWR0aDoxOyIgeDE9IjM0MCIgeDI9IjU4MyIgeTE9IjMyNC40ODQ0IiB5Mj0iMzI0LjQ4NDQiLz48bGluZSBzdHlsZT0ic3Ryb2tlOiMxODE4MTg7c3Ryb2tlLXdpZHRoOjE7IiB4MT0iNTgzIiB4Mj0iNTgzIiB5MT0iMzI0LjQ4NDQiIHkyPSIzMzkuNDg0NCIvPjxwb2x5Z29uIGZpbGw9IiMxODE4MTgiIHBvaW50cz0iNTc5LDMyOS40ODQ0LDU4MywzMzkuNDg0NCw1ODcsMzI5LjQ4NDQsNTgzLDMzMy40ODQ0IiBzdHlsZT0ic3Ryb2tlOiMxODE4MTg7c3Ryb2tlLXdpZHRoOjE7Ii8+PGxpbmUgc3R5bGU9InN0cm9rZTojMTgxODE4O3N0cm9rZS13aWR0aDoxOyIgeDE9IjU4MyIgeDI9IjU4MyIgeTE9IjUyNi4wMTU2IiB5Mj0iNTMxLjAxNTYiLz48bGluZSBzdHlsZT0ic3Ryb2tlOiMxODE4MTg7c3Ryb2tlLXdpZHRoOjE7IiB4MT0iNTgzIiB4Mj0iMzQwIiB5MT0iNTMxLjAxNTYiIHkyPSI1MzEuMDE1NiIvPjxsaW5lIHN0eWxlPSJzdHJva2U6IzE4MTgxODtzdHJva2Utd2lkdGg6MTsiIHgxPSIzNDAiIHgyPSIzNDAiIHkxPSI1MzEuMDE1NiIgeTI9IjU0Ni4wMTU2Ii8+PHBvbHlnb24gZmlsbD0iIzE4MTgxOCIgcG9pbnRzPSIzMzYsNTM2LjAxNTYsMzQwLDU0Ni4wMTU2LDM0NCw1MzYuMDE1NiwzNDAsNTQwLjAxNTYiIHN0eWxlPSJzdHJva2U6IzE4MTgxODtzdHJva2Utd2lkdGg6MTsiLz48bGluZSBzdHlsZT0ic3Ryb2tlOiMxODE4MTg7c3Ryb2tlLXdpZHRoOjE7IiB4MT0iMzQwIiB4Mj0iMzQwIiB5MT0iNjMxLjcwMzEiIHkyPSI2MzkuNzAzMSIvPjxsaW5lIHN0eWxlPSJzdHJva2U6IzE4MTgxODtzdHJva2Utd2lkdGg6MTsiIHgxPSIzNDAiIHgyPSI1ODMiIHkxPSI2MzkuNzAzMSIgeTI9IjYzOS43MDMxIi8+PGxpbmUgc3R5bGU9InN0cm9rZTojMTgxODE4O3N0cm9rZS13aWR0aDoxOyIgeDE9IjU4MyIgeDI9IjU4MyIgeTE9IjYzOS43MDMxIiB5Mj0iNjUxLjcwMzEiLz48cG9seWdvbiBmaWxsPSIjMTgxODE4IiBwb2ludHM9IjU3OSw2NDEuNzAzMSw1ODMsNjUxLjcwMzEsNTg3LDY0MS43MDMxLDU4Myw2NDUuNzAzMSIgc3R5bGU9InN0cm9rZTojMTgxODE4O3N0cm9rZS13aWR0aDoxOyIvPjxsaW5lIHN0eWxlPSJzdHJva2U6IzE4MTgxODtzdHJva2Utd2lkdGg6MTsiIHgxPSI1ODMiIHgyPSI1ODMiIHkxPSI3MjguNTQ2OSIgeTI9IjczMy41NDY5Ii8+PGxpbmUgc3R5bGU9InN0cm9rZTojMTgxODE4O3N0cm9rZS13aWR0aDoxOyIgeDE9IjU4MyIgeDI9IjM0MCIgeTE9IjczMy41NDY5IiB5Mj0iNzMzLjU0NjkiLz48bGluZSBzdHlsZT0ic3Ryb2tlOiMxODE4MTg7c3Ryb2tlLXdpZHRoOjE7IiB4MT0iMzQwIiB4Mj0iMzQwIiB5MT0iNzMzLjU0NjkiIHkyPSI3NDguNTQ2OSIvPjxwb2x5Z29uIGZpbGw9IiMxODE4MTgiIHBvaW50cz0iMzM2LDczOC41NDY5LDM0MCw3NDguNTQ2OSwzNDQsNzM4LjU0NjksMzQwLDc0Mi41NDY5IiBzdHlsZT0ic3Ryb2tlOiMxODE4MTg7c3Ryb2tlLXdpZHRoOjE7Ii8+PGxpbmUgc3R5bGU9InN0cm9rZTojMTgxODE4O3N0cm9rZS13aWR0aDoxOyIgeDE9IjM0MCIgeDI9IjM0MCIgeTE9IjgzNC4yMzQ0IiB5Mj0iODM5LjIzNDQiLz48bGluZSBzdHlsZT0ic3Ryb2tlOiMxODE4MTg7c3Ryb2tlLXdpZHRoOjE7IiB4MT0iMzQwIiB4Mj0iODI4IiB5MT0iODM5LjIzNDQiIHkyPSI4MzkuMjM0NCIvPjxsaW5lIHN0eWxlPSJzdHJva2U6IzE4MTgxODtzdHJva2Utd2lkdGg6MTsiIHgxPSI4MjgiIHgyPSI4MjgiIHkxPSI4MzkuMjM0NCIgeTI9Ijg1NC4yMzQ0Ii8+PHBvbHlnb24gZmlsbD0iIzE4MTgxOCIgcG9pbnRzPSI4MjQsODQ0LjIzNDQsODI4LDg1NC4yMzQ0LDgzMiw4NDQuMjM0NCw4MjgsODQ4LjIzNDQiIHN0eWxlPSJzdHJva2U6IzE4MTgxODtzdHJva2Utd2lkdGg6MTsiLz48dGV4dCBmaWxsPSIjMDAwMDAwIiBmb250LWZhbWlseT0ic2Fucy1zZXJpZiIgZm9udC1zaXplPSIxOCIgbGVuZ3RoQWRqdXN0PSJzcGFjaW5nIiB0ZXh0TGVuZ3RoPSI4MSIgeD0iNzAuNSIgeT0iMjguMDE1NiI+UGVsYW5nZ2FuPC90ZXh0Pjx0ZXh0IGZpbGw9IiMwMDAwMDAiIGZvbnQtZmFtaWx5PSJzYW5zLXNlcmlmIiBmb250LXNpemU9IjE4IiBsZW5ndGhBZGp1c3Q9InNwYWNpbmciIHRleHRMZW5ndGg9IjQ1IiB4PSIzMTYuNSIgeT0iMjguMDE1NiI+QWRtaW48L3RleHQ+PHRleHQgZmlsbD0iIzAwMDAwMCIgZm9udC1mYW1pbHk9InNhbnMtc2VyaWYiIGZvbnQtc2l6ZT0iMTgiIGxlbmd0aEFkanVzdD0ic3BhY2luZyIgdGV4dExlbmd0aD0iNjMiIHg9IjU2NSIgeT0iMjguMDE1NiI+VGVrbmlzaTwvdGV4dD48dGV4dCBmaWxsPSIjMDAwMDAwIiBmb250LWZhbWlseT0ic2Fucy1zZXJpZiIgZm9udC1zaXplPSIxOCIgbGVuZ3RoQWRqdXN0PSJzcGFjaW5nIiB0ZXh0TGVuZ3RoPSI2MyIgeD0iNzk1LjUiIHk9IjI4LjAxNTYiPk1hbmFqZXI8L3RleHQ+PCEtLVNSQz1bUFA2blJpQ20zNEh0Vm1ON3YxVUllTVp0MFhzd1Q2SGluZk9iQXU5NGpJWldaLV9QSmNvdmNLSThadFNkUWxtR254dmpzT3pMS2V2UWRUT1JRYlhIYUhNd1k2LWprN0NybFpRMzBOa1FKbmg0SXBHM0t0V0NkT2pNWk5jVExRM1g2dXd5eF9WU19CMnBTNGVJbHFxZ1V3OFNmZXdBeklPUEU3eWs1UnBsclVRLTI2cWc2cDAwaTZkZFJ3dnFVQ2tRRXFoUFBnZ3ZHVkFOOHNhZGRXdlZWQW84SWVrTS1wbWIySEFISk1TRGVpU1ltQXdQVnFMcGRxcjFiWFJkN1JsaTlhMVVONE9vZTdncGlfQndLNkdzcnpycGJ3Y0VhdDZKb3VNRGRVOHlfeWUyQWRHSk15bS1CeFo2WFlxdjNoVE9WQzN1cGZ2eFlUMndMczJUd0kzczdxTlV5MFMwXS0tPjwvZz48L3N2Zz4=;" parent="1" vertex="1">
            <mxGeometry x="2550" y="930" width="953" height="941" as="geometry" />
          </mxCell>
        </UserObject>
        <UserObject label="" plantUmlData="{&#xa;  &quot;data&quot;: &quot;@startuml\n\n&#39; Kelas Pelanggan\nclass Pelanggan {\n  - id_pelanggan : int\n  - nama : string\n  - alamat : string\n  - no_telepon : string\n}\n\n&#39; Kelas Kendaraan\nclass Kendaraan {\n  - id_kendaraan : int\n  - id_pelanggan : int\n  - plat_nomor : string\n  - merk : string\n  - tipe : string\n  - tahun : int\n}\n\n&#39; Kelas JadwalServis\nclass JadwalServis {\n  - id_jadwal : int\n  - id_kendaraan : int\n  - tanggal_servis : date\n  - status : string\n  - id_teknisi : int\n}\n\n&#39; Kelas Teknisi\nclass Teknisi {\n  - id_teknisi : int\n  - nama : string\n  - spesialisasi : string\n}\n\n&#39; Kelas HasilPerbaikan\nclass HasilPerbaikan {\n  - id_hasil : int\n  - id_jadwal : int\n  - deskripsi : string\n  - waktu_mulai : datetime\n  - waktu_selesai : datetime\n}\n\n&#39; Kelas SukuCadang\nclass SukuCadang {\n  - id_sukucadang : int\n  - nama : string\n  - stok : int\n  - harga : double\n}\n\n&#39; Kelas PenggunaanSukuCadang\nclass PenggunaanSukuCadang {\n  - id_penggunaan : int\n  - id_hasil : int\n  - id_sukucadang : int\n  - jumlah : int\n}\n\n&#39; RELASI ANTAR KELAS\nPelanggan \&quot;1\&quot; -- \&quot;0..*\&quot; Kendaraan : memiliki &gt;\nKendaraan \&quot;1\&quot; -- \&quot;0..*\&quot; JadwalServis : dijadwalkan &gt;\nJadwalServis \&quot;1\&quot; -- \&quot;1\&quot; Teknisi : ditangani &gt;\nJadwalServis \&quot;1\&quot; -- \&quot;1\&quot; HasilPerbaikan : menghasilkan &gt;\nHasilPerbaikan \&quot;1\&quot; -- \&quot;0..*\&quot; PenggunaanSukuCadang : menggunakan &gt;\nPenggunaanSukuCadang \&quot;*\&quot; -- \&quot;1\&quot; SukuCadang : memakai &gt;\n\n@enduml\n&quot;,&#xa;  &quot;format&quot;: &quot;svg&quot;&#xa;}" id="hAPKSh9ywb4FfvCKl24X-7">
          <mxCell style="shape=image;noLabel=1;verticalAlign=top;aspect=fixed;imageAspect=0;image=data:image/svg+xml,PHN2ZyB4bWxucz0iaHR0cDovL3d3dy53My5vcmcvMjAwMC9zdmciIHhtbG5zOnhsaW5rPSJodHRwOi8vd3d3LnczLm9yZy8xOTk5L3hsaW5rIiBjb250ZW50U3R5bGVUeXBlPSJ0ZXh0L2NzcyIgZGF0YS1kaWFncmFtLXR5cGU9IkNMQVNTIiBoZWlnaHQ9IjEwOTZweCIgcHJlc2VydmVBc3BlY3RSYXRpbz0ibm9uZSIgc3R5bGU9IndpZHRoOjQxNnB4O2hlaWdodDoxMDk2cHg7YmFja2dyb3VuZDojRkZGRkZGOyIgdmVyc2lvbj0iMS4xIiB2aWV3Qm94PSIwIDAgNDE2IDEwOTYiIHdpZHRoPSI0MTZweCIgem9vbUFuZFBhbj0ibWFnbmlmeSI+PGRlZnMvPjxnPjwhLS1jbGFzcyBQZWxhbmdnYW4tLT48ZyBjbGFzcz0iZW50aXR5IiBkYXRhLWVudGl0eT0iUGVsYW5nZ2FuIiBkYXRhLXNvdXJjZS1saW5lPSIyIiBkYXRhLXVpZD0iZW50MDAwMiIgaWQ9ImVudGl0eV9QZWxhbmdnYW4iPjxyZWN0IGZpbGw9IiNGMUYxRjEiIGhlaWdodD0iMTA3LjkzNzUiIHJ4PSIyLjUiIHJ5PSIyLjUiIHN0eWxlPSJzdHJva2U6IzE4MTgxODtzdHJva2Utd2lkdGg6MC41OyIgd2lkdGg9IjE1OSIgeD0iNzAiIHk9IjciLz48ZWxsaXBzZSBjeD0iMTEzLjgiIGN5PSIyMyIgZmlsbD0iI0FERDFCMiIgcng9IjExIiByeT0iMTEiIHN0eWxlPSJzdHJva2U6IzE4MTgxODtzdHJva2Utd2lkdGg6MTsiLz48cGF0aCBkPSJNMTExLjQyNSwyNy4yNSBMMTExLjQyNSwyOSBMMTE2LjM2MjUsMjkgTDExNi4zNjI1LDI3LjI1IEwxMTEuNDI1LDI3LjI1IFogTTExMi4xMTI1LDI3LjkzNzUgUTExMi4xMTI1LDI3LjkzNzUgMTEyLjExMjUsMTguNzUgTDExMC4zNjI1LDE4Ljc1IFExMTAuMzYyNSwxOC43NSAxMTAuMzYyNSwyNy45Mzc1IEwxMTIuMTEyNSwyNy45Mzc1IFogTTExNS42NzUsMjcuOTM3NSBMMTE3LjQyNSwyNy45Mzc1IFExMTcuNDI1LDI3LjkzNzUgMTE3LjQyNSwyNS4xMjUgTDExNS42NzUsMjUuMTI1IFExMTUuNjc1LDI1LjEyNSAxMTUuNjc1LDI3LjkzNzUgWiBNMTE1LjY3NSwxOC43NSBRMTE1LjY3NSwxOC43NSAxMTUuNjc1LDIxLjU2MjUgTDExNy40MjUsMjEuNTYyNSBRMTE3LjQyNSwyMS41NjI1IDExNy40MjUsMTguNzUgTDExNS42NzUsMTguNzUgWiBNMTExLjQyNSwxOS40Mzc1IEwxMTYuMzYyNSwxOS40Mzc1IEwxMTYuMzYyNSwxNy42ODc1IEwxMTEuNDI1LDE3LjY4NzUgTDExMS40MjUsMTkuNDM3NSBaICIgZmlsbD0iIzAwMDAwMCIvPjx0ZXh0IGZpbGw9IiMwMDAwMDAiIGZvbnQtZmFtaWx5PSJzYW5zLXNlcmlmIiBmb250LXNpemU9IjE0IiBsZW5ndGhBZGp1c3Q9InNwYWNpbmciIHRleHRMZW5ndGg9IjYzIiB4PSIxMzQuMiIgeT0iMjguNzQyMiI+UGVsYW5nZ2FuPC90ZXh0PjxsaW5lIHN0eWxlPSJzdHJva2U6IzE4MTgxODtzdHJva2Utd2lkdGg6MC41OyIgeDE9IjcxIiB4Mj0iMjI4IiB5MT0iMzkiIHkyPSIzOSIvPjxyZWN0IGZpbGw9Im5vbmUiIGhlaWdodD0iNiIgc3R5bGU9InN0cm9rZTojQzgyOTMwO3N0cm9rZS13aWR0aDoxOyIgd2lkdGg9IjYiIHg9Ijc4IiB5PSI0OC45OTIyIi8+PHRleHQgZmlsbD0iIzAwMDAwMCIgZm9udC1mYW1pbHk9InNhbnMtc2VyaWYiIGZvbnQtc2l6ZT0iMTQiIGxlbmd0aEFkanVzdD0ic3BhY2luZyIgdGV4dExlbmd0aD0iMTI2IiB4PSI5MCIgeT0iNTYuMjM0NCI+aWRfcGVsYW5nZ2FuIDogaW50PC90ZXh0PjxyZWN0IGZpbGw9Im5vbmUiIGhlaWdodD0iNiIgc3R5bGU9InN0cm9rZTojQzgyOTMwO3N0cm9rZS13aWR0aDoxOyIgd2lkdGg9IjYiIHg9Ijc4IiB5PSI2My45NzY2Ii8+PHRleHQgZmlsbD0iIzAwMDAwMCIgZm9udC1mYW1pbHk9InNhbnMtc2VyaWYiIGZvbnQtc2l6ZT0iMTQiIGxlbmd0aEFkanVzdD0ic3BhY2luZyIgdGV4dExlbmd0aD0iOTEiIHg9IjkwIiB5PSI3MS4yMTg4Ij5uYW1hIDogc3RyaW5nPC90ZXh0PjxyZWN0IGZpbGw9Im5vbmUiIGhlaWdodD0iNiIgc3R5bGU9InN0cm9rZTojQzgyOTMwO3N0cm9rZS13aWR0aDoxOyIgd2lkdGg9IjYiIHg9Ijc4IiB5PSI3OC45NjA5Ii8+PHRleHQgZmlsbD0iIzAwMDAwMCIgZm9udC1mYW1pbHk9InNhbnMtc2VyaWYiIGZvbnQtc2l6ZT0iMTQiIGxlbmd0aEFkanVzdD0ic3BhY2luZyIgdGV4dExlbmd0aD0iMTA1IiB4PSI5MCIgeT0iODYuMjAzMSI+YWxhbWF0IDogc3RyaW5nPC90ZXh0PjxyZWN0IGZpbGw9Im5vbmUiIGhlaWdodD0iNiIgc3R5bGU9InN0cm9rZTojQzgyOTMwO3N0cm9rZS13aWR0aDoxOyIgd2lkdGg9IjYiIHg9Ijc4IiB5PSI5My45NDUzIi8+PHRleHQgZmlsbD0iIzAwMDAwMCIgZm9udC1mYW1pbHk9InNhbnMtc2VyaWYiIGZvbnQtc2l6ZT0iMTQiIGxlbmd0aEFkanVzdD0ic3BhY2luZyIgdGV4dExlbmd0aD0iMTMzIiB4PSI5MCIgeT0iMTAxLjE4NzUiPm5vX3RlbGVwb24gOiBzdHJpbmc8L3RleHQ+PGxpbmUgc3R5bGU9InN0cm9rZTojMTgxODE4O3N0cm9rZS13aWR0aDowLjU7IiB4MT0iNzEiIHgyPSIyMjgiIHkxPSIxMDYuOTM3NSIgeTI9IjEwNi45Mzc1Ii8+PC9nPjwhLS1jbGFzcyBLZW5kYXJhYW4tLT48ZyBjbGFzcz0iZW50aXR5IiBkYXRhLWVudGl0eT0iS2VuZGFyYWFuIiBkYXRhLXNvdXJjZS1saW5lPSIxMCIgZGF0YS11aWQ9ImVudDAwMDMiIGlkPSJlbnRpdHlfS2VuZGFyYWFuIj48cmVjdCBmaWxsPSIjRjFGMUYxIiBoZWlnaHQ9IjEzNy45MDYzIiByeD0iMi41IiByeT0iMi41IiBzdHlsZT0ic3Ryb2tlOiMxODE4MTg7c3Ryb2tlLXdpZHRoOjAuNTsiIHdpZHRoPSIxNTkiIHg9IjcwIiB5PSIxOTAiLz48ZWxsaXBzZSBjeD0iMTEzLjgiIGN5PSIyMDYiIGZpbGw9IiNBREQxQjIiIHJ4PSIxMSIgcnk9IjExIiBzdHlsZT0ic3Ryb2tlOiMxODE4MTg7c3Ryb2tlLXdpZHRoOjE7Ii8+PHBhdGggZD0iTTExMS40MjUsMjEwLjI1IEwxMTEuNDI1LDIxMiBMMTE2LjM2MjUsMjEyIEwxMTYuMzYyNSwyMTAuMjUgTDExMS40MjUsMjEwLjI1IFogTTExMi4xMTI1LDIxMC45Mzc1IFExMTIuMTEyNSwyMTAuOTM3NSAxMTIuMTEyNSwyMDEuNzUgTDExMC4zNjI1LDIwMS43NSBRMTEwLjM2MjUsMjAxLjc1IDExMC4zNjI1LDIxMC45Mzc1IEwxMTIuMTEyNSwyMTAuOTM3NSBaIE0xMTUuNjc1LDIxMC45Mzc1IEwxMTcuNDI1LDIxMC45Mzc1IFExMTcuNDI1LDIxMC45Mzc1IDExNy40MjUsMjA4LjEyNSBMMTE1LjY3NSwyMDguMTI1IFExMTUuNjc1LDIwOC4xMjUgMTE1LjY3NSwyMTAuOTM3NSBaIE0xMTUuNjc1LDIwMS43NSBRMTE1LjY3NSwyMDEuNzUgMTE1LjY3NSwyMDQuNTYyNSBMMTE3LjQyNSwyMDQuNTYyNSBRMTE3LjQyNSwyMDQuNTYyNSAxMTcuNDI1LDIwMS43NSBMMTE1LjY3NSwyMDEuNzUgWiBNMTExLjQyNSwyMDIuNDM3NSBMMTE2LjM2MjUsMjAyLjQzNzUgTDExNi4zNjI1LDIwMC42ODc1IEwxMTEuNDI1LDIwMC42ODc1IEwxMTEuNDI1LDIwMi40Mzc1IFogIiBmaWxsPSIjMDAwMDAwIi8+PHRleHQgZmlsbD0iIzAwMDAwMCIgZm9udC1mYW1pbHk9InNhbnMtc2VyaWYiIGZvbnQtc2l6ZT0iMTQiIGxlbmd0aEFkanVzdD0ic3BhY2luZyIgdGV4dExlbmd0aD0iNjMiIHg9IjEzNC4yIiB5PSIyMTEuNzQyMiI+S2VuZGFyYWFuPC90ZXh0PjxsaW5lIHN0eWxlPSJzdHJva2U6IzE4MTgxODtzdHJva2Utd2lkdGg6MC41OyIgeDE9IjcxIiB4Mj0iMjI4IiB5MT0iMjIyIiB5Mj0iMjIyIi8+PHJlY3QgZmlsbD0ibm9uZSIgaGVpZ2h0PSI2IiBzdHlsZT0ic3Ryb2tlOiNDODI5MzA7c3Ryb2tlLXdpZHRoOjE7IiB3aWR0aD0iNiIgeD0iNzgiIHk9IjIzMS45OTIyIi8+PHRleHQgZmlsbD0iIzAwMDAwMCIgZm9udC1mYW1pbHk9InNhbnMtc2VyaWYiIGZvbnQtc2l6ZT0iMTQiIGxlbmd0aEFkanVzdD0ic3BhY2luZyIgdGV4dExlbmd0aD0iMTI2IiB4PSI5MCIgeT0iMjM5LjIzNDQiPmlkX2tlbmRhcmFhbiA6IGludDwvdGV4dD48cmVjdCBmaWxsPSJub25lIiBoZWlnaHQ9IjYiIHN0eWxlPSJzdHJva2U6I0M4MjkzMDtzdHJva2Utd2lkdGg6MTsiIHdpZHRoPSI2IiB4PSI3OCIgeT0iMjQ2Ljk3NjYiLz48dGV4dCBmaWxsPSIjMDAwMDAwIiBmb250LWZhbWlseT0ic2Fucy1zZXJpZiIgZm9udC1zaXplPSIxNCIgbGVuZ3RoQWRqdXN0PSJzcGFjaW5nIiB0ZXh0TGVuZ3RoPSIxMjYiIHg9IjkwIiB5PSIyNTQuMjE4OCI+aWRfcGVsYW5nZ2FuIDogaW50PC90ZXh0PjxyZWN0IGZpbGw9Im5vbmUiIGhlaWdodD0iNiIgc3R5bGU9InN0cm9rZTojQzgyOTMwO3N0cm9rZS13aWR0aDoxOyIgd2lkdGg9IjYiIHg9Ijc4IiB5PSIyNjEuOTYwOSIvPjx0ZXh0IGZpbGw9IiMwMDAwMDAiIGZvbnQtZmFtaWx5PSJzYW5zLXNlcmlmIiBmb250LXNpemU9IjE0IiBsZW5ndGhBZGp1c3Q9InNwYWNpbmciIHRleHRMZW5ndGg9IjEzMyIgeD0iOTAiIHk9IjI2OS4yMDMxIj5wbGF0X25vbW9yIDogc3RyaW5nPC90ZXh0PjxyZWN0IGZpbGw9Im5vbmUiIGhlaWdodD0iNiIgc3R5bGU9InN0cm9rZTojQzgyOTMwO3N0cm9rZS13aWR0aDoxOyIgd2lkdGg9IjYiIHg9Ijc4IiB5PSIyNzYuOTQ1MyIvPjx0ZXh0IGZpbGw9IiMwMDAwMDAiIGZvbnQtZmFtaWx5PSJzYW5zLXNlcmlmIiBmb250LXNpemU9IjE0IiBsZW5ndGhBZGp1c3Q9InNwYWNpbmciIHRleHRMZW5ndGg9IjkxIiB4PSI5MCIgeT0iMjg0LjE4NzUiPm1lcmsgOiBzdHJpbmc8L3RleHQ+PHJlY3QgZmlsbD0ibm9uZSIgaGVpZ2h0PSI2IiBzdHlsZT0ic3Ryb2tlOiNDODI5MzA7c3Ryb2tlLXdpZHRoOjE7IiB3aWR0aD0iNiIgeD0iNzgiIHk9IjI5MS45Mjk3Ii8+PHRleHQgZmlsbD0iIzAwMDAwMCIgZm9udC1mYW1pbHk9InNhbnMtc2VyaWYiIGZvbnQtc2l6ZT0iMTQiIGxlbmd0aEFkanVzdD0ic3BhY2luZyIgdGV4dExlbmd0aD0iOTEiIHg9IjkwIiB5PSIyOTkuMTcxOSI+dGlwZSA6IHN0cmluZzwvdGV4dD48cmVjdCBmaWxsPSJub25lIiBoZWlnaHQ9IjYiIHN0eWxlPSJzdHJva2U6I0M4MjkzMDtzdHJva2Utd2lkdGg6MTsiIHdpZHRoPSI2IiB4PSI3OCIgeT0iMzA2LjkxNDEiLz48dGV4dCBmaWxsPSIjMDAwMDAwIiBmb250LWZhbWlseT0ic2Fucy1zZXJpZiIgZm9udC1zaXplPSIxNCIgbGVuZ3RoQWRqdXN0PSJzcGFjaW5nIiB0ZXh0TGVuZ3RoPSI3NyIgeD0iOTAiIHk9IjMxNC4xNTYzIj50YWh1biA6IGludDwvdGV4dD48bGluZSBzdHlsZT0ic3Ryb2tlOiMxODE4MTg7c3Ryb2tlLXdpZHRoOjAuNTsiIHgxPSI3MSIgeDI9IjIyOCIgeTE9IjMxOS45MDYzIiB5Mj0iMzE5LjkwNjMiLz48L2c+PCEtLWNsYXNzIEphZHdhbFNlcnZpcy0tPjxnIGNsYXNzPSJlbnRpdHkiIGRhdGEtZW50aXR5PSJKYWR3YWxTZXJ2aXMiIGRhdGEtc291cmNlLWxpbmU9IjIwIiBkYXRhLXVpZD0iZW50MDAwNCIgaWQ9ImVudGl0eV9KYWR3YWxTZXJ2aXMiPjxyZWN0IGZpbGw9IiNGMUYxRjEiIGhlaWdodD0iMTIyLjkyMTkiIHJ4PSIyLjUiIHJ5PSIyLjUiIHN0eWxlPSJzdHJva2U6IzE4MTgxODtzdHJva2Utd2lkdGg6MC41OyIgd2lkdGg9IjE3MyIgeD0iNjMiIHk9IjQwMyIvPjxlbGxpcHNlIGN4PSIxMDMuNjUiIGN5PSI0MTkiIGZpbGw9IiNBREQxQjIiIHJ4PSIxMSIgcnk9IjExIiBzdHlsZT0ic3Ryb2tlOiMxODE4MTg7c3Ryb2tlLXdpZHRoOjE7Ii8+PHBhdGggZD0iTTEwMS4yNzUsNDIzLjI1IEwxMDEuMjc1LDQyNSBMMTA2LjIxMjUsNDI1IEwxMDYuMjEyNSw0MjMuMjUgTDEwMS4yNzUsNDIzLjI1IFogTTEwMS45NjI1LDQyMy45Mzc1IFExMDEuOTYyNSw0MjMuOTM3NSAxMDEuOTYyNSw0MTQuNzUgTDEwMC4yMTI1LDQxNC43NSBRMTAwLjIxMjUsNDE0Ljc1IDEwMC4yMTI1LDQyMy45Mzc1IEwxMDEuOTYyNSw0MjMuOTM3NSBaIE0xMDUuNTI1LDQyMy45Mzc1IEwxMDcuMjc1LDQyMy45Mzc1IFExMDcuMjc1LDQyMy45Mzc1IDEwNy4yNzUsNDIxLjEyNSBMMTA1LjUyNSw0MjEuMTI1IFExMDUuNTI1LDQyMS4xMjUgMTA1LjUyNSw0MjMuOTM3NSBaIE0xMDUuNTI1LDQxNC43NSBRMTA1LjUyNSw0MTQuNzUgMTA1LjUyNSw0MTcuNTYyNSBMMTA3LjI3NSw0MTcuNTYyNSBRMTA3LjI3NSw0MTcuNTYyNSAxMDcuMjc1LDQxNC43NSBMMTA1LjUyNSw0MTQuNzUgWiBNMTAxLjI3NSw0MTUuNDM3NSBMMTA2LjIxMjUsNDE1LjQzNzUgTDEwNi4yMTI1LDQxMy42ODc1IEwxMDEuMjc1LDQxMy42ODc1IEwxMDEuMjc1LDQxNS40Mzc1IFogIiBmaWxsPSIjMDAwMDAwIi8+PHRleHQgZmlsbD0iIzAwMDAwMCIgZm9udC1mYW1pbHk9InNhbnMtc2VyaWYiIGZvbnQtc2l6ZT0iMTQiIGxlbmd0aEFkanVzdD0ic3BhY2luZyIgdGV4dExlbmd0aD0iODQiIHg9IjEyMy4zNSIgeT0iNDI0Ljc0MjIiPkphZHdhbFNlcnZpczwvdGV4dD48bGluZSBzdHlsZT0ic3Ryb2tlOiMxODE4MTg7c3Ryb2tlLXdpZHRoOjAuNTsiIHgxPSI2NCIgeDI9IjIzNSIgeTE9IjQzNSIgeTI9IjQzNSIvPjxyZWN0IGZpbGw9Im5vbmUiIGhlaWdodD0iNiIgc3R5bGU9InN0cm9rZTojQzgyOTMwO3N0cm9rZS13aWR0aDoxOyIgd2lkdGg9IjYiIHg9IjcxIiB5PSI0NDQuOTkyMiIvPjx0ZXh0IGZpbGw9IiMwMDAwMDAiIGZvbnQtZmFtaWx5PSJzYW5zLXNlcmlmIiBmb250LXNpemU9IjE0IiBsZW5ndGhBZGp1c3Q9InNwYWNpbmciIHRleHRMZW5ndGg9IjEwNSIgeD0iODMiIHk9IjQ1Mi4yMzQ0Ij5pZF9qYWR3YWwgOiBpbnQ8L3RleHQ+PHJlY3QgZmlsbD0ibm9uZSIgaGVpZ2h0PSI2IiBzdHlsZT0ic3Ryb2tlOiNDODI5MzA7c3Ryb2tlLXdpZHRoOjE7IiB3aWR0aD0iNiIgeD0iNzEiIHk9IjQ1OS45NzY2Ii8+PHRleHQgZmlsbD0iIzAwMDAwMCIgZm9udC1mYW1pbHk9InNhbnMtc2VyaWYiIGZvbnQtc2l6ZT0iMTQiIGxlbmd0aEFkanVzdD0ic3BhY2luZyIgdGV4dExlbmd0aD0iMTI2IiB4PSI4MyIgeT0iNDY3LjIxODgiPmlkX2tlbmRhcmFhbiA6IGludDwvdGV4dD48cmVjdCBmaWxsPSJub25lIiBoZWlnaHQ9IjYiIHN0eWxlPSJzdHJva2U6I0M4MjkzMDtzdHJva2Utd2lkdGg6MTsiIHdpZHRoPSI2IiB4PSI3MSIgeT0iNDc0Ljk2MDkiLz48dGV4dCBmaWxsPSIjMDAwMDAwIiBmb250LWZhbWlseT0ic2Fucy1zZXJpZiIgZm9udC1zaXplPSIxNCIgbGVuZ3RoQWRqdXN0PSJzcGFjaW5nIiB0ZXh0TGVuZ3RoPSIxNDciIHg9IjgzIiB5PSI0ODIuMjAzMSI+dGFuZ2dhbF9zZXJ2aXMgOiBkYXRlPC90ZXh0PjxyZWN0IGZpbGw9Im5vbmUiIGhlaWdodD0iNiIgc3R5bGU9InN0cm9rZTojQzgyOTMwO3N0cm9rZS13aWR0aDoxOyIgd2lkdGg9IjYiIHg9IjcxIiB5PSI0ODkuOTQ1MyIvPjx0ZXh0IGZpbGw9IiMwMDAwMDAiIGZvbnQtZmFtaWx5PSJzYW5zLXNlcmlmIiBmb250LXNpemU9IjE0IiBsZW5ndGhBZGp1c3Q9InNwYWNpbmciIHRleHRMZW5ndGg9IjEwNSIgeD0iODMiIHk9IjQ5Ny4xODc1Ij5zdGF0dXMgOiBzdHJpbmc8L3RleHQ+PHJlY3QgZmlsbD0ibm9uZSIgaGVpZ2h0PSI2IiBzdHlsZT0ic3Ryb2tlOiNDODI5MzA7c3Ryb2tlLXdpZHRoOjE7IiB3aWR0aD0iNiIgeD0iNzEiIHk9IjUwNC45Mjk3Ii8+PHRleHQgZmlsbD0iIzAwMDAwMCIgZm9udC1mYW1pbHk9InNhbnMtc2VyaWYiIGZvbnQtc2l6ZT0iMTQiIGxlbmd0aEFkanVzdD0ic3BhY2luZyIgdGV4dExlbmd0aD0iMTEyIiB4PSI4MyIgeT0iNTEyLjE3MTkiPmlkX3Rla25pc2kgOiBpbnQ8L3RleHQ+PGxpbmUgc3R5bGU9InN0cm9rZTojMTgxODE4O3N0cm9rZS13aWR0aDowLjU7IiB4MT0iNjQiIHgyPSIyMzUiIHkxPSI1MTcuOTIxOSIgeTI9IjUxNy45MjE5Ii8+PC9nPjwhLS1jbGFzcyBUZWtuaXNpLS0+PGcgY2xhc3M9ImVudGl0eSIgZGF0YS1lbnRpdHk9IlRla25pc2kiIGRhdGEtc291cmNlLWxpbmU9IjI5IiBkYXRhLXVpZD0iZW50MDAwNSIgaWQ9ImVudGl0eV9UZWtuaXNpIj48cmVjdCBmaWxsPSIjRjFGMUYxIiBoZWlnaHQ9IjkyLjk1MzEiIHJ4PSIyLjUiIHJ5PSIyLjUiIHN0eWxlPSJzdHJva2U6IzE4MTgxODtzdHJva2Utd2lkdGg6MC41OyIgd2lkdGg9IjE3MyIgeD0iNyIgeT0iNjE2Ii8+PGVsbGlwc2UgY3g9IjY0Ljc1IiBjeT0iNjMyIiBmaWxsPSIjQUREMUIyIiByeD0iMTEiIHJ5PSIxMSIgc3R5bGU9InN0cm9rZTojMTgxODE4O3N0cm9rZS13aWR0aDoxOyIvPjxwYXRoIGQ9Ik02Mi4zNzUsNjM2LjI1IEw2Mi4zNzUsNjM4IEw2Ny4zMTI1LDYzOCBMNjcuMzEyNSw2MzYuMjUgTDYyLjM3NSw2MzYuMjUgWiBNNjMuMDYyNSw2MzYuOTM3NSBRNjMuMDYyNSw2MzYuOTM3NSA2My4wNjI1LDYyNy43NSBMNjEuMzEyNSw2MjcuNzUgUTYxLjMxMjUsNjI3Ljc1IDYxLjMxMjUsNjM2LjkzNzUgTDYzLjA2MjUsNjM2LjkzNzUgWiBNNjYuNjI1LDYzNi45Mzc1IEw2OC4zNzUsNjM2LjkzNzUgUTY4LjM3NSw2MzYuOTM3NSA2OC4zNzUsNjM0LjEyNSBMNjYuNjI1LDYzNC4xMjUgUTY2LjYyNSw2MzQuMTI1IDY2LjYyNSw2MzYuOTM3NSBaIE02Ni42MjUsNjI3Ljc1IFE2Ni42MjUsNjI3Ljc1IDY2LjYyNSw2MzAuNTYyNSBMNjguMzc1LDYzMC41NjI1IFE2OC4zNzUsNjMwLjU2MjUgNjguMzc1LDYyNy43NSBMNjYuNjI1LDYyNy43NSBaIE02Mi4zNzUsNjI4LjQzNzUgTDY3LjMxMjUsNjI4LjQzNzUgTDY3LjMxMjUsNjI2LjY4NzUgTDYyLjM3NSw2MjYuNjg3NSBMNjIuMzc1LDYyOC40Mzc1IFogIiBmaWxsPSIjMDAwMDAwIi8+PHRleHQgZmlsbD0iIzAwMDAwMCIgZm9udC1mYW1pbHk9InNhbnMtc2VyaWYiIGZvbnQtc2l6ZT0iMTQiIGxlbmd0aEFkanVzdD0ic3BhY2luZyIgdGV4dExlbmd0aD0iNDkiIHg9Ijg1LjI1IiB5PSI2MzcuNzQyMiI+VGVrbmlzaTwvdGV4dD48bGluZSBzdHlsZT0ic3Ryb2tlOiMxODE4MTg7c3Ryb2tlLXdpZHRoOjAuNTsiIHgxPSI4IiB4Mj0iMTc5IiB5MT0iNjQ4IiB5Mj0iNjQ4Ii8+PHJlY3QgZmlsbD0ibm9uZSIgaGVpZ2h0PSI2IiBzdHlsZT0ic3Ryb2tlOiNDODI5MzA7c3Ryb2tlLXdpZHRoOjE7IiB3aWR0aD0iNiIgeD0iMTUiIHk9IjY1Ny45OTIyIi8+PHRleHQgZmlsbD0iIzAwMDAwMCIgZm9udC1mYW1pbHk9InNhbnMtc2VyaWYiIGZvbnQtc2l6ZT0iMTQiIGxlbmd0aEFkanVzdD0ic3BhY2luZyIgdGV4dExlbmd0aD0iMTEyIiB4PSIyNyIgeT0iNjY1LjIzNDQiPmlkX3Rla25pc2kgOiBpbnQ8L3RleHQ+PHJlY3QgZmlsbD0ibm9uZSIgaGVpZ2h0PSI2IiBzdHlsZT0ic3Ryb2tlOiNDODI5MzA7c3Ryb2tlLXdpZHRoOjE7IiB3aWR0aD0iNiIgeD0iMTUiIHk9IjY3Mi45NzY2Ii8+PHRleHQgZmlsbD0iIzAwMDAwMCIgZm9udC1mYW1pbHk9InNhbnMtc2VyaWYiIGZvbnQtc2l6ZT0iMTQiIGxlbmd0aEFkanVzdD0ic3BhY2luZyIgdGV4dExlbmd0aD0iOTEiIHg9IjI3IiB5PSI2ODAuMjE4OCI+bmFtYSA6IHN0cmluZzwvdGV4dD48cmVjdCBmaWxsPSJub25lIiBoZWlnaHQ9IjYiIHN0eWxlPSJzdHJva2U6I0M4MjkzMDtzdHJva2Utd2lkdGg6MTsiIHdpZHRoPSI2IiB4PSIxNSIgeT0iNjg3Ljk2MDkiLz48dGV4dCBmaWxsPSIjMDAwMDAwIiBmb250LWZhbWlseT0ic2Fucy1zZXJpZiIgZm9udC1zaXplPSIxNCIgbGVuZ3RoQWRqdXN0PSJzcGFjaW5nIiB0ZXh0TGVuZ3RoPSIxNDciIHg9IjI3IiB5PSI2OTUuMjAzMSI+c3Blc2lhbGlzYXNpIDogc3RyaW5nPC90ZXh0PjxsaW5lIHN0eWxlPSJzdHJva2U6IzE4MTgxODtzdHJva2Utd2lkdGg6MC41OyIgeDE9IjgiIHgyPSIxNzkiIHkxPSI3MDAuOTUzMSIgeTI9IjcwMC45NTMxIi8+PC9nPjwhLS1jbGFzcyBIYXNpbFBlcmJhaWthbi0tPjxnIGNsYXNzPSJlbnRpdHkiIGRhdGEtZW50aXR5PSJIYXNpbFBlcmJhaWthbiIgZGF0YS1zb3VyY2UtbGluZT0iMzYiIGRhdGEtdWlkPSJlbnQwMDA2IiBpZD0iZW50aXR5X0hhc2lsUGVyYmFpa2FuIj48cmVjdCBmaWxsPSIjRjFGMUYxIiBoZWlnaHQ9IjEyMi45MjE5IiByeD0iMi41IiByeT0iMi41IiBzdHlsZT0ic3Ryb2tlOiMxODE4MTg7c3Ryb2tlLXdpZHRoOjAuNTsiIHdpZHRoPSIxOTQiIHg9IjIxNS41IiB5PSI2MDEiLz48ZWxsaXBzZSBjeD0iMjU5LjMiIGN5PSI2MTciIGZpbGw9IiNBREQxQjIiIHJ4PSIxMSIgcnk9IjExIiBzdHlsZT0ic3Ryb2tlOiMxODE4MTg7c3Ryb2tlLXdpZHRoOjE7Ii8+PHBhdGggZD0iTTI1Ni45MjUsNjIxLjI1IEwyNTYuOTI1LDYyMyBMMjYxLjg2MjUsNjIzIEwyNjEuODYyNSw2MjEuMjUgTDI1Ni45MjUsNjIxLjI1IFogTTI1Ny42MTI1LDYyMS45Mzc1IFEyNTcuNjEyNSw2MjEuOTM3NSAyNTcuNjEyNSw2MTIuNzUgTDI1NS44NjI1LDYxMi43NSBRMjU1Ljg2MjUsNjEyLjc1IDI1NS44NjI1LDYyMS45Mzc1IEwyNTcuNjEyNSw2MjEuOTM3NSBaIE0yNjEuMTc1LDYyMS45Mzc1IEwyNjIuOTI1LDYyMS45Mzc1IFEyNjIuOTI1LDYyMS45Mzc1IDI2Mi45MjUsNjE5LjEyNSBMMjYxLjE3NSw2MTkuMTI1IFEyNjEuMTc1LDYxOS4xMjUgMjYxLjE3NSw2MjEuOTM3NSBaIE0yNjEuMTc1LDYxMi43NSBRMjYxLjE3NSw2MTIuNzUgMjYxLjE3NSw2MTUuNTYyNSBMMjYyLjkyNSw2MTUuNTYyNSBRMjYyLjkyNSw2MTUuNTYyNSAyNjIuOTI1LDYxMi43NSBMMjYxLjE3NSw2MTIuNzUgWiBNMjU2LjkyNSw2MTMuNDM3NSBMMjYxLjg2MjUsNjEzLjQzNzUgTDI2MS44NjI1LDYxMS42ODc1IEwyNTYuOTI1LDYxMS42ODc1IEwyNTYuOTI1LDYxMy40Mzc1IFogIiBmaWxsPSIjMDAwMDAwIi8+PHRleHQgZmlsbD0iIzAwMDAwMCIgZm9udC1mYW1pbHk9InNhbnMtc2VyaWYiIGZvbnQtc2l6ZT0iMTQiIGxlbmd0aEFkanVzdD0ic3BhY2luZyIgdGV4dExlbmd0aD0iOTgiIHg9IjI3OS43IiB5PSI2MjIuNzQyMiI+SGFzaWxQZXJiYWlrYW48L3RleHQ+PGxpbmUgc3R5bGU9InN0cm9rZTojMTgxODE4O3N0cm9rZS13aWR0aDowLjU7IiB4MT0iMjE2LjUiIHgyPSI0MDguNSIgeTE9IjYzMyIgeTI9IjYzMyIvPjxyZWN0IGZpbGw9Im5vbmUiIGhlaWdodD0iNiIgc3R5bGU9InN0cm9rZTojQzgyOTMwO3N0cm9rZS13aWR0aDoxOyIgd2lkdGg9IjYiIHg9IjIyMy41IiB5PSI2NDIuOTkyMiIvPjx0ZXh0IGZpbGw9IiMwMDAwMDAiIGZvbnQtZmFtaWx5PSJzYW5zLXNlcmlmIiBmb250LXNpemU9IjE0IiBsZW5ndGhBZGp1c3Q9InNwYWNpbmciIHRleHRMZW5ndGg9Ijk4IiB4PSIyMzUuNSIgeT0iNjUwLjIzNDQiPmlkX2hhc2lsIDogaW50PC90ZXh0PjxyZWN0IGZpbGw9Im5vbmUiIGhlaWdodD0iNiIgc3R5bGU9InN0cm9rZTojQzgyOTMwO3N0cm9rZS13aWR0aDoxOyIgd2lkdGg9IjYiIHg9IjIyMy41IiB5PSI2NTcuOTc2NiIvPjx0ZXh0IGZpbGw9IiMwMDAwMDAiIGZvbnQtZmFtaWx5PSJzYW5zLXNlcmlmIiBmb250LXNpemU9IjE0IiBsZW5ndGhBZGp1c3Q9InNwYWNpbmciIHRleHRMZW5ndGg9IjEwNSIgeD0iMjM1LjUiIHk9IjY2NS4yMTg4Ij5pZF9qYWR3YWwgOiBpbnQ8L3RleHQ+PHJlY3QgZmlsbD0ibm9uZSIgaGVpZ2h0PSI2IiBzdHlsZT0ic3Ryb2tlOiNDODI5MzA7c3Ryb2tlLXdpZHRoOjE7IiB3aWR0aD0iNiIgeD0iMjIzLjUiIHk9IjY3Mi45NjA5Ii8+PHRleHQgZmlsbD0iIzAwMDAwMCIgZm9udC1mYW1pbHk9InNhbnMtc2VyaWYiIGZvbnQtc2l6ZT0iMTQiIGxlbmd0aEFkanVzdD0ic3BhY2luZyIgdGV4dExlbmd0aD0iMTI2IiB4PSIyMzUuNSIgeT0iNjgwLjIwMzEiPmRlc2tyaXBzaSA6IHN0cmluZzwvdGV4dD48cmVjdCBmaWxsPSJub25lIiBoZWlnaHQ9IjYiIHN0eWxlPSJzdHJva2U6I0M4MjkzMDtzdHJva2Utd2lkdGg6MTsiIHdpZHRoPSI2IiB4PSIyMjMuNSIgeT0iNjg3Ljk0NTMiLz48dGV4dCBmaWxsPSIjMDAwMDAwIiBmb250LWZhbWlseT0ic2Fucy1zZXJpZiIgZm9udC1zaXplPSIxNCIgbGVuZ3RoQWRqdXN0PSJzcGFjaW5nIiB0ZXh0TGVuZ3RoPSIxNTQiIHg9IjIzNS41IiB5PSI2OTUuMTg3NSI+d2FrdHVfbXVsYWkgOiBkYXRldGltZTwvdGV4dD48cmVjdCBmaWxsPSJub25lIiBoZWlnaHQ9IjYiIHN0eWxlPSJzdHJva2U6I0M4MjkzMDtzdHJva2Utd2lkdGg6MTsiIHdpZHRoPSI2IiB4PSIyMjMuNSIgeT0iNzAyLjkyOTciLz48dGV4dCBmaWxsPSIjMDAwMDAwIiBmb250LWZhbWlseT0ic2Fucy1zZXJpZiIgZm9udC1zaXplPSIxNCIgbGVuZ3RoQWRqdXN0PSJzcGFjaW5nIiB0ZXh0TGVuZ3RoPSIxNjgiIHg9IjIzNS41IiB5PSI3MTAuMTcxOSI+d2FrdHVfc2VsZXNhaSA6IGRhdGV0aW1lPC90ZXh0PjxsaW5lIHN0eWxlPSJzdHJva2U6IzE4MTgxODtzdHJva2Utd2lkdGg6MC41OyIgeDE9IjIxNi41IiB4Mj0iNDA4LjUiIHkxPSI3MTUuOTIxOSIgeTI9IjcxNS45MjE5Ii8+PC9nPjwhLS1jbGFzcyBTdWt1Q2FkYW5nLS0+PGcgY2xhc3M9ImVudGl0eSIgZGF0YS1lbnRpdHk9IlN1a3VDYWRhbmciIGRhdGEtc291cmNlLWxpbmU9IjQ1IiBkYXRhLXVpZD0iZW50MDAwNyIgaWQ9ImVudGl0eV9TdWt1Q2FkYW5nIj48cmVjdCBmaWxsPSIjRjFGMUYxIiBoZWlnaHQ9IjEwNy45Mzc1IiByeD0iMi41IiByeT0iMi41IiBzdHlsZT0ic3Ryb2tlOiMxODE4MTg7c3Ryb2tlLXdpZHRoOjAuNTsiIHdpZHRoPSIxNTkiIHg9IjIzMyIgeT0iOTgyIi8+PGVsbGlwc2UgY3g9IjI3My42NSIgY3k9Ijk5OCIgZmlsbD0iI0FERDFCMiIgcng9IjExIiByeT0iMTEiIHN0eWxlPSJzdHJva2U6IzE4MTgxODtzdHJva2Utd2lkdGg6MTsiLz48cGF0aCBkPSJNMjcxLjI3NSwxMDAyLjI1IEwyNzEuMjc1LDEwMDQgTDI3Ni4yMTI1LDEwMDQgTDI3Ni4yMTI1LDEwMDIuMjUgTDI3MS4yNzUsMTAwMi4yNSBaIE0yNzEuOTYyNSwxMDAyLjkzNzUgUTI3MS45NjI1LDEwMDIuOTM3NSAyNzEuOTYyNSw5OTMuNzUgTDI3MC4yMTI1LDk5My43NSBRMjcwLjIxMjUsOTkzLjc1IDI3MC4yMTI1LDEwMDIuOTM3NSBMMjcxLjk2MjUsMTAwMi45Mzc1IFogTTI3NS41MjUsMTAwMi45Mzc1IEwyNzcuMjc1LDEwMDIuOTM3NSBRMjc3LjI3NSwxMDAyLjkzNzUgMjc3LjI3NSwxMDAwLjEyNSBMMjc1LjUyNSwxMDAwLjEyNSBRMjc1LjUyNSwxMDAwLjEyNSAyNzUuNTI1LDEwMDIuOTM3NSBaIE0yNzUuNTI1LDk5My43NSBRMjc1LjUyNSw5OTMuNzUgMjc1LjUyNSw5OTYuNTYyNSBMMjc3LjI3NSw5OTYuNTYyNSBRMjc3LjI3NSw5OTYuNTYyNSAyNzcuMjc1LDk5My43NSBMMjc1LjUyNSw5OTMuNzUgWiBNMjcxLjI3NSw5OTQuNDM3NSBMMjc2LjIxMjUsOTk0LjQzNzUgTDI3Ni4yMTI1LDk5Mi42ODc1IEwyNzEuMjc1LDk5Mi42ODc1IEwyNzEuMjc1LDk5NC40Mzc1IFogIiBmaWxsPSIjMDAwMDAwIi8+PHRleHQgZmlsbD0iIzAwMDAwMCIgZm9udC1mYW1pbHk9InNhbnMtc2VyaWYiIGZvbnQtc2l6ZT0iMTQiIGxlbmd0aEFkanVzdD0ic3BhY2luZyIgdGV4dExlbmd0aD0iNzAiIHg9IjI5My4zNSIgeT0iMTAwMy43NDIyIj5TdWt1Q2FkYW5nPC90ZXh0PjxsaW5lIHN0eWxlPSJzdHJva2U6IzE4MTgxODtzdHJva2Utd2lkdGg6MC41OyIgeDE9IjIzNCIgeDI9IjM5MSIgeTE9IjEwMTQiIHkyPSIxMDE0Ii8+PHJlY3QgZmlsbD0ibm9uZSIgaGVpZ2h0PSI2IiBzdHlsZT0ic3Ryb2tlOiNDODI5MzA7c3Ryb2tlLXdpZHRoOjE7IiB3aWR0aD0iNiIgeD0iMjQxIiB5PSIxMDIzLjk5MjIiLz48dGV4dCBmaWxsPSIjMDAwMDAwIiBmb250LWZhbWlseT0ic2Fucy1zZXJpZiIgZm9udC1zaXplPSIxNCIgbGVuZ3RoQWRqdXN0PSJzcGFjaW5nIiB0ZXh0TGVuZ3RoPSIxMzMiIHg9IjI1MyIgeT0iMTAzMS4yMzQ0Ij5pZF9zdWt1Y2FkYW5nIDogaW50PC90ZXh0PjxyZWN0IGZpbGw9Im5vbmUiIGhlaWdodD0iNiIgc3R5bGU9InN0cm9rZTojQzgyOTMwO3N0cm9rZS13aWR0aDoxOyIgd2lkdGg9IjYiIHg9IjI0MSIgeT0iMTAzOC45NzY2Ii8+PHRleHQgZmlsbD0iIzAwMDAwMCIgZm9udC1mYW1pbHk9InNhbnMtc2VyaWYiIGZvbnQtc2l6ZT0iMTQiIGxlbmd0aEFkanVzdD0ic3BhY2luZyIgdGV4dExlbmd0aD0iOTEiIHg9IjI1MyIgeT0iMTA0Ni4yMTg4Ij5uYW1hIDogc3RyaW5nPC90ZXh0PjxyZWN0IGZpbGw9Im5vbmUiIGhlaWdodD0iNiIgc3R5bGU9InN0cm9rZTojQzgyOTMwO3N0cm9rZS13aWR0aDoxOyIgd2lkdGg9IjYiIHg9IjI0MSIgeT0iMTA1My45NjA5Ii8+PHRleHQgZmlsbD0iIzAwMDAwMCIgZm9udC1mYW1pbHk9InNhbnMtc2VyaWYiIGZvbnQtc2l6ZT0iMTQiIGxlbmd0aEFkanVzdD0ic3BhY2luZyIgdGV4dExlbmd0aD0iNzAiIHg9IjI1MyIgeT0iMTA2MS4yMDMxIj5zdG9rIDogaW50PC90ZXh0PjxyZWN0IGZpbGw9Im5vbmUiIGhlaWdodD0iNiIgc3R5bGU9InN0cm9rZTojQzgyOTMwO3N0cm9rZS13aWR0aDoxOyIgd2lkdGg9IjYiIHg9IjI0MSIgeT0iMTA2OC45NDUzIi8+PHRleHQgZmlsbD0iIzAwMDAwMCIgZm9udC1mYW1pbHk9InNhbnMtc2VyaWYiIGZvbnQtc2l6ZT0iMTQiIGxlbmd0aEFkanVzdD0ic3BhY2luZyIgdGV4dExlbmd0aD0iOTgiIHg9IjI1MyIgeT0iMTA3Ni4xODc1Ij5oYXJnYSA6IGRvdWJsZTwvdGV4dD48bGluZSBzdHlsZT0ic3Ryb2tlOiMxODE4MTg7c3Ryb2tlLXdpZHRoOjAuNTsiIHgxPSIyMzQiIHgyPSIzOTEiIHkxPSIxMDgxLjkzNzUiIHkyPSIxMDgxLjkzNzUiLz48L2c+PCEtLWNsYXNzIFBlbmdndW5hYW5TdWt1Q2FkYW5nLS0+PGcgY2xhc3M9ImVudGl0eSIgZGF0YS1lbnRpdHk9IlBlbmdndW5hYW5TdWt1Q2FkYW5nIiBkYXRhLXNvdXJjZS1saW5lPSI1MyIgZGF0YS11aWQ9ImVudDAwMDgiIGlkPSJlbnRpdHlfUGVuZ2d1bmFhblN1a3VDYWRhbmciPjxyZWN0IGZpbGw9IiNGMUYxRjEiIGhlaWdodD0iMTA3LjkzNzUiIHJ4PSIyLjUiIHJ5PSIyLjUiIHN0eWxlPSJzdHJva2U6IzE4MTgxODtzdHJva2Utd2lkdGg6MC41OyIgd2lkdGg9IjE3MiIgeD0iMjI2LjUiIHk9Ijc5OSIvPjxlbGxpcHNlIGN4PSIyNDEuNSIgY3k9IjgxNSIgZmlsbD0iI0FERDFCMiIgcng9IjExIiByeT0iMTEiIHN0eWxlPSJzdHJva2U6IzE4MTgxODtzdHJva2Utd2lkdGg6MTsiLz48cGF0aCBkPSJNMjM5LjEyNSw4MTkuMjUgTDIzOS4xMjUsODIxIEwyNDQuMDYyNSw4MjEgTDI0NC4wNjI1LDgxOS4yNSBMMjM5LjEyNSw4MTkuMjUgWiBNMjM5LjgxMjUsODE5LjkzNzUgUTIzOS44MTI1LDgxOS45Mzc1IDIzOS44MTI1LDgxMC43NSBMMjM4LjA2MjUsODEwLjc1IFEyMzguMDYyNSw4MTAuNzUgMjM4LjA2MjUsODE5LjkzNzUgTDIzOS44MTI1LDgxOS45Mzc1IFogTTI0My4zNzUsODE5LjkzNzUgTDI0NS4xMjUsODE5LjkzNzUgUTI0NS4xMjUsODE5LjkzNzUgMjQ1LjEyNSw4MTcuMTI1IEwyNDMuMzc1LDgxNy4xMjUgUTI0My4zNzUsODE3LjEyNSAyNDMuMzc1LDgxOS45Mzc1IFogTTI0My4zNzUsODEwLjc1IFEyNDMuMzc1LDgxMC43NSAyNDMuMzc1LDgxMy41NjI1IEwyNDUuMTI1LDgxMy41NjI1IFEyNDUuMTI1LDgxMy41NjI1IDI0NS4xMjUsODEwLjc1IEwyNDMuMzc1LDgxMC43NSBaIE0yMzkuMTI1LDgxMS40Mzc1IEwyNDQuMDYyNSw4MTEuNDM3NSBMMjQ0LjA2MjUsODA5LjY4NzUgTDIzOS4xMjUsODA5LjY4NzUgTDIzOS4xMjUsODExLjQzNzUgWiAiIGZpbGw9IiMwMDAwMDAiLz48dGV4dCBmaWxsPSIjMDAwMDAwIiBmb250LWZhbWlseT0ic2Fucy1zZXJpZiIgZm9udC1zaXplPSIxNCIgbGVuZ3RoQWRqdXN0PSJzcGFjaW5nIiB0ZXh0TGVuZ3RoPSIxNDAiIHg9IjI1NS41IiB5PSI4MjAuNzQyMiI+UGVuZ2d1bmFhblN1a3VDYWRhbmc8L3RleHQ+PGxpbmUgc3R5bGU9InN0cm9rZTojMTgxODE4O3N0cm9rZS13aWR0aDowLjU7IiB4MT0iMjI3LjUiIHgyPSIzOTcuNSIgeTE9IjgzMSIgeTI9IjgzMSIvPjxyZWN0IGZpbGw9Im5vbmUiIGhlaWdodD0iNiIgc3R5bGU9InN0cm9rZTojQzgyOTMwO3N0cm9rZS13aWR0aDoxOyIgd2lkdGg9IjYiIHg9IjIzNC41IiB5PSI4NDAuOTkyMiIvPjx0ZXh0IGZpbGw9IiMwMDAwMDAiIGZvbnQtZmFtaWx5PSJzYW5zLXNlcmlmIiBmb250LXNpemU9IjE0IiBsZW5ndGhBZGp1c3Q9InNwYWNpbmciIHRleHRMZW5ndGg9IjEzMyIgeD0iMjQ2LjUiIHk9Ijg0OC4yMzQ0Ij5pZF9wZW5nZ3VuYWFuIDogaW50PC90ZXh0PjxyZWN0IGZpbGw9Im5vbmUiIGhlaWdodD0iNiIgc3R5bGU9InN0cm9rZTojQzgyOTMwO3N0cm9rZS13aWR0aDoxOyIgd2lkdGg9IjYiIHg9IjIzNC41IiB5PSI4NTUuOTc2NiIvPjx0ZXh0IGZpbGw9IiMwMDAwMDAiIGZvbnQtZmFtaWx5PSJzYW5zLXNlcmlmIiBmb250LXNpemU9IjE0IiBsZW5ndGhBZGp1c3Q9InNwYWNpbmciIHRleHRMZW5ndGg9Ijk4IiB4PSIyNDYuNSIgeT0iODYzLjIxODgiPmlkX2hhc2lsIDogaW50PC90ZXh0PjxyZWN0IGZpbGw9Im5vbmUiIGhlaWdodD0iNiIgc3R5bGU9InN0cm9rZTojQzgyOTMwO3N0cm9rZS13aWR0aDoxOyIgd2lkdGg9IjYiIHg9IjIzNC41IiB5PSI4NzAuOTYwOSIvPjx0ZXh0IGZpbGw9IiMwMDAwMDAiIGZvbnQtZmFtaWx5PSJzYW5zLXNlcmlmIiBmb250LXNpemU9IjE0IiBsZW5ndGhBZGp1c3Q9InNwYWNpbmciIHRleHRMZW5ndGg9IjEzMyIgeD0iMjQ2LjUiIHk9Ijg3OC4yMDMxIj5pZF9zdWt1Y2FkYW5nIDogaW50PC90ZXh0PjxyZWN0IGZpbGw9Im5vbmUiIGhlaWdodD0iNiIgc3R5bGU9InN0cm9rZTojQzgyOTMwO3N0cm9rZS13aWR0aDoxOyIgd2lkdGg9IjYiIHg9IjIzNC41IiB5PSI4ODUuOTQ1MyIvPjx0ZXh0IGZpbGw9IiMwMDAwMDAiIGZvbnQtZmFtaWx5PSJzYW5zLXNlcmlmIiBmb250LXNpemU9IjE0IiBsZW5ndGhBZGp1c3Q9InNwYWNpbmciIHRleHRMZW5ndGg9Ijg0IiB4PSIyNDYuNSIgeT0iODkzLjE4NzUiPmp1bWxhaCA6IGludDwvdGV4dD48bGluZSBzdHlsZT0ic3Ryb2tlOiMxODE4MTg7c3Ryb2tlLXdpZHRoOjAuNTsiIHgxPSIyMjcuNSIgeDI9IjM5Ny41IiB5MT0iODk4LjkzNzUiIHkyPSI4OTguOTM3NSIvPjwvZz48IS0tbGluayBQZWxhbmdnYW4gdG8gS2VuZGFyYWFuLS0+PGcgY2xhc3M9ImxpbmsiIGRhdGEtZW50aXR5LTE9IlBlbGFuZ2dhbiIgZGF0YS1lbnRpdHktMj0iS2VuZGFyYWFuIiBkYXRhLXNvdXJjZS1saW5lPSI2MSIgZGF0YS11aWQ9ImxuazkiIGlkPSJsaW5rX1BlbGFuZ2dhbl9LZW5kYXJhYW4iPjxwYXRoIGNvZGVMaW5lPSI2MSIgZD0iTTE0OS41LDExNS4wNCBDMTQ5LjUsMTM4LjA1IDE0OS41LDE2NS4yOSAxNDkuNSwxODkuNzkiIGZpbGw9Im5vbmUiIGlkPSJQZWxhbmdnYW4tS2VuZGFyYWFuIiBzdHlsZT0ic3Ryb2tlOiMxODE4MTg7c3Ryb2tlLXdpZHRoOjE7Ii8+PHBvbHlnb24gZmlsbD0iIzAwMDAwMCIgcG9pbnRzPSIxNTQuNSwxNTcuOTU3LDE1Ny40Mzg5LDE0OC45MTE5LDE1MS41NjExLDE0OC45MTE5LDE1NC41LDE1Ny45NTciIHN0eWxlPSJzdHJva2U6IzAwMDAwMDtzdHJva2Utd2lkdGg6MTsiLz48dGV4dCBmaWxsPSIjMDAwMDAwIiBmb250LWZhbWlseT0ic2Fucy1zZXJpZiIgZm9udC1zaXplPSIxMyIgbGVuZ3RoQWRqdXN0PSJzcGFjaW5nIiB0ZXh0TGVuZ3RoPSI1MiIgeD0iMTYzLjUiIHk9IjE1OC4yODkxIj5tZW1pbGlraTwvdGV4dD48dGV4dCBmaWxsPSIjMDAwMDAwIiBmb250LWZhbWlseT0ic2Fucy1zZXJpZiIgZm9udC1zaXplPSIxMyIgbGVuZ3RoQWRqdXN0PSJzcGFjaW5nIiB0ZXh0TGVuZ3RoPSI2LjUiIHg9IjE0My4xNDc3IiB5PSIxMzUuMTQ4MyI+MTwvdGV4dD48dGV4dCBmaWxsPSIjMDAwMDAwIiBmb250LWZhbWlseT0ic2Fucy1zZXJpZiIgZm9udC1zaXplPSIxMyIgbGVuZ3RoQWRqdXN0PSJzcGFjaW5nIiB0ZXh0TGVuZ3RoPSIyNiIgeD0iMTIxLjk5NjkiIHk9IjE4MC4zODM0Ij4wLi4qPC90ZXh0PjwvZz48IS0tbGluayBLZW5kYXJhYW4gdG8gSmFkd2FsU2VydmlzLS0+PGcgY2xhc3M9ImxpbmsiIGRhdGEtZW50aXR5LTE9IktlbmRhcmFhbiIgZGF0YS1lbnRpdHktMj0iSmFkd2FsU2VydmlzIiBkYXRhLXNvdXJjZS1saW5lPSI2MiIgZGF0YS11aWQ9ImxuazEwIiBpZD0ibGlua19LZW5kYXJhYW5fSmFkd2FsU2VydmlzIj48cGF0aCBjb2RlTGluZT0iNjIiIGQ9Ik0xNDkuNSwzMjguMDUgQzE0OS41LDM1Mi4xOSAxNDkuNSwzNzkuMiAxNDkuNSw0MDIuNyIgZmlsbD0ibm9uZSIgaWQ9IktlbmRhcmFhbi1KYWR3YWxTZXJ2aXMiIHN0eWxlPSJzdHJva2U6IzE4MTgxODtzdHJva2Utd2lkdGg6MTsiLz48cG9seWdvbiBmaWxsPSIjMDAwMDAwIiBwb2ludHM9IjE1NC41LDM3MC45NTcsMTU3LjQzODksMzYxLjkxMTksMTUxLjU2MTEsMzYxLjkxMTksMTU0LjUsMzcwLjk1NyIgc3R5bGU9InN0cm9rZTojMDAwMDAwO3N0cm9rZS13aWR0aDoxOyIvPjx0ZXh0IGZpbGw9IiMwMDAwMDAiIGZvbnQtZmFtaWx5PSJzYW5zLXNlcmlmIiBmb250LXNpemU9IjEzIiBsZW5ndGhBZGp1c3Q9InNwYWNpbmciIHRleHRMZW5ndGg9IjcxLjUiIHg9IjE2My41IiB5PSIzNzEuMjg5MSI+ZGlqYWR3YWxrYW48L3RleHQ+PHRleHQgZmlsbD0iIzAwMDAwMCIgZm9udC1mYW1pbHk9InNhbnMtc2VyaWYiIGZvbnQtc2l6ZT0iMTMiIGxlbmd0aEFkanVzdD0ic3BhY2luZyIgdGV4dExlbmd0aD0iNi41IiB4PSIxNDMuMjE2NCIgeT0iMzQ4LjE4MjEiPjE8L3RleHQ+PHRleHQgZmlsbD0iIzAwMDAwMCIgZm9udC1mYW1pbHk9InNhbnMtc2VyaWYiIGZvbnQtc2l6ZT0iMTMiIGxlbmd0aEFkanVzdD0ic3BhY2luZyIgdGV4dExlbmd0aD0iMjYiIHg9IjEyMS44MzQ0IiB5PSIzOTMuMzAxNyI+MC4uKjwvdGV4dD48L2c+PCEtLWxpbmsgSmFkd2FsU2VydmlzIHRvIFRla25pc2ktLT48ZyBjbGFzcz0ibGluayIgZGF0YS1lbnRpdHktMT0iSmFkd2FsU2VydmlzIiBkYXRhLWVudGl0eS0yPSJUZWtuaXNpIiBkYXRhLXNvdXJjZS1saW5lPSI2MyIgZGF0YS11aWQ9ImxuazExIiBpZD0ibGlua19KYWR3YWxTZXJ2aXNfVGVrbmlzaSI+PHBhdGggY29kZUxpbmU9IjYzIiBkPSJNMTMyLjE2LDUyNi4xNyBDMTIzLjkxLDU1NS4wNyAxMTQuMiw1ODkuMDUgMTA2LjU4LDYxNS43MyIgZmlsbD0ibm9uZSIgaWQ9IkphZHdhbFNlcnZpcy1UZWtuaXNpIiBzdHlsZT0ic3Ryb2tlOiMxODE4MTg7c3Ryb2tlLXdpZHRoOjE7Ii8+PHBvbHlnb24gZmlsbD0iIzAwMDAwMCIgcG9pbnRzPSIxMjcuMTI2OCw1NjguNzY0OCwxMzIuNDM2OCw1NjAuODc0NiwxMjYuNzg1LDU1OS4yNjA0LDEyNy4xMjY4LDU2OC43NjQ4IiBzdHlsZT0ic3Ryb2tlOiMwMDAwMDA7c3Ryb2tlLXdpZHRoOjE7Ii8+PHRleHQgZmlsbD0iIzAwMDAwMCIgZm9udC1mYW1pbHk9InNhbnMtc2VyaWYiIGZvbnQtc2l6ZT0iMTMiIGxlbmd0aEFkanVzdD0ic3BhY2luZyIgdGV4dExlbmd0aD0iNTguNSIgeD0iMTM3LjUiIHk9IjU2OS4yODkxIj5kaXRhbmdhbmk8L3RleHQ+PHRleHQgZmlsbD0iIzAwMDAwMCIgZm9udC1mYW1pbHk9InNhbnMtc2VyaWYiIGZvbnQtc2l6ZT0iMTMiIGxlbmd0aEFkanVzdD0ic3BhY2luZyIgdGV4dExlbmd0aD0iNi41IiB4PSIxMjMuODM3MSIgeT0iNTQ2LjM5ODYiPjE8L3RleHQ+PHRleHQgZmlsbD0iIzAwMDAwMCIgZm9udC1mYW1pbHk9InNhbnMtc2VyaWYiIGZvbnQtc2l6ZT0iMTMiIGxlbmd0aEFkanVzdD0ic3BhY2luZyIgdGV4dExlbmd0aD0iNi41IiB4PSIxMDIuMjkwOSIgeT0iNjA2LjI3NTgiPjE8L3RleHQ+PC9nPjwhLS1saW5rIEphZHdhbFNlcnZpcyB0byBIYXNpbFBlcmJhaWthbi0tPjxnIGNsYXNzPSJsaW5rIiBkYXRhLWVudGl0eS0xPSJKYWR3YWxTZXJ2aXMiIGRhdGEtZW50aXR5LTI9Ikhhc2lsUGVyYmFpa2FuIiBkYXRhLXNvdXJjZS1saW5lPSI2NCIgZGF0YS11aWQ9ImxuazEyIiBpZD0ibGlua19KYWR3YWxTZXJ2aXNfSGFzaWxQZXJiYWlrYW4iPjxwYXRoIGNvZGVMaW5lPSI2NCIgZD0iTTE5OS45Niw1MjYuMTcgQzIxOS42OSw1NDkuOSAyNDIuMjcsNTc3LjA1IDI2Miw2MDAuNzgiIGZpbGw9Im5vbmUiIGlkPSJKYWR3YWxTZXJ2aXMtSGFzaWxQZXJiYWlrYW4iIHN0eWxlPSJzdHJva2U6IzE4MTgxODtzdHJva2Utd2lkdGg6MTsiLz48cG9seWdvbiBmaWxsPSIjMDAwMDAwIiBwb2ludHM9IjI0My42OTY4LDU2Ny44MDE2LDI0MC4xNzM1LDU1OC45Njc3LDIzNS42NTQsNTYyLjcyNTgsMjQzLjY5NjgsNTY3LjgwMTYiIHN0eWxlPSJzdHJva2U6IzAwMDAwMDtzdHJva2Utd2lkdGg6MTsiLz48dGV4dCBmaWxsPSIjMDAwMDAwIiBmb250LWZhbWlseT0ic2Fucy1zZXJpZiIgZm9udC1zaXplPSIxMyIgbGVuZ3RoQWRqdXN0PSJzcGFjaW5nIiB0ZXh0TGVuZ3RoPSI3OCIgeD0iMjQ5LjUiIHk9IjU2OS4yODkxIj5tZW5naGFzaWxrYW48L3RleHQ+PHRleHQgZmlsbD0iIzAwMDAwMCIgZm9udC1mYW1pbHk9InNhbnMtc2VyaWYiIGZvbnQtc2l6ZT0iMTMiIGxlbmd0aEFkanVzdD0ic3BhY2luZyIgdGV4dExlbmd0aD0iNi41IiB4PSIxOTkuNDc2NSIgeT0iNTQ2LjM5ODYiPjE8L3RleHQ+PHRleHQgZmlsbD0iIzAwMDAwMCIgZm9udC1mYW1pbHk9InNhbnMtc2VyaWYiIGZvbnQtc2l6ZT0iMTMiIGxlbmd0aEFkanVzdD0ic3BhY2luZyIgdGV4dExlbmd0aD0iNi41IiB4PSIyNDkuMTc3MyIgeT0iNTkxLjM5MTkiPjE8L3RleHQ+PC9nPjwhLS1saW5rIEhhc2lsUGVyYmFpa2FuIHRvIFBlbmdndW5hYW5TdWt1Q2FkYW5nLS0+PGcgY2xhc3M9ImxpbmsiIGRhdGEtZW50aXR5LTE9Ikhhc2lsUGVyYmFpa2FuIiBkYXRhLWVudGl0eS0yPSJQZW5nZ3VuYWFuU3VrdUNhZGFuZyIgZGF0YS1zb3VyY2UtbGluZT0iNjUiIGRhdGEtdWlkPSJsbmsxMyIgaWQ9ImxpbmtfSGFzaWxQZXJiYWlrYW5fUGVuZ2d1bmFhblN1a3VDYWRhbmciPjxwYXRoIGNvZGVMaW5lPSI2NSIgZD0iTTMxMi41LDcyNC4xOCBDMzEyLjUsNzQ4LjE4IDMxMi41LDc3NS41MiAzMTIuNSw3OTguNzQiIGZpbGw9Im5vbmUiIGlkPSJIYXNpbFBlcmJhaWthbi1QZW5nZ3VuYWFuU3VrdUNhZGFuZyIgc3R5bGU9InN0cm9rZTojMTgxODE4O3N0cm9rZS13aWR0aDoxOyIvPjxwb2x5Z29uIGZpbGw9IiMwMDAwMDAiIHBvaW50cz0iMzE3LjUsNzY2Ljk1NywzMjAuNDM4OSw3NTcuOTExOSwzMTQuNTYxMSw3NTcuOTExOSwzMTcuNSw3NjYuOTU3IiBzdHlsZT0ic3Ryb2tlOiMwMDAwMDA7c3Ryb2tlLXdpZHRoOjE7Ii8+PHRleHQgZmlsbD0iIzAwMDAwMCIgZm9udC1mYW1pbHk9InNhbnMtc2VyaWYiIGZvbnQtc2l6ZT0iMTMiIGxlbmd0aEFkanVzdD0ic3BhY2luZyIgdGV4dExlbmd0aD0iNzEuNSIgeD0iMzI2LjUiIHk9Ijc2Ny4yODkxIj5tZW5nZ3VuYWthbjwvdGV4dD48dGV4dCBmaWxsPSIjMDAwMDAwIiBmb250LWZhbWlseT0ic2Fucy1zZXJpZiIgZm9udC1zaXplPSIxMyIgbGVuZ3RoQWRqdXN0PSJzcGFjaW5nIiB0ZXh0TGVuZ3RoPSI2LjUiIHg9IjMwNi4xODIiIHk9Ijc0NC40MDk3Ij4xPC90ZXh0Pjx0ZXh0IGZpbGw9IiMwMDAwMDAiIGZvbnQtZmFtaWx5PSJzYW5zLXNlcmlmIiBmb250LXNpemU9IjEzIiBsZW5ndGhBZGp1c3Q9InNwYWNpbmciIHRleHRMZW5ndGg9IjI2IiB4PSIyODQuNjcxOSIgeT0iNzg5LjU1MzQiPjAuLio8L3RleHQ+PC9nPjwhLS1saW5rIFBlbmdndW5hYW5TdWt1Q2FkYW5nIHRvIFN1a3VDYWRhbmctLT48ZyBjbGFzcz0ibGluayIgZGF0YS1lbnRpdHktMT0iUGVuZ2d1bmFhblN1a3VDYWRhbmciIGRhdGEtZW50aXR5LTI9IlN1a3VDYWRhbmciIGRhdGEtc291cmNlLWxpbmU9IjY2IiBkYXRhLXVpZD0ibG5rMTQiIGlkPSJsaW5rX1BlbmdndW5hYW5TdWt1Q2FkYW5nX1N1a3VDYWRhbmciPjxwYXRoIGNvZGVMaW5lPSI2NiIgZD0iTTMxMi41LDkwNy4zMyBDMzEyLjUsOTMwLjc5IDMxMi41LDk1OC4yOSAzMTIuNSw5ODEuNzQiIGZpbGw9Im5vbmUiIGlkPSJQZW5nZ3VuYWFuU3VrdUNhZGFuZy1TdWt1Q2FkYW5nIiBzdHlsZT0ic3Ryb2tlOiMxODE4MTg7c3Ryb2tlLXdpZHRoOjE7Ii8+PHBvbHlnb24gZmlsbD0iIzAwMDAwMCIgcG9pbnRzPSIzMTcuNSw5NDkuOTU3LDMyMC40Mzg5LDk0MC45MTE5LDMxNC41NjExLDk0MC45MTE5LDMxNy41LDk0OS45NTciIHN0eWxlPSJzdHJva2U6IzAwMDAwMDtzdHJva2Utd2lkdGg6MTsiLz48dGV4dCBmaWxsPSIjMDAwMDAwIiBmb250LWZhbWlseT0ic2Fucy1zZXJpZiIgZm9udC1zaXplPSIxMyIgbGVuZ3RoQWRqdXN0PSJzcGFjaW5nIiB0ZXh0TGVuZ3RoPSI0NS41IiB4PSIzMjYuNSIgeT0iOTUwLjI4OTEiPm1lbWFrYWk8L3RleHQ+PHRleHQgZmlsbD0iIzAwMDAwMCIgZm9udC1mYW1pbHk9InNhbnMtc2VyaWYiIGZvbnQtc2l6ZT0iMTMiIGxlbmd0aEFkanVzdD0ic3BhY2luZyIgdGV4dExlbmd0aD0iNi41IiB4PSIzMDYuMTY0OCIgeT0iOTI3LjA5MjIiPio8L3RleHQ+PHRleHQgZmlsbD0iIzAwMDAwMCIgZm9udC1mYW1pbHk9InNhbnMtc2VyaWYiIGZvbnQtc2l6ZT0iMTMiIGxlbmd0aEFkanVzdD0ic3BhY2luZyIgdGV4dExlbmd0aD0iNi41IiB4PSIzMDYuMTEzMyIgeT0iOTcyLjU1MzQiPjE8L3RleHQ+PC9nPjwhLS1TUkM9W1ZQRERReUNtMzhSbC1IS2NicUFYUFJsc0syWFppQXJaYkJSdGVET2NMVXF1bUhfaE9Vb19wX2JlUjJUUEJtYnc5TGlGaC1HUHNKODFja3BTTC1Pdm9FSmltWTBjRm1hWDJ1OHFndGZmSEwyUUhmUEdXMGtyS0lacEhXN1g5MURoaWltQzR3bWdmVFRfYXNKTXpUdW9JSzUxdHhrRlZNX1VJeHh0RnFZTDA5RjlpWVhMMzU0bW5NRjVPQ0s2MmJwaV9RdTB5MEZlM1NJMWdNX0s3TUNlVVNuaGV5UUNLLVljZUhRUFJpLWwyME4zY2Vtc09Bb0VnVG1iWGQ2OTZpVGVucFJIS05NSDF1aEZKS3pDTHFtWjJESkc1OHhkeS1PSU9pVksyUDN0R3VmNXRfNUl3eDQzOHJTZXFyblg1UlFodkhqbU94RjIyaTNFNGVDNTJyQlFCUDZFYW03Y21OQngwakhQc281d21VRGZmdnJSeFE0ZGZrSDFtR0xLTmJWR3FmdjRyN0o3dDJJalRFQ1RqUHpBWFFfZmRldERjbDFsYWxiZzJtNk5TMjdzaHYtUm1wbFBWMXF0VXhBald5SV91bEd2OU9pNUlQLU1vdGFRbEIyTFVuUzUya0g4cmVjTnVfOWVzUHFCczR3cWRsaXdZUEJ0Uy12dHg1VUZPaHRsOEY1MXpNMlRRWW9QRHJ3cU5HUnZjNl9Jd1ZRQU1jdmxjMm5BdnB0MXU2WlhaWmRXRm0wMF0tLT48L2c+PC9zdmc+;" parent="1" vertex="1">
            <mxGeometry x="3820" y="730" width="200" height="526.92" as="geometry" />
          </mxCell>
        </UserObject>
        <UserObject label="" plantUmlData="{&#xa;  &quot;data&quot;: &quot;@startuml\nleft to right direction\nskinparam classAttributeIconSize 0\n\nclass Pelanggan {\n  - id_pelanggan : int\n  - nama : string\n  - alamat : string\n  - no_telepon : string\n}\n\nclass Kendaraan {\n  - id_kendaraan : int\n  - id_pelanggan : int\n  - plat_nomor : string\n  - merk : string\n  - tipe : string\n  - tahun : int\n}\n\nclass JadwalServis {\n  - id_jadwal : int\n  - id_kendaraan : int\n  - tanggal_servis : date\n  - status : string\n  - id_teknisi : int\n}\n\nclass Teknisi {\n  - id_teknisi : int\n  - nama : string\n  - spesialisasi : string\n}\n\nclass HasilPerbaikan {\n  - id_hasil : int\n  - id_jadwal : int\n  - deskripsi : string\n  - waktu_mulai : datetime\n  - waktu_selesai : datetime\n}\n\nclass SukuCadang {\n  - id_sukucadang : int\n  - nama : string\n  - stok : int\n  - harga : double\n}\n\nclass PenggunaanSukuCadang {\n  - id_penggunaan : int\n  - id_hasil : int\n  - id_sukucadang : int\n  - jumlah : int\n}\n\n&#39; Relasi antar kelas\nPelanggan \&quot;1\&quot; -- \&quot;0..*\&quot; Kendaraan : memiliki &gt;\nKendaraan \&quot;1\&quot; -- \&quot;0..*\&quot; JadwalServis : dijadwalkan &gt;\nJadwalServis \&quot;1\&quot; -- \&quot;1\&quot; Teknisi : ditangani &gt;\nJadwalServis \&quot;1\&quot; -- \&quot;1\&quot; HasilPerbaikan : menghasilkan &gt;\nHasilPerbaikan \&quot;1\&quot; -- \&quot;0..*\&quot; PenggunaanSukuCadang : menggunakan &gt;\nPenggunaanSukuCadang \&quot;*\&quot; -- \&quot;1\&quot; SukuCadang : memakai &gt;\n\n@enduml\n&quot;,&#xa;  &quot;format&quot;: &quot;svg&quot;&#xa;}" id="hAPKSh9ywb4FfvCKl24X-8">
          <mxCell style="shape=image;noLabel=1;verticalAlign=top;aspect=fixed;imageAspect=0;image=data:image/svg+xml,PHN2ZyB4bWxucz0iaHR0cDovL3d3dy53My5vcmcvMjAwMC9zdmciIHhtbG5zOnhsaW5rPSJodHRwOi8vd3d3LnczLm9yZy8xOTk5L3hsaW5rIiBjb250ZW50U3R5bGVUeXBlPSJ0ZXh0L2NzcyIgZGF0YS1kaWFncmFtLXR5cGU9IkNMQVNTIiBoZWlnaHQ9IjI2NHB4IiBwcmVzZXJ2ZUFzcGVjdFJhdGlvPSJub25lIiBzdHlsZT0id2lkdGg6MTY4N3B4O2hlaWdodDoyNjRweDtiYWNrZ3JvdW5kOiNGRkZGRkY7IiB2ZXJzaW9uPSIxLjEiIHZpZXdCb3g9IjAgMCAxNjg3IDI2NCIgd2lkdGg9IjE2ODdweCIgem9vbUFuZFBhbj0ibWFnbmlmeSI+PGRlZnMvPjxnPjwhLS1jbGFzcyBQZWxhbmdnYW4tLT48ZyBjbGFzcz0iZW50aXR5IiBkYXRhLWVudGl0eT0iUGVsYW5nZ2FuIiBkYXRhLXNvdXJjZS1saW5lPSI0IiBkYXRhLXVpZD0iZW50MDAwMiIgaWQ9ImVudGl0eV9QZWxhbmdnYW4iPjxyZWN0IGZpbGw9IiNGMUYxRjEiIGhlaWdodD0iMTA3LjkzNzUiIHJ4PSIyLjUiIHJ5PSIyLjUiIHN0eWxlPSJzdHJva2U6IzE4MTgxODtzdHJva2Utd2lkdGg6MC41OyIgd2lkdGg9IjE1MiIgeD0iNyIgeT0iNzEuNSIvPjxlbGxpcHNlIGN4PSI0Ny42NSIgY3k9Ijg3LjUiIGZpbGw9IiNBREQxQjIiIHJ4PSIxMSIgcnk9IjExIiBzdHlsZT0ic3Ryb2tlOiMxODE4MTg7c3Ryb2tlLXdpZHRoOjE7Ii8+PHBhdGggZD0iTTQ1LjI3NSw5MS43NSBMNDUuMjc1LDkzLjUgTDUwLjIxMjUsOTMuNSBMNTAuMjEyNSw5MS43NSBMNDUuMjc1LDkxLjc1IFogTTQ1Ljk2MjUsOTIuNDM3NSBRNDUuOTYyNSw5Mi40Mzc1IDQ1Ljk2MjUsODMuMjUgTDQ0LjIxMjUsODMuMjUgUTQ0LjIxMjUsODMuMjUgNDQuMjEyNSw5Mi40Mzc1IEw0NS45NjI1LDkyLjQzNzUgWiBNNDkuNTI1LDkyLjQzNzUgTDUxLjI3NSw5Mi40Mzc1IFE1MS4yNzUsOTIuNDM3NSA1MS4yNzUsODkuNjI1IEw0OS41MjUsODkuNjI1IFE0OS41MjUsODkuNjI1IDQ5LjUyNSw5Mi40Mzc1IFogTTQ5LjUyNSw4My4yNSBRNDkuNTI1LDgzLjI1IDQ5LjUyNSw4Ni4wNjI1IEw1MS4yNzUsODYuMDYyNSBRNTEuMjc1LDg2LjA2MjUgNTEuMjc1LDgzLjI1IEw0OS41MjUsODMuMjUgWiBNNDUuMjc1LDgzLjkzNzUgTDUwLjIxMjUsODMuOTM3NSBMNTAuMjEyNSw4Mi4xODc1IEw0NS4yNzUsODIuMTg3NSBMNDUuMjc1LDgzLjkzNzUgWiAiIGZpbGw9IiMwMDAwMDAiLz48dGV4dCBmaWxsPSIjMDAwMDAwIiBmb250LWZhbWlseT0ic2Fucy1zZXJpZiIgZm9udC1zaXplPSIxNCIgbGVuZ3RoQWRqdXN0PSJzcGFjaW5nIiB0ZXh0TGVuZ3RoPSI2MyIgeD0iNjcuMzUiIHk9IjkzLjI0MjIiPlBlbGFuZ2dhbjwvdGV4dD48bGluZSBzdHlsZT0ic3Ryb2tlOiMxODE4MTg7c3Ryb2tlLXdpZHRoOjAuNTsiIHgxPSI4IiB4Mj0iMTU4IiB5MT0iMTAzLjUiIHkyPSIxMDMuNSIvPjx0ZXh0IGZpbGw9IiMwMDAwMDAiIGZvbnQtZmFtaWx5PSJzYW5zLXNlcmlmIiBmb250LXNpemU9IjE0IiBsZW5ndGhBZGp1c3Q9InNwYWNpbmciIHRleHRMZW5ndGg9IjEzMyIgeD0iMTMiIHk9IjEyMC43MzQ0Ij4taWRfcGVsYW5nZ2FuIDogaW50PC90ZXh0Pjx0ZXh0IGZpbGw9IiMwMDAwMDAiIGZvbnQtZmFtaWx5PSJzYW5zLXNlcmlmIiBmb250LXNpemU9IjE0IiBsZW5ndGhBZGp1c3Q9InNwYWNpbmciIHRleHRMZW5ndGg9Ijk4IiB4PSIxMyIgeT0iMTM1LjcxODgiPi1uYW1hIDogc3RyaW5nPC90ZXh0Pjx0ZXh0IGZpbGw9IiMwMDAwMDAiIGZvbnQtZmFtaWx5PSJzYW5zLXNlcmlmIiBmb250LXNpemU9IjE0IiBsZW5ndGhBZGp1c3Q9InNwYWNpbmciIHRleHRMZW5ndGg9IjExMiIgeD0iMTMiIHk9IjE1MC43MDMxIj4tYWxhbWF0IDogc3RyaW5nPC90ZXh0Pjx0ZXh0IGZpbGw9IiMwMDAwMDAiIGZvbnQtZmFtaWx5PSJzYW5zLXNlcmlmIiBmb250LXNpemU9IjE0IiBsZW5ndGhBZGp1c3Q9InNwYWNpbmciIHRleHRMZW5ndGg9IjE0MCIgeD0iMTMiIHk9IjE2NS42ODc1Ij4tbm9fdGVsZXBvbiA6IHN0cmluZzwvdGV4dD48bGluZSBzdHlsZT0ic3Ryb2tlOiMxODE4MTg7c3Ryb2tlLXdpZHRoOjAuNTsiIHgxPSI4IiB4Mj0iMTU4IiB5MT0iMTcxLjQzNzUiIHkyPSIxNzEuNDM3NSIvPjwvZz48IS0tY2xhc3MgS2VuZGFyYWFuLS0+PGcgY2xhc3M9ImVudGl0eSIgZGF0YS1lbnRpdHk9IktlbmRhcmFhbiIgZGF0YS1zb3VyY2UtbGluZT0iMTEiIGRhdGEtdWlkPSJlbnQwMDAzIiBpZD0iZW50aXR5X0tlbmRhcmFhbiI+PHJlY3QgZmlsbD0iI0YxRjFGMSIgaGVpZ2h0PSIxMzcuOTA2MyIgcng9IjIuNSIgcnk9IjIuNSIgc3R5bGU9InN0cm9rZTojMTgxODE4O3N0cm9rZS13aWR0aDowLjU7IiB3aWR0aD0iMTUyIiB4PSIyODYiIHk9IjU2LjUiLz48ZWxsaXBzZSBjeD0iMzI2LjY1IiBjeT0iNzIuNSIgZmlsbD0iI0FERDFCMiIgcng9IjExIiByeT0iMTEiIHN0eWxlPSJzdHJva2U6IzE4MTgxODtzdHJva2Utd2lkdGg6MTsiLz48cGF0aCBkPSJNMzI0LjI3NSw3Ni43NSBMMzI0LjI3NSw3OC41IEwzMjkuMjEyNSw3OC41IEwzMjkuMjEyNSw3Ni43NSBMMzI0LjI3NSw3Ni43NSBaIE0zMjQuOTYyNSw3Ny40Mzc1IFEzMjQuOTYyNSw3Ny40Mzc1IDMyNC45NjI1LDY4LjI1IEwzMjMuMjEyNSw2OC4yNSBRMzIzLjIxMjUsNjguMjUgMzIzLjIxMjUsNzcuNDM3NSBMMzI0Ljk2MjUsNzcuNDM3NSBaIE0zMjguNTI1LDc3LjQzNzUgTDMzMC4yNzUsNzcuNDM3NSBRMzMwLjI3NSw3Ny40Mzc1IDMzMC4yNzUsNzQuNjI1IEwzMjguNTI1LDc0LjYyNSBRMzI4LjUyNSw3NC42MjUgMzI4LjUyNSw3Ny40Mzc1IFogTTMyOC41MjUsNjguMjUgUTMyOC41MjUsNjguMjUgMzI4LjUyNSw3MS4wNjI1IEwzMzAuMjc1LDcxLjA2MjUgUTMzMC4yNzUsNzEuMDYyNSAzMzAuMjc1LDY4LjI1IEwzMjguNTI1LDY4LjI1IFogTTMyNC4yNzUsNjguOTM3NSBMMzI5LjIxMjUsNjguOTM3NSBMMzI5LjIxMjUsNjcuMTg3NSBMMzI0LjI3NSw2Ny4xODc1IEwzMjQuMjc1LDY4LjkzNzUgWiAiIGZpbGw9IiMwMDAwMDAiLz48dGV4dCBmaWxsPSIjMDAwMDAwIiBmb250LWZhbWlseT0ic2Fucy1zZXJpZiIgZm9udC1zaXplPSIxNCIgbGVuZ3RoQWRqdXN0PSJzcGFjaW5nIiB0ZXh0TGVuZ3RoPSI2MyIgeD0iMzQ2LjM1IiB5PSI3OC4yNDIyIj5LZW5kYXJhYW48L3RleHQ+PGxpbmUgc3R5bGU9InN0cm9rZTojMTgxODE4O3N0cm9rZS13aWR0aDowLjU7IiB4MT0iMjg3IiB4Mj0iNDM3IiB5MT0iODguNSIgeTI9Ijg4LjUiLz48dGV4dCBmaWxsPSIjMDAwMDAwIiBmb250LWZhbWlseT0ic2Fucy1zZXJpZiIgZm9udC1zaXplPSIxNCIgbGVuZ3RoQWRqdXN0PSJzcGFjaW5nIiB0ZXh0TGVuZ3RoPSIxMzMiIHg9IjI5MiIgeT0iMTA1LjczNDQiPi1pZF9rZW5kYXJhYW4gOiBpbnQ8L3RleHQ+PHRleHQgZmlsbD0iIzAwMDAwMCIgZm9udC1mYW1pbHk9InNhbnMtc2VyaWYiIGZvbnQtc2l6ZT0iMTQiIGxlbmd0aEFkanVzdD0ic3BhY2luZyIgdGV4dExlbmd0aD0iMTMzIiB4PSIyOTIiIHk9IjEyMC43MTg4Ij4taWRfcGVsYW5nZ2FuIDogaW50PC90ZXh0Pjx0ZXh0IGZpbGw9IiMwMDAwMDAiIGZvbnQtZmFtaWx5PSJzYW5zLXNlcmlmIiBmb250LXNpemU9IjE0IiBsZW5ndGhBZGp1c3Q9InNwYWNpbmciIHRleHRMZW5ndGg9IjE0MCIgeD0iMjkyIiB5PSIxMzUuNzAzMSI+LXBsYXRfbm9tb3IgOiBzdHJpbmc8L3RleHQ+PHRleHQgZmlsbD0iIzAwMDAwMCIgZm9udC1mYW1pbHk9InNhbnMtc2VyaWYiIGZvbnQtc2l6ZT0iMTQiIGxlbmd0aEFkanVzdD0ic3BhY2luZyIgdGV4dExlbmd0aD0iOTgiIHg9IjI5MiIgeT0iMTUwLjY4NzUiPi1tZXJrIDogc3RyaW5nPC90ZXh0Pjx0ZXh0IGZpbGw9IiMwMDAwMDAiIGZvbnQtZmFtaWx5PSJzYW5zLXNlcmlmIiBmb250LXNpemU9IjE0IiBsZW5ndGhBZGp1c3Q9InNwYWNpbmciIHRleHRMZW5ndGg9Ijk4IiB4PSIyOTIiIHk9IjE2NS42NzE5Ij4tdGlwZSA6IHN0cmluZzwvdGV4dD48dGV4dCBmaWxsPSIjMDAwMDAwIiBmb250LWZhbWlseT0ic2Fucy1zZXJpZiIgZm9udC1zaXplPSIxNCIgbGVuZ3RoQWRqdXN0PSJzcGFjaW5nIiB0ZXh0TGVuZ3RoPSI4NCIgeD0iMjkyIiB5PSIxODAuNjU2MyI+LXRhaHVuIDogaW50PC90ZXh0PjxsaW5lIHN0eWxlPSJzdHJva2U6IzE4MTgxODtzdHJva2Utd2lkdGg6MC41OyIgeDE9IjI4NyIgeDI9IjQzNyIgeTE9IjE4Ni40MDYzIiB5Mj0iMTg2LjQwNjMiLz48L2c+PCEtLWNsYXNzIEphZHdhbFNlcnZpcy0tPjxnIGNsYXNzPSJlbnRpdHkiIGRhdGEtZW50aXR5PSJKYWR3YWxTZXJ2aXMiIGRhdGEtc291cmNlLWxpbmU9IjIwIiBkYXRhLXVpZD0iZW50MDAwNCIgaWQ9ImVudGl0eV9KYWR3YWxTZXJ2aXMiPjxyZWN0IGZpbGw9IiNGMUYxRjEiIGhlaWdodD0iMTIyLjkyMTkiIHJ4PSIyLjUiIHJ5PSIyLjUiIHN0eWxlPSJzdHJva2U6IzE4MTgxODtzdHJva2Utd2lkdGg6MC41OyIgd2lkdGg9IjE2NiIgeD0iNTg0IiB5PSI2NCIvPjxlbGxpcHNlIGN4PSI2MjEuNSIgY3k9IjgwIiBmaWxsPSIjQUREMUIyIiByeD0iMTEiIHJ5PSIxMSIgc3R5bGU9InN0cm9rZTojMTgxODE4O3N0cm9rZS13aWR0aDoxOyIvPjxwYXRoIGQ9Ik02MTkuMTI1LDg0LjI1IEw2MTkuMTI1LDg2IEw2MjQuMDYyNSw4NiBMNjI0LjA2MjUsODQuMjUgTDYxOS4xMjUsODQuMjUgWiBNNjE5LjgxMjUsODQuOTM3NSBRNjE5LjgxMjUsODQuOTM3NSA2MTkuODEyNSw3NS43NSBMNjE4LjA2MjUsNzUuNzUgUTYxOC4wNjI1LDc1Ljc1IDYxOC4wNjI1LDg0LjkzNzUgTDYxOS44MTI1LDg0LjkzNzUgWiBNNjIzLjM3NSw4NC45Mzc1IEw2MjUuMTI1LDg0LjkzNzUgUTYyNS4xMjUsODQuOTM3NSA2MjUuMTI1LDgyLjEyNSBMNjIzLjM3NSw4Mi4xMjUgUTYyMy4zNzUsODIuMTI1IDYyMy4zNzUsODQuOTM3NSBaIE02MjMuMzc1LDc1Ljc1IFE2MjMuMzc1LDc1Ljc1IDYyMy4zNzUsNzguNTYyNSBMNjI1LjEyNSw3OC41NjI1IFE2MjUuMTI1LDc4LjU2MjUgNjI1LjEyNSw3NS43NSBMNjIzLjM3NSw3NS43NSBaIE02MTkuMTI1LDc2LjQzNzUgTDYyNC4wNjI1LDc2LjQzNzUgTDYyNC4wNjI1LDc0LjY4NzUgTDYxOS4xMjUsNzQuNjg3NSBMNjE5LjEyNSw3Ni40Mzc1IFogIiBmaWxsPSIjMDAwMDAwIi8+PHRleHQgZmlsbD0iIzAwMDAwMCIgZm9udC1mYW1pbHk9InNhbnMtc2VyaWYiIGZvbnQtc2l6ZT0iMTQiIGxlbmd0aEFkanVzdD0ic3BhY2luZyIgdGV4dExlbmd0aD0iODQiIHg9IjY0MC41IiB5PSI4NS43NDIyIj5KYWR3YWxTZXJ2aXM8L3RleHQ+PGxpbmUgc3R5bGU9InN0cm9rZTojMTgxODE4O3N0cm9rZS13aWR0aDowLjU7IiB4MT0iNTg1IiB4Mj0iNzQ5IiB5MT0iOTYiIHkyPSI5NiIvPjx0ZXh0IGZpbGw9IiMwMDAwMDAiIGZvbnQtZmFtaWx5PSJzYW5zLXNlcmlmIiBmb250LXNpemU9IjE0IiBsZW5ndGhBZGp1c3Q9InNwYWNpbmciIHRleHRMZW5ndGg9IjExMiIgeD0iNTkwIiB5PSIxMTMuMjM0NCI+LWlkX2phZHdhbCA6IGludDwvdGV4dD48dGV4dCBmaWxsPSIjMDAwMDAwIiBmb250LWZhbWlseT0ic2Fucy1zZXJpZiIgZm9udC1zaXplPSIxNCIgbGVuZ3RoQWRqdXN0PSJzcGFjaW5nIiB0ZXh0TGVuZ3RoPSIxMzMiIHg9IjU5MCIgeT0iMTI4LjIxODgiPi1pZF9rZW5kYXJhYW4gOiBpbnQ8L3RleHQ+PHRleHQgZmlsbD0iIzAwMDAwMCIgZm9udC1mYW1pbHk9InNhbnMtc2VyaWYiIGZvbnQtc2l6ZT0iMTQiIGxlbmd0aEFkanVzdD0ic3BhY2luZyIgdGV4dExlbmd0aD0iMTU0IiB4PSI1OTAiIHk9IjE0My4yMDMxIj4tdGFuZ2dhbF9zZXJ2aXMgOiBkYXRlPC90ZXh0Pjx0ZXh0IGZpbGw9IiMwMDAwMDAiIGZvbnQtZmFtaWx5PSJzYW5zLXNlcmlmIiBmb250LXNpemU9IjE0IiBsZW5ndGhBZGp1c3Q9InNwYWNpbmciIHRleHRMZW5ndGg9IjExMiIgeD0iNTkwIiB5PSIxNTguMTg3NSI+LXN0YXR1cyA6IHN0cmluZzwvdGV4dD48dGV4dCBmaWxsPSIjMDAwMDAwIiBmb250LWZhbWlseT0ic2Fucy1zZXJpZiIgZm9udC1zaXplPSIxNCIgbGVuZ3RoQWRqdXN0PSJzcGFjaW5nIiB0ZXh0TGVuZ3RoPSIxMTkiIHg9IjU5MCIgeT0iMTczLjE3MTkiPi1pZF90ZWtuaXNpIDogaW50PC90ZXh0PjxsaW5lIHN0eWxlPSJzdHJva2U6IzE4MTgxODtzdHJva2Utd2lkdGg6MC41OyIgeDE9IjU4NSIgeDI9Ijc0OSIgeTE9IjE3OC45MjE5IiB5Mj0iMTc4LjkyMTkiLz48L2c+PCEtLWNsYXNzIFRla25pc2ktLT48ZyBjbGFzcz0iZW50aXR5IiBkYXRhLWVudGl0eT0iVGVrbmlzaSIgZGF0YS1zb3VyY2UtbGluZT0iMjgiIGRhdGEtdWlkPSJlbnQwMDA1IiBpZD0iZW50aXR5X1Rla25pc2kiPjxyZWN0IGZpbGw9IiNGMUYxRjEiIGhlaWdodD0iOTIuOTUzMSIgcng9IjIuNSIgcnk9IjIuNSIgc3R5bGU9InN0cm9rZTojMTgxODE4O3N0cm9rZS13aWR0aDowLjU7IiB3aWR0aD0iMTY2IiB4PSI5MTMuNSIgeT0iNyIvPjxlbGxpcHNlIGN4PSI5NjcuNzUiIGN5PSIyMyIgZmlsbD0iI0FERDFCMiIgcng9IjExIiByeT0iMTEiIHN0eWxlPSJzdHJva2U6IzE4MTgxODtzdHJva2Utd2lkdGg6MTsiLz48cGF0aCBkPSJNOTY1LjM3NSwyNy4yNSBMOTY1LjM3NSwyOSBMOTcwLjMxMjUsMjkgTDk3MC4zMTI1LDI3LjI1IEw5NjUuMzc1LDI3LjI1IFogTTk2Ni4wNjI1LDI3LjkzNzUgUTk2Ni4wNjI1LDI3LjkzNzUgOTY2LjA2MjUsMTguNzUgTDk2NC4zMTI1LDE4Ljc1IFE5NjQuMzEyNSwxOC43NSA5NjQuMzEyNSwyNy45Mzc1IEw5NjYuMDYyNSwyNy45Mzc1IFogTTk2OS42MjUsMjcuOTM3NSBMOTcxLjM3NSwyNy45Mzc1IFE5NzEuMzc1LDI3LjkzNzUgOTcxLjM3NSwyNS4xMjUgTDk2OS42MjUsMjUuMTI1IFE5NjkuNjI1LDI1LjEyNSA5NjkuNjI1LDI3LjkzNzUgWiBNOTY5LjYyNSwxOC43NSBROTY5LjYyNSwxOC43NSA5NjkuNjI1LDIxLjU2MjUgTDk3MS4zNzUsMjEuNTYyNSBROTcxLjM3NSwyMS41NjI1IDk3MS4zNzUsMTguNzUgTDk2OS42MjUsMTguNzUgWiBNOTY1LjM3NSwxOS40Mzc1IEw5NzAuMzEyNSwxOS40Mzc1IEw5NzAuMzEyNSwxNy42ODc1IEw5NjUuMzc1LDE3LjY4NzUgTDk2NS4zNzUsMTkuNDM3NSBaICIgZmlsbD0iIzAwMDAwMCIvPjx0ZXh0IGZpbGw9IiMwMDAwMDAiIGZvbnQtZmFtaWx5PSJzYW5zLXNlcmlmIiBmb250LXNpemU9IjE0IiBsZW5ndGhBZGp1c3Q9InNwYWNpbmciIHRleHRMZW5ndGg9IjQ5IiB4PSI5ODguMjUiIHk9IjI4Ljc0MjIiPlRla25pc2k8L3RleHQ+PGxpbmUgc3R5bGU9InN0cm9rZTojMTgxODE4O3N0cm9rZS13aWR0aDowLjU7IiB4MT0iOTE0LjUiIHgyPSIxMDc4LjUiIHkxPSIzOSIgeTI9IjM5Ii8+PHRleHQgZmlsbD0iIzAwMDAwMCIgZm9udC1mYW1pbHk9InNhbnMtc2VyaWYiIGZvbnQtc2l6ZT0iMTQiIGxlbmd0aEFkanVzdD0ic3BhY2luZyIgdGV4dExlbmd0aD0iMTE5IiB4PSI5MTkuNSIgeT0iNTYuMjM0NCI+LWlkX3Rla25pc2kgOiBpbnQ8L3RleHQ+PHRleHQgZmlsbD0iIzAwMDAwMCIgZm9udC1mYW1pbHk9InNhbnMtc2VyaWYiIGZvbnQtc2l6ZT0iMTQiIGxlbmd0aEFkanVzdD0ic3BhY2luZyIgdGV4dExlbmd0aD0iOTgiIHg9IjkxOS41IiB5PSI3MS4yMTg4Ij4tbmFtYSA6IHN0cmluZzwvdGV4dD48dGV4dCBmaWxsPSIjMDAwMDAwIiBmb250LWZhbWlseT0ic2Fucy1zZXJpZiIgZm9udC1zaXplPSIxNCIgbGVuZ3RoQWRqdXN0PSJzcGFjaW5nIiB0ZXh0TGVuZ3RoPSIxNTQiIHg9IjkxOS41IiB5PSI4Ni4yMDMxIj4tc3Blc2lhbGlzYXNpIDogc3RyaW5nPC90ZXh0PjxsaW5lIHN0eWxlPSJzdHJva2U6IzE4MTgxODtzdHJva2Utd2lkdGg6MC41OyIgeDE9IjkxNC41IiB4Mj0iMTA3OC41IiB5MT0iOTEuOTUzMSIgeTI9IjkxLjk1MzEiLz48L2c+PCEtLWNsYXNzIEhhc2lsUGVyYmFpa2FuLS0+PGcgY2xhc3M9ImVudGl0eSIgZGF0YS1lbnRpdHk9Ikhhc2lsUGVyYmFpa2FuIiBkYXRhLXNvdXJjZS1saW5lPSIzNCIgZGF0YS11aWQ9ImVudDAwMDYiIGlkPSJlbnRpdHlfSGFzaWxQZXJiYWlrYW4iPjxyZWN0IGZpbGw9IiNGMUYxRjEiIGhlaWdodD0iMTIyLjkyMTkiIHJ4PSIyLjUiIHJ5PSIyLjUiIHN0eWxlPSJzdHJva2U6IzE4MTgxODtzdHJva2Utd2lkdGg6MC41OyIgd2lkdGg9IjE4NyIgeD0iOTAzIiB5PSIxMzUiLz48ZWxsaXBzZSBjeD0iOTQzLjY1IiBjeT0iMTUxIiBmaWxsPSIjQUREMUIyIiByeD0iMTEiIHJ5PSIxMSIgc3R5bGU9InN0cm9rZTojMTgxODE4O3N0cm9rZS13aWR0aDoxOyIvPjxwYXRoIGQ9Ik05NDEuMjc1LDE1NS4yNSBMOTQxLjI3NSwxNTcgTDk0Ni4yMTI1LDE1NyBMOTQ2LjIxMjUsMTU1LjI1IEw5NDEuMjc1LDE1NS4yNSBaIE05NDEuOTYyNSwxNTUuOTM3NSBROTQxLjk2MjUsMTU1LjkzNzUgOTQxLjk2MjUsMTQ2Ljc1IEw5NDAuMjEyNSwxNDYuNzUgUTk0MC4yMTI1LDE0Ni43NSA5NDAuMjEyNSwxNTUuOTM3NSBMOTQxLjk2MjUsMTU1LjkzNzUgWiBNOTQ1LjUyNSwxNTUuOTM3NSBMOTQ3LjI3NSwxNTUuOTM3NSBROTQ3LjI3NSwxNTUuOTM3NSA5NDcuMjc1LDE1My4xMjUgTDk0NS41MjUsMTUzLjEyNSBROTQ1LjUyNSwxNTMuMTI1IDk0NS41MjUsMTU1LjkzNzUgWiBNOTQ1LjUyNSwxNDYuNzUgUTk0NS41MjUsMTQ2Ljc1IDk0NS41MjUsMTQ5LjU2MjUgTDk0Ny4yNzUsMTQ5LjU2MjUgUTk0Ny4yNzUsMTQ5LjU2MjUgOTQ3LjI3NSwxNDYuNzUgTDk0NS41MjUsMTQ2Ljc1IFogTTk0MS4yNzUsMTQ3LjQzNzUgTDk0Ni4yMTI1LDE0Ny40Mzc1IEw5NDYuMjEyNSwxNDUuNjg3NSBMOTQxLjI3NSwxNDUuNjg3NSBMOTQxLjI3NSwxNDcuNDM3NSBaICIgZmlsbD0iIzAwMDAwMCIvPjx0ZXh0IGZpbGw9IiMwMDAwMDAiIGZvbnQtZmFtaWx5PSJzYW5zLXNlcmlmIiBmb250LXNpemU9IjE0IiBsZW5ndGhBZGp1c3Q9InNwYWNpbmciIHRleHRMZW5ndGg9Ijk4IiB4PSI5NjMuMzUiIHk9IjE1Ni43NDIyIj5IYXNpbFBlcmJhaWthbjwvdGV4dD48bGluZSBzdHlsZT0ic3Ryb2tlOiMxODE4MTg7c3Ryb2tlLXdpZHRoOjAuNTsiIHgxPSI5MDQiIHgyPSIxMDg5IiB5MT0iMTY3IiB5Mj0iMTY3Ii8+PHRleHQgZmlsbD0iIzAwMDAwMCIgZm9udC1mYW1pbHk9InNhbnMtc2VyaWYiIGZvbnQtc2l6ZT0iMTQiIGxlbmd0aEFkanVzdD0ic3BhY2luZyIgdGV4dExlbmd0aD0iMTA1IiB4PSI5MDkiIHk9IjE4NC4yMzQ0Ij4taWRfaGFzaWwgOiBpbnQ8L3RleHQ+PHRleHQgZmlsbD0iIzAwMDAwMCIgZm9udC1mYW1pbHk9InNhbnMtc2VyaWYiIGZvbnQtc2l6ZT0iMTQiIGxlbmd0aEFkanVzdD0ic3BhY2luZyIgdGV4dExlbmd0aD0iMTEyIiB4PSI5MDkiIHk9IjE5OS4yMTg4Ij4taWRfamFkd2FsIDogaW50PC90ZXh0Pjx0ZXh0IGZpbGw9IiMwMDAwMDAiIGZvbnQtZmFtaWx5PSJzYW5zLXNlcmlmIiBmb250LXNpemU9IjE0IiBsZW5ndGhBZGp1c3Q9InNwYWNpbmciIHRleHRMZW5ndGg9IjEzMyIgeD0iOTA5IiB5PSIyMTQuMjAzMSI+LWRlc2tyaXBzaSA6IHN0cmluZzwvdGV4dD48dGV4dCBmaWxsPSIjMDAwMDAwIiBmb250LWZhbWlseT0ic2Fucy1zZXJpZiIgZm9udC1zaXplPSIxNCIgbGVuZ3RoQWRqdXN0PSJzcGFjaW5nIiB0ZXh0TGVuZ3RoPSIxNjEiIHg9IjkwOSIgeT0iMjI5LjE4NzUiPi13YWt0dV9tdWxhaSA6IGRhdGV0aW1lPC90ZXh0Pjx0ZXh0IGZpbGw9IiMwMDAwMDAiIGZvbnQtZmFtaWx5PSJzYW5zLXNlcmlmIiBmb250LXNpemU9IjE0IiBsZW5ndGhBZGp1c3Q9InNwYWNpbmciIHRleHRMZW5ndGg9IjE3NSIgeD0iOTA5IiB5PSIyNDQuMTcxOSI+LXdha3R1X3NlbGVzYWkgOiBkYXRldGltZTwvdGV4dD48bGluZSBzdHlsZT0ic3Ryb2tlOiMxODE4MTg7c3Ryb2tlLXdpZHRoOjAuNTsiIHgxPSI5MDQiIHgyPSIxMDg5IiB5MT0iMjQ5LjkyMTkiIHkyPSIyNDkuOTIxOSIvPjwvZz48IS0tY2xhc3MgU3VrdUNhZGFuZy0tPjxnIGNsYXNzPSJlbnRpdHkiIGRhdGEtZW50aXR5PSJTdWt1Q2FkYW5nIiBkYXRhLXNvdXJjZS1saW5lPSI0MiIgZGF0YS11aWQ9ImVudDAwMDciIGlkPSJlbnRpdHlfU3VrdUNhZGFuZyI+PHJlY3QgZmlsbD0iI0YxRjFGMSIgaGVpZ2h0PSIxMDcuOTM3NSIgcng9IjIuNSIgcnk9IjIuNSIgc3R5bGU9InN0cm9rZTojMTgxODE4O3N0cm9rZS13aWR0aDowLjU7IiB3aWR0aD0iMTUyIiB4PSIxNTI4IiB5PSIxNDIuNSIvPjxlbGxpcHNlIGN4PSIxNTY1LjUiIGN5PSIxNTguNSIgZmlsbD0iI0FERDFCMiIgcng9IjExIiByeT0iMTEiIHN0eWxlPSJzdHJva2U6IzE4MTgxODtzdHJva2Utd2lkdGg6MTsiLz48cGF0aCBkPSJNMTU2My4xMjUsMTYyLjc1IEwxNTYzLjEyNSwxNjQuNSBMMTU2OC4wNjI1LDE2NC41IEwxNTY4LjA2MjUsMTYyLjc1IEwxNTYzLjEyNSwxNjIuNzUgWiBNMTU2My44MTI1LDE2My40Mzc1IFExNTYzLjgxMjUsMTYzLjQzNzUgMTU2My44MTI1LDE1NC4yNSBMMTU2Mi4wNjI1LDE1NC4yNSBRMTU2Mi4wNjI1LDE1NC4yNSAxNTYyLjA2MjUsMTYzLjQzNzUgTDE1NjMuODEyNSwxNjMuNDM3NSBaIE0xNTY3LjM3NSwxNjMuNDM3NSBMMTU2OS4xMjUsMTYzLjQzNzUgUTE1NjkuMTI1LDE2My40Mzc1IDE1NjkuMTI1LDE2MC42MjUgTDE1NjcuMzc1LDE2MC42MjUgUTE1NjcuMzc1LDE2MC42MjUgMTU2Ny4zNzUsMTYzLjQzNzUgWiBNMTU2Ny4zNzUsMTU0LjI1IFExNTY3LjM3NSwxNTQuMjUgMTU2Ny4zNzUsMTU3LjA2MjUgTDE1NjkuMTI1LDE1Ny4wNjI1IFExNTY5LjEyNSwxNTcuMDYyNSAxNTY5LjEyNSwxNTQuMjUgTDE1NjcuMzc1LDE1NC4yNSBaIE0xNTYzLjEyNSwxNTQuOTM3NSBMMTU2OC4wNjI1LDE1NC45Mzc1IEwxNTY4LjA2MjUsMTUzLjE4NzUgTDE1NjMuMTI1LDE1My4xODc1IEwxNTYzLjEyNSwxNTQuOTM3NSBaICIgZmlsbD0iIzAwMDAwMCIvPjx0ZXh0IGZpbGw9IiMwMDAwMDAiIGZvbnQtZmFtaWx5PSJzYW5zLXNlcmlmIiBmb250LXNpemU9IjE0IiBsZW5ndGhBZGp1c3Q9InNwYWNpbmciIHRleHRMZW5ndGg9IjcwIiB4PSIxNTg0LjUiIHk9IjE2NC4yNDIyIj5TdWt1Q2FkYW5nPC90ZXh0PjxsaW5lIHN0eWxlPSJzdHJva2U6IzE4MTgxODtzdHJva2Utd2lkdGg6MC41OyIgeDE9IjE1MjkiIHgyPSIxNjc5IiB5MT0iMTc0LjUiIHkyPSIxNzQuNSIvPjx0ZXh0IGZpbGw9IiMwMDAwMDAiIGZvbnQtZmFtaWx5PSJzYW5zLXNlcmlmIiBmb250LXNpemU9IjE0IiBsZW5ndGhBZGp1c3Q9InNwYWNpbmciIHRleHRMZW5ndGg9IjE0MCIgeD0iMTUzNCIgeT0iMTkxLjczNDQiPi1pZF9zdWt1Y2FkYW5nIDogaW50PC90ZXh0Pjx0ZXh0IGZpbGw9IiMwMDAwMDAiIGZvbnQtZmFtaWx5PSJzYW5zLXNlcmlmIiBmb250LXNpemU9IjE0IiBsZW5ndGhBZGp1c3Q9InNwYWNpbmciIHRleHRMZW5ndGg9Ijk4IiB4PSIxNTM0IiB5PSIyMDYuNzE4OCI+LW5hbWEgOiBzdHJpbmc8L3RleHQ+PHRleHQgZmlsbD0iIzAwMDAwMCIgZm9udC1mYW1pbHk9InNhbnMtc2VyaWYiIGZvbnQtc2l6ZT0iMTQiIGxlbmd0aEFkanVzdD0ic3BhY2luZyIgdGV4dExlbmd0aD0iNzciIHg9IjE1MzQiIHk9IjIyMS43MDMxIj4tc3RvayA6IGludDwvdGV4dD48dGV4dCBmaWxsPSIjMDAwMDAwIiBmb250LWZhbWlseT0ic2Fucy1zZXJpZiIgZm9udC1zaXplPSIxNCIgbGVuZ3RoQWRqdXN0PSJzcGFjaW5nIiB0ZXh0TGVuZ3RoPSIxMDUiIHg9IjE1MzQiIHk9IjIzNi42ODc1Ij4taGFyZ2EgOiBkb3VibGU8L3RleHQ+PGxpbmUgc3R5bGU9InN0cm9rZTojMTgxODE4O3N0cm9rZS13aWR0aDowLjU7IiB4MT0iMTUyOSIgeDI9IjE2NzkiIHkxPSIyNDIuNDM3NSIgeTI9IjI0Mi40Mzc1Ii8+PC9nPjwhLS1jbGFzcyBQZW5nZ3VuYWFuU3VrdUNhZGFuZy0tPjxnIGNsYXNzPSJlbnRpdHkiIGRhdGEtZW50aXR5PSJQZW5nZ3VuYWFuU3VrdUNhZGFuZyIgZGF0YS1zb3VyY2UtbGluZT0iNDkiIGRhdGEtdWlkPSJlbnQwMDA4IiBpZD0iZW50aXR5X1BlbmdndW5hYW5TdWt1Q2FkYW5nIj48cmVjdCBmaWxsPSIjRjFGMUYxIiBoZWlnaHQ9IjEwNy45Mzc1IiByeD0iMi41IiByeT0iMi41IiBzdHlsZT0ic3Ryb2tlOiMxODE4MTg7c3Ryb2tlLXdpZHRoOjAuNTsiIHdpZHRoPSIxNzIiIHg9IjEyMzYiIHk9IjE0Mi41Ii8+PGVsbGlwc2UgY3g9IjEyNTEiIGN5PSIxNTguNSIgZmlsbD0iI0FERDFCMiIgcng9IjExIiByeT0iMTEiIHN0eWxlPSJzdHJva2U6IzE4MTgxODtzdHJva2Utd2lkdGg6MTsiLz48cGF0aCBkPSJNMTI0OC42MjUsMTYyLjc1IEwxMjQ4LjYyNSwxNjQuNSBMMTI1My41NjI1LDE2NC41IEwxMjUzLjU2MjUsMTYyLjc1IEwxMjQ4LjYyNSwxNjIuNzUgWiBNMTI0OS4zMTI1LDE2My40Mzc1IFExMjQ5LjMxMjUsMTYzLjQzNzUgMTI0OS4zMTI1LDE1NC4yNSBMMTI0Ny41NjI1LDE1NC4yNSBRMTI0Ny41NjI1LDE1NC4yNSAxMjQ3LjU2MjUsMTYzLjQzNzUgTDEyNDkuMzEyNSwxNjMuNDM3NSBaIE0xMjUyLjg3NSwxNjMuNDM3NSBMMTI1NC42MjUsMTYzLjQzNzUgUTEyNTQuNjI1LDE2My40Mzc1IDEyNTQuNjI1LDE2MC42MjUgTDEyNTIuODc1LDE2MC42MjUgUTEyNTIuODc1LDE2MC42MjUgMTI1Mi44NzUsMTYzLjQzNzUgWiBNMTI1Mi44NzUsMTU0LjI1IFExMjUyLjg3NSwxNTQuMjUgMTI1Mi44NzUsMTU3LjA2MjUgTDEyNTQuNjI1LDE1Ny4wNjI1IFExMjU0LjYyNSwxNTcuMDYyNSAxMjU0LjYyNSwxNTQuMjUgTDEyNTIuODc1LDE1NC4yNSBaIE0xMjQ4LjYyNSwxNTQuOTM3NSBMMTI1My41NjI1LDE1NC45Mzc1IEwxMjUzLjU2MjUsMTUzLjE4NzUgTDEyNDguNjI1LDE1My4xODc1IEwxMjQ4LjYyNSwxNTQuOTM3NSBaICIgZmlsbD0iIzAwMDAwMCIvPjx0ZXh0IGZpbGw9IiMwMDAwMDAiIGZvbnQtZmFtaWx5PSJzYW5zLXNlcmlmIiBmb250LXNpemU9IjE0IiBsZW5ndGhBZGp1c3Q9InNwYWNpbmciIHRleHRMZW5ndGg9IjE0MCIgeD0iMTI2NSIgeT0iMTY0LjI0MjIiPlBlbmdndW5hYW5TdWt1Q2FkYW5nPC90ZXh0PjxsaW5lIHN0eWxlPSJzdHJva2U6IzE4MTgxODtzdHJva2Utd2lkdGg6MC41OyIgeDE9IjEyMzciIHgyPSIxNDA3IiB5MT0iMTc0LjUiIHkyPSIxNzQuNSIvPjx0ZXh0IGZpbGw9IiMwMDAwMDAiIGZvbnQtZmFtaWx5PSJzYW5zLXNlcmlmIiBmb250LXNpemU9IjE0IiBsZW5ndGhBZGp1c3Q9InNwYWNpbmciIHRleHRMZW5ndGg9IjE0MCIgeD0iMTI0MiIgeT0iMTkxLjczNDQiPi1pZF9wZW5nZ3VuYWFuIDogaW50PC90ZXh0Pjx0ZXh0IGZpbGw9IiMwMDAwMDAiIGZvbnQtZmFtaWx5PSJzYW5zLXNlcmlmIiBmb250LXNpemU9IjE0IiBsZW5ndGhBZGp1c3Q9InNwYWNpbmciIHRleHRMZW5ndGg9IjEwNSIgeD0iMTI0MiIgeT0iMjA2LjcxODgiPi1pZF9oYXNpbCA6IGludDwvdGV4dD48dGV4dCBmaWxsPSIjMDAwMDAwIiBmb250LWZhbWlseT0ic2Fucy1zZXJpZiIgZm9udC1zaXplPSIxNCIgbGVuZ3RoQWRqdXN0PSJzcGFjaW5nIiB0ZXh0TGVuZ3RoPSIxNDAiIHg9IjEyNDIiIHk9IjIyMS43MDMxIj4taWRfc3VrdWNhZGFuZyA6IGludDwvdGV4dD48dGV4dCBmaWxsPSIjMDAwMDAwIiBmb250LWZhbWlseT0ic2Fucy1zZXJpZiIgZm9udC1zaXplPSIxNCIgbGVuZ3RoQWRqdXN0PSJzcGFjaW5nIiB0ZXh0TGVuZ3RoPSI5MSIgeD0iMTI0MiIgeT0iMjM2LjY4NzUiPi1qdW1sYWggOiBpbnQ8L3RleHQ+PGxpbmUgc3R5bGU9InN0cm9rZTojMTgxODE4O3N0cm9rZS13aWR0aDowLjU7IiB4MT0iMTIzNyIgeDI9IjE0MDciIHkxPSIyNDIuNDM3NSIgeTI9IjI0Mi40Mzc1Ii8+PC9nPjwhLS1saW5rIFBlbGFuZ2dhbiB0byBLZW5kYXJhYW4tLT48ZyBjbGFzcz0ibGluayIgZGF0YS1lbnRpdHktMT0iUGVsYW5nZ2FuIiBkYXRhLWVudGl0eS0yPSJLZW5kYXJhYW4iIGRhdGEtc291cmNlLWxpbmU9IjU3IiBkYXRhLXVpZD0ibG5rOSIgaWQ9ImxpbmtfUGVsYW5nZ2FuX0tlbmRhcmFhbiI+PHBhdGggY29kZUxpbmU9IjU3IiBkPSJNMTU5LjMzLDEyNS41IEMxOTguNTgsMTI1LjUgMjQ2LjQ0LDEyNS41IDI4NS42OSwxMjUuNSIgZmlsbD0ibm9uZSIgaWQ9IlBlbGFuZ2dhbi1LZW5kYXJhYW4iIHN0eWxlPSJzdHJva2U6IzE4MTgxODtzdHJva2Utd2lkdGg6MTsiLz48cG9seWdvbiBmaWxsPSIjMDAwMDAwIiBwb2ludHM9IjE5OSwxMTguNDU3LDE4OS45NTQ5LDExNS41MTgxLDE4OS45NTQ5LDEyMS4zOTYsMTk5LDExOC40NTciIHN0eWxlPSJzdHJva2U6IzAwMDAwMDtzdHJva2Utd2lkdGg6MTsiLz48dGV4dCBmaWxsPSIjMDAwMDAwIiBmb250LWZhbWlseT0ic2Fucy1zZXJpZiIgZm9udC1zaXplPSIxMyIgbGVuZ3RoQWRqdXN0PSJzcGFjaW5nIiB0ZXh0TGVuZ3RoPSI1MiIgeD0iMjAzIiB5PSIxMjMuNzg5MSI+bWVtaWxpa2k8L3RleHQ+PHRleHQgZmlsbD0iIzAwMDAwMCIgZm9udC1mYW1pbHk9InNhbnMtc2VyaWYiIGZvbnQtc2l6ZT0iMTMiIGxlbmd0aEFkanVzdD0ic3BhY2luZyIgdGV4dExlbmd0aD0iNi41IiB4PSIxNjYuOTE1IiB5PSIxMzguNDU1MSI+MTwvdGV4dD48dGV4dCBmaWxsPSIjMDAwMDAwIiBmb250LWZhbWlseT0ic2Fucy1zZXJpZiIgZm9udC1zaXplPSIxMyIgbGVuZ3RoQWRqdXN0PSJzcGFjaW5nIiB0ZXh0TGVuZ3RoPSIyNiIgeD0iMjUyLjAxNDkiIHk9IjEzOC4zOTEiPjAuLio8L3RleHQ+PC9nPjwhLS1saW5rIEtlbmRhcmFhbiB0byBKYWR3YWxTZXJ2aXMtLT48ZyBjbGFzcz0ibGluayIgZGF0YS1lbnRpdHktMT0iS2VuZGFyYWFuIiBkYXRhLWVudGl0eS0yPSJKYWR3YWxTZXJ2aXMiIGRhdGEtc291cmNlLWxpbmU9IjU4IiBkYXRhLXVpZD0ibG5rMTAiIGlkPSJsaW5rX0tlbmRhcmFhbl9KYWR3YWxTZXJ2aXMiPjxwYXRoIGNvZGVMaW5lPSI1OCIgZD0iTTQzOC4yOSwxMjUuNSBDNDgyLjU0LDEyNS41IDUzOC41MywxMjUuNSA1ODMuOTEsMTI1LjUiIGZpbGw9Im5vbmUiIGlkPSJLZW5kYXJhYW4tSmFkd2FsU2VydmlzIiBzdHlsZT0ic3Ryb2tlOiMxODE4MTg7c3Ryb2tlLXdpZHRoOjE7Ii8+PHBvbHlnb24gZmlsbD0iIzAwMDAwMCIgcG9pbnRzPSI0NzgsMTE4LjQ1Nyw0NjguOTU0OSwxMTUuNTE4MSw0NjguOTU0OSwxMjEuMzk2LDQ3OCwxMTguNDU3IiBzdHlsZT0ic3Ryb2tlOiMwMDAwMDA7c3Ryb2tlLXdpZHRoOjE7Ii8+PHRleHQgZmlsbD0iIzAwMDAwMCIgZm9udC1mYW1pbHk9InNhbnMtc2VyaWYiIGZvbnQtc2l6ZT0iMTMiIGxlbmd0aEFkanVzdD0ic3BhY2luZyIgdGV4dExlbmd0aD0iNzEuNSIgeD0iNDgyIiB5PSIxMjMuNzg5MSI+ZGlqYWR3YWxrYW48L3RleHQ+PHRleHQgZmlsbD0iIzAwMDAwMCIgZm9udC1mYW1pbHk9InNhbnMtc2VyaWYiIGZvbnQtc2l6ZT0iMTMiIGxlbmd0aEFkanVzdD0ic3BhY2luZyIgdGV4dExlbmd0aD0iNi41IiB4PSI0NDYuMTE5NyIgeT0iMTM4LjQ3ODUiPjE8L3RleHQ+PHRleHQgZmlsbD0iIzAwMDAwMCIgZm9udC1mYW1pbHk9InNhbnMtc2VyaWYiIGZvbnQtc2l6ZT0iMTMiIGxlbmd0aEFkanVzdD0ic3BhY2luZyIgdGV4dExlbmd0aD0iMjYiIHg9IjU0OS45NTI1IiB5PSIxMzguMzY4NCI+MC4uKjwvdGV4dD48L2c+PCEtLWxpbmsgSmFkd2FsU2VydmlzIHRvIFRla25pc2ktLT48ZyBjbGFzcz0ibGluayIgZGF0YS1lbnRpdHktMT0iSmFkd2FsU2VydmlzIiBkYXRhLWVudGl0eS0yPSJUZWtuaXNpIiBkYXRhLXNvdXJjZS1saW5lPSI1OSIgZGF0YS11aWQ9ImxuazExIiBpZD0ibGlua19KYWR3YWxTZXJ2aXNfVGVrbmlzaSI+PHBhdGggY29kZUxpbmU9IjU5IiBkPSJNNzUwLjIyLDEwNy40MiBDODAwLjA1LDk2LjQ3IDg2My40MSw4Mi41NCA5MTMuMjUsNzEuNTgiIGZpbGw9Im5vbmUiIGlkPSJKYWR3YWxTZXJ2aXMtVGVrbmlzaSIgc3R5bGU9InN0cm9rZTojMTgxODE4O3N0cm9rZS13aWR0aDoxOyIvPjxwb2x5Z29uIGZpbGw9IiMwMDAwMDAiIHBvaW50cz0iNzk5Ljg4MzQsNzMuMzgzNSw3OTAuNDE4Miw3Mi40NTUyLDc5MS42ODAzLDc4LjE5NTksNzk5Ljg4MzQsNzMuMzgzNSIgc3R5bGU9InN0cm9rZTojMDAwMDAwO3N0cm9rZS13aWR0aDoxOyIvPjx0ZXh0IGZpbGw9IiMwMDAwMDAiIGZvbnQtZmFtaWx5PSJzYW5zLXNlcmlmIiBmb250LXNpemU9IjEzIiBsZW5ndGhBZGp1c3Q9InNwYWNpbmciIHRleHRMZW5ndGg9IjU4LjUiIHg9IjgwNCIgeT0iNzkuNzg5MSI+ZGl0YW5nYW5pPC90ZXh0Pjx0ZXh0IGZpbGw9IiMwMDAwMDAiIGZvbnQtZmFtaWx5PSJzYW5zLXNlcmlmIiBmb250LXNpemU9IjEzIiBsZW5ndGhBZGp1c3Q9InNwYWNpbmciIHRleHRMZW5ndGg9IjYuNSIgeD0iNzU3LjkyMTIiIHk9IjExOC43MjE5Ij4xPC90ZXh0Pjx0ZXh0IGZpbGw9IiMwMDAwMDAiIGZvbnQtZmFtaWx5PSJzYW5zLXNlcmlmIiBmb250LXNpemU9IjEzIiBsZW5ndGhBZGp1c3Q9InNwYWNpbmciIHRleHRMZW5ndGg9IjYuNSIgeD0iODk5LjA1MzEiIHk9Ijg2LjI1NzYiPjE8L3RleHQ+PC9nPjwhLS1saW5rIEphZHdhbFNlcnZpcyB0byBIYXNpbFBlcmJhaWthbi0tPjxnIGNsYXNzPSJsaW5rIiBkYXRhLWVudGl0eS0xPSJKYWR3YWxTZXJ2aXMiIGRhdGEtZW50aXR5LTI9Ikhhc2lsUGVyYmFpa2FuIiBkYXRhLXNvdXJjZS1saW5lPSI2MCIgZGF0YS11aWQ9ImxuazEyIiBpZD0ibGlua19KYWR3YWxTZXJ2aXNfSGFzaWxQZXJiYWlrYW4iPjxwYXRoIGNvZGVMaW5lPSI2MCIgZD0iTTc1MC4yMiwxNDMuMzIgQzc5Ni42NCwxNTMuMzkgODU0LjgsMTY2IDkwMi44MywxNzYuNDEiIGZpbGw9Im5vbmUiIGlkPSJKYWR3YWxTZXJ2aXMtSGFzaWxQZXJiYWlrYW4iIHN0eWxlPSJzdHJva2U6IzE4MTgxODtzdHJva2Utd2lkdGg6MTsiLz48cG9seWdvbiBmaWxsPSIjMDAwMDAwIiBwb2ludHM9Ijc4OS44ODY1LDE0NC41MTY1LDc4MS42Njk1LDEzOS43Mjc3LDc4MC40MjQsMTQ1LjQ3Miw3ODkuODg2NSwxNDQuNTE2NSIgc3R5bGU9InN0cm9rZTojMDAwMDAwO3N0cm9rZS13aWR0aDoxOyIvPjx0ZXh0IGZpbGw9IiMwMDAwMDAiIGZvbnQtZmFtaWx5PSJzYW5zLXNlcmlmIiBmb250LXNpemU9IjEzIiBsZW5ndGhBZGp1c3Q9InNwYWNpbmciIHRleHRMZW5ndGg9Ijc4IiB4PSI3OTQiIHk9IjE0OC43ODkxIj5tZW5naGFzaWxrYW48L3RleHQ+PHRleHQgZmlsbD0iIzAwMDAwMCIgZm9udC1mYW1pbHk9InNhbnMtc2VyaWYiIGZvbnQtc2l6ZT0iMTMiIGxlbmd0aEFkanVzdD0ic3BhY2luZyIgdGV4dExlbmd0aD0iNi41IiB4PSI3NTcuOTIxMiIgeT0iMTU3LjgxOTIiPjE8L3RleHQ+PHRleHQgZmlsbD0iIzAwMDAwMCIgZm9udC1mYW1pbHk9InNhbnMtc2VyaWYiIGZvbnQtc2l6ZT0iMTMiIGxlbmd0aEFkanVzdD0ic3BhY2luZyIgdGV4dExlbmd0aD0iNi41IiB4PSI4ODguNTQzOSIgeT0iMTg3LjU3MzgiPjE8L3RleHQ+PC9nPjwhLS1saW5rIEhhc2lsUGVyYmFpa2FuIHRvIFBlbmdndW5hYW5TdWt1Q2FkYW5nLS0+PGcgY2xhc3M9ImxpbmsiIGRhdGEtZW50aXR5LTE9Ikhhc2lsUGVyYmFpa2FuIiBkYXRhLWVudGl0eS0yPSJQZW5nZ3VuYWFuU3VrdUNhZGFuZyIgZGF0YS1zb3VyY2UtbGluZT0iNjEiIGRhdGEtdWlkPSJsbmsxMyIgaWQ9ImxpbmtfSGFzaWxQZXJiYWlrYW5fUGVuZ2d1bmFhblN1a3VDYWRhbmciPjxwYXRoIGNvZGVMaW5lPSI2MSIgZD0iTTEwOTAuMiwxOTYuNSBDMTEzNi4wNCwxOTYuNSAxMTkwLjk4LDE5Ni41IDEyMzUuNzYsMTk2LjUiIGZpbGw9Im5vbmUiIGlkPSJIYXNpbFBlcmJhaWthbi1QZW5nZ3VuYWFuU3VrdUNhZGFuZyIgc3R5bGU9InN0cm9rZTojMTgxODE4O3N0cm9rZS13aWR0aDoxOyIvPjxwb2x5Z29uIGZpbGw9IiMwMDAwMDAiIHBvaW50cz0iMTEzMCwxODkuNDU3LDExMjAuOTU0OSwxODYuNTE4MSwxMTIwLjk1NDksMTkyLjM5NiwxMTMwLDE4OS40NTciIHN0eWxlPSJzdHJva2U6IzAwMDAwMDtzdHJva2Utd2lkdGg6MTsiLz48dGV4dCBmaWxsPSIjMDAwMDAwIiBmb250LWZhbWlseT0ic2Fucy1zZXJpZiIgZm9udC1zaXplPSIxMyIgbGVuZ3RoQWRqdXN0PSJzcGFjaW5nIiB0ZXh0TGVuZ3RoPSI3MS41IiB4PSIxMTM0IiB5PSIxOTQuNzg5MSI+bWVuZ2d1bmFrYW48L3RleHQ+PHRleHQgZmlsbD0iIzAwMDAwMCIgZm9udC1mYW1pbHk9InNhbnMtc2VyaWYiIGZvbnQtc2l6ZT0iMTMiIGxlbmd0aEFkanVzdD0ic3BhY2luZyIgdGV4dExlbmd0aD0iNi41IiB4PSIxMDk3LjkyNTciIHk9IjIwOS4zNDY2Ij4xPC90ZXh0Pjx0ZXh0IGZpbGw9IiMwMDAwMDAiIGZvbnQtZmFtaWx5PSJzYW5zLXNlcmlmIiBmb250LXNpemU9IjEzIiBsZW5ndGhBZGp1c3Q9InNwYWNpbmciIHRleHRMZW5ndGg9IjI2IiB4PSIxMjAxLjg1MTgiIHk9IjIwOS4zNDU5Ij4wLi4qPC90ZXh0PjwvZz48IS0tbGluayBQZW5nZ3VuYWFuU3VrdUNhZGFuZyB0byBTdWt1Q2FkYW5nLS0+PGcgY2xhc3M9ImxpbmsiIGRhdGEtZW50aXR5LTE9IlBlbmdndW5hYW5TdWt1Q2FkYW5nIiBkYXRhLWVudGl0eS0yPSJTdWt1Q2FkYW5nIiBkYXRhLXNvdXJjZS1saW5lPSI2MiIgZGF0YS11aWQ9ImxuazE0IiBpZD0ibGlua19QZW5nZ3VuYWFuU3VrdUNhZGFuZ19TdWt1Q2FkYW5nIj48cGF0aCBjb2RlTGluZT0iNjIiIGQ9Ik0xNDA4LjE1LDE5Ni41IEMxNDQ2LjI4LDE5Ni41IDE0OTAuODYsMTk2LjUgMTUyNy43NSwxOTYuNSIgZmlsbD0ibm9uZSIgaWQ9IlBlbmdndW5hYW5TdWt1Q2FkYW5nLVN1a3VDYWRhbmciIHN0eWxlPSJzdHJva2U6IzE4MTgxODtzdHJva2Utd2lkdGg6MTsiLz48cG9seWdvbiBmaWxsPSIjMDAwMDAwIiBwb2ludHM9IjE0NDgsMTg5LjQ1NywxNDM4Ljk1NDksMTg2LjUxODEsMTQzOC45NTQ5LDE5Mi4zOTYsMTQ0OCwxODkuNDU3IiBzdHlsZT0ic3Ryb2tlOiMwMDAwMDA7c3Ryb2tlLXdpZHRoOjE7Ii8+PHRleHQgZmlsbD0iIzAwMDAwMCIgZm9udC1mYW1pbHk9InNhbnMtc2VyaWYiIGZvbnQtc2l6ZT0iMTMiIGxlbmd0aEFkanVzdD0ic3BhY2luZyIgdGV4dExlbmd0aD0iNDUuNSIgeD0iMTQ1MiIgeT0iMTk0Ljc4OTEiPm1lbWFrYWk8L3RleHQ+PHRleHQgZmlsbD0iIzAwMDAwMCIgZm9udC1mYW1pbHk9InNhbnMtc2VyaWYiIGZvbnQtc2l6ZT0iMTMiIGxlbmd0aEFkanVzdD0ic3BhY2luZyIgdGV4dExlbmd0aD0iNi41IiB4PSIxNDE2LjExMjIiIHk9IjIwOS40MTE1Ij4qPC90ZXh0Pjx0ZXh0IGZpbGw9IiMwMDAwMDAiIGZvbnQtZmFtaWx5PSJzYW5zLXNlcmlmIiBmb250LXNpemU9IjEzIiBsZW5ndGhBZGp1c3Q9InNwYWNpbmciIHRleHRMZW5ndGg9IjYuNSIgeD0iMTUxMy42MDMxIiB5PSIyMDkuNTA5NyI+MTwvdGV4dD48L2c+PCEtLVNSQz1bVlBFdlJqbW00OFB4RkdNWDllMjFEUG5zMm1EMWNYcEQ4a2pVYzVyRWYzNGxXSHA2RzhveVVxUUlMbjhMblBOMFJ3dl8zYmR5b09nM1lqSHNoM0g1bDM4NU5vTDNsZVM4SmJxamZGSTlFVDhiQ3R3ejFkLWN0d1dVZ2NncWcxRFF5NnFCTmhyTUlYcUt3UVFWcUw2SHZuNXhTMjNGOTdieUVuQW1XaFhhRlpJQzVsbFc1X3hkTGtheFVZc0lyZk5DWjlQQV9uN0dNLTM2MW5UWU1UOVhEMkxYd2Q1M2VDa3ROQkVTUncxVm05dW5fZ0FxQTdlVVFJYmRKb01GMGNzSmZsWVpxaTB1TVg4M3ZyR0FhMklDbmJFWWhPZ2REX293eHhTXy1qSFo4aDJLTzdKUzNsZ0JPN2wyVTA0b3dzYnQwb3pSLXdUVFpTYjR3alR2MV9tMlhkRlppV0x3d3ZOOXVTZ0tQRXNmREN2d3BqZGFwdzFiT2VrTTlFbXdpTlN4dk0xTTNYdDRUbDNHOExfaWdpODlQSGxQb3Voc1FsTXBqTW4tUG53eGlmd3BpejBqY19rV1ZpWTFvZVowQ3FIYlhhVXJfNFZybnJlVDNnZi1rQi1fZ3JUTlZ2SFJUTUo5YTdnaTVib3c1clNmWlRBcWVNNkZackxYbENOOXZzYy02S3QzT09BZFR4bXR2cDc4eWtxdVl3ZEFuYnhnc3Z0cWI2QjBLdVBUZl9ma0xoMDlUSDhjV2x5Ml0tLT48L2c+PC9zdmc+;" parent="1" vertex="1">
            <mxGeometry x="3140" y="237" width="1687" height="264" as="geometry" />
          </mxCell>
        </UserObject>
        <UserObject label="" plantUmlData="{&#xa;  &quot;data&quot;: &quot;@startuml\ntitle Diagram Alur Sistem Prediksi SSD\n\nstart\n\n:Input Dataset Log SSD (.csv);\n\n:Preprocessing Data;\nnote right\n- Pembersihan data\n- Konversi waktu\n- Normalisasi fitur\nend note\n\n:Clustering dengan K-Means;\nnote right\n- Input: Write Rate, Read Rate, Total Activity\n- Output: 3 klaster\nend note\n\n:Labeling Aktivitas;\nnote right\nBerdasarkan persentase Total Activity:\n- ≤30%: Rendah\n- 31–70%: Sedang\n- &gt;70%: Tinggi\nend note\n\n:Klasifikasi dengan Random Forest;\nnote right\n- Split data 80/20\n- Model training dan testing\nend note\n\n:Evaluasi Model;\nnote right\n- Akurasi, Precision, Recall\n- Confusion Matrix\n- Visualisasi klaster\nend note\n\nstop\n@enduml\n&quot;,&#xa;  &quot;format&quot;: &quot;svg&quot;&#xa;}" id="9IVFaWY-xJQeVvwAG5HK-1">
          <mxCell style="shape=image;noLabel=1;verticalAlign=top;aspect=fixed;imageAspect=0;image=data:image/svg+xml,PHN2ZyB4bWxucz0iaHR0cDovL3d3dy53My5vcmcvMjAwMC9zdmciIHhtbG5zOnhsaW5rPSJodHRwOi8vd3d3LnczLm9yZy8xOTk5L3hsaW5rIiBjb250ZW50U3R5bGVUeXBlPSJ0ZXh0L2NzcyIgZGF0YS1kaWFncmFtLXR5cGU9IkFDVElWSVRZIiBoZWlnaHQ9IjQ4MnB4IiBwcmVzZXJ2ZUFzcGVjdFJhdGlvPSJub25lIiBzdHlsZT0id2lkdGg6NTU0cHg7aGVpZ2h0OjQ4MnB4O2JhY2tncm91bmQ6I0ZGRkZGRjsiIHZlcnNpb249IjEuMSIgdmlld0JveD0iMCAwIDU1NCA0ODIiIHdpZHRoPSI1NTRweCIgem9vbUFuZFBhbj0ibWFnbmlmeSI+PHRpdGxlPkRpYWdyYW0gQWx1ciBTaXN0ZW0gUHJlZGlrc2kgU1NEPC90aXRsZT48ZGVmcy8+PGc+PHRleHQgZmlsbD0iIzAwMDAwMCIgZm9udC1mYW1pbHk9InNhbnMtc2VyaWYiIGZvbnQtc2l6ZT0iMTQiIGZvbnQtd2VpZ2h0PSJib2xkIiBsZW5ndGhBZGp1c3Q9InNwYWNpbmciIHRleHRMZW5ndGg9IjIyNCIgeD0iMTYzLjUiIHk9IjMzLjIzNDQiPkRpYWdyYW0gQWx1ciBTaXN0ZW0gUHJlZGlrc2kgU1NEPC90ZXh0PjxlbGxpcHNlIGN4PSIxMTciIGN5PSI1NS45ODQ0IiBmaWxsPSIjMjIyMjIyIiByeD0iMTAiIHJ5PSIxMCIgc3R5bGU9InN0cm9rZTojMjIyMjIyO3N0cm9rZS13aWR0aDoxOyIvPjxyZWN0IGZpbGw9IiNGMUYxRjEiIGhlaWdodD0iMzIuODQzOCIgcng9IjEyLjUiIHJ5PSIxMi41IiBzdHlsZT0ic3Ryb2tlOiMxODE4MTg7c3Ryb2tlLXdpZHRoOjAuNTsiIHdpZHRoPSIxODgiIHg9IjIzIiB5PSI4NS45ODQ0Ii8+PHRleHQgZmlsbD0iIzAwMDAwMCIgZm9udC1mYW1pbHk9InNhbnMtc2VyaWYiIGZvbnQtc2l6ZT0iMTIiIGxlbmd0aEFkanVzdD0ic3BhY2luZyIgdGV4dExlbmd0aD0iMTY4IiB4PSIzMyIgeT0iMTA3LjMyODEiPklucHV0IERhdGFzZXQgTG9nIFNTRCAoLmNzdik8L3RleHQ+PHBhdGggZD0iTTIwMSwxMjkuMzc4OSBMMjAxLDE1MS4yNSBMMTgxLDE1NS4yNSBMMjAxLDE1OS4yNSBMMjAxLDE4MS4xMjExIEEwLDAgMCAwIDAgMjAxLDE4MS4xMjExIEwzNDUuNSwxODEuMTIxMSBBMCwwIDAgMCAwIDM0NS41LDE4MS4xMjExIEwzNDUuNSwxMzkuMzc4OSBMMzM1LjUsMTI5LjM3ODkgTDIwMSwxMjkuMzc4OSBBMCwwIDAgMCAwIDIwMSwxMjkuMzc4OSIgZmlsbD0iI0ZFRkZERCIgc3R5bGU9InN0cm9rZTojMTgxODE4O3N0cm9rZS13aWR0aDowLjU7Ii8+PHBhdGggZD0iTTMzNS41LDEyOS4zNzg5IEwzMzUuNSwxMzkuMzc4OSBMMzQ1LjUsMTM5LjM3ODkgTDMzNS41LDEyOS4zNzg5IiBmaWxsPSIjRkVGRkREIiBzdHlsZT0ic3Ryb2tlOiMxODE4MTg7c3Ryb2tlLXdpZHRoOjAuNTsiLz48dGV4dCBmaWxsPSIjMDAwMDAwIiBmb250LWZhbWlseT0ic2Fucy1zZXJpZiIgZm9udC1zaXplPSIxMyIgbGVuZ3RoQWRqdXN0PSJzcGFjaW5nIiB0ZXh0TGVuZ3RoPSIxMTciIHg9IjIwNyIgeT0iMTQ2LjY2OCI+LSBQZW1iZXJzaWhhbiBkYXRhPC90ZXh0Pjx0ZXh0IGZpbGw9IiMwMDAwMDAiIGZvbnQtZmFtaWx5PSJzYW5zLXNlcmlmIiBmb250LXNpemU9IjEzIiBsZW5ndGhBZGp1c3Q9InNwYWNpbmciIHRleHRMZW5ndGg9IjEwNCIgeD0iMjA3IiB5PSIxNjAuNTgyIj4tIEtvbnZlcnNpIHdha3R1PC90ZXh0Pjx0ZXh0IGZpbGw9IiMwMDAwMDAiIGZvbnQtZmFtaWx5PSJzYW5zLXNlcmlmIiBmb250LXNpemU9IjEzIiBsZW5ndGhBZGp1c3Q9InNwYWNpbmciIHRleHRMZW5ndGg9IjEyMy41IiB4PSIyMDciIHk9IjE3NC40OTYxIj4tIE5vcm1hbGlzYXNpIGZpdHVyPC90ZXh0PjxyZWN0IGZpbGw9IiNGMUYxRjEiIGhlaWdodD0iMzIuODQzOCIgcng9IjEyLjUiIHJ5PSIxMi41IiBzdHlsZT0ic3Ryb2tlOiMxODE4MTg7c3Ryb2tlLXdpZHRoOjAuNTsiIHdpZHRoPSIxMjgiIHg9IjUzIiB5PSIxMzguODI4MSIvPjx0ZXh0IGZpbGw9IiMwMDAwMDAiIGZvbnQtZmFtaWx5PSJzYW5zLXNlcmlmIiBmb250LXNpemU9IjEyIiBsZW5ndGhBZGp1c3Q9InNwYWNpbmciIHRleHRMZW5ndGg9IjEwOCIgeD0iNjMiIHk9IjE2MC4xNzE5Ij5QcmVwcm9jZXNzaW5nIERhdGE8L3RleHQ+PHBhdGggZD0iTTIyMiwxOTguNjI4OSBMMjIyLDIxMy41NDMgTDIwMiwyMTcuNTQzIEwyMjIsMjIxLjU0MyBMMjIyLDIzNi40NTcgQTAsMCAwIDAgMCAyMjIsMjM2LjQ1NyBMNTQyLDIzNi40NTcgQTAsMCAwIDAgMCA1NDIsMjM2LjQ1NyBMNTQyLDIwOC42Mjg5IEw1MzIsMTk4LjYyODkgTDIyMiwxOTguNjI4OSBBMCwwIDAgMCAwIDIyMiwxOTguNjI4OSIgZmlsbD0iI0ZFRkZERCIgc3R5bGU9InN0cm9rZTojMTgxODE4O3N0cm9rZS13aWR0aDowLjU7Ii8+PHBhdGggZD0iTTUzMiwxOTguNjI4OSBMNTMyLDIwOC42Mjg5IEw1NDIsMjA4LjYyODkgTDUzMiwxOTguNjI4OSIgZmlsbD0iI0ZFRkZERCIgc3R5bGU9InN0cm9rZTojMTgxODE4O3N0cm9rZS13aWR0aDowLjU7Ii8+PHRleHQgZmlsbD0iIzAwMDAwMCIgZm9udC1mYW1pbHk9InNhbnMtc2VyaWYiIGZvbnQtc2l6ZT0iMTMiIGxlbmd0aEFkanVzdD0ic3BhY2luZyIgdGV4dExlbmd0aD0iMjk5IiB4PSIyMjgiIHk9IjIxNS45MTgiPi0gSW5wdXQ6IFdyaXRlIFJhdGUsIFJlYWQgUmF0ZSwgVG90YWwgQWN0aXZpdHk8L3RleHQ+PHRleHQgZmlsbD0iIzAwMDAwMCIgZm9udC1mYW1pbHk9InNhbnMtc2VyaWYiIGZvbnQtc2l6ZT0iMTMiIGxlbmd0aEFkanVzdD0ic3BhY2luZyIgdGV4dExlbmd0aD0iMTIzLjUiIHg9IjIyOCIgeT0iMjI5LjgzMiI+LSBPdXRwdXQ6IDMga2xhc3RlcjwvdGV4dD48cmVjdCBmaWxsPSIjRjFGMUYxIiBoZWlnaHQ9IjMyLjg0MzgiIHJ4PSIxMi41IiByeT0iMTIuNSIgc3R5bGU9InN0cm9rZTojMTgxODE4O3N0cm9rZS13aWR0aDowLjU7IiB3aWR0aD0iMTcwIiB4PSIzMiIgeT0iMjAxLjEyMTEiLz48dGV4dCBmaWxsPSIjMDAwMDAwIiBmb250LWZhbWlseT0ic2Fucy1zZXJpZiIgZm9udC1zaXplPSIxMiIgbGVuZ3RoQWRqdXN0PSJzcGFjaW5nIiB0ZXh0TGVuZ3RoPSIxNTAiIHg9IjQyIiB5PSIyMjIuNDY0OCI+Q2x1c3RlcmluZyBkZW5nYW4gSy1NZWFuczwvdGV4dD48cGF0aCBkPSJNMjAxLDI0Ni40NTcgTDIwMSwyNzUuMjg1MiBMMTgxLDI3OS4yODUyIEwyMDEsMjgzLjI4NTIgTDIwMSwzMTIuMTEzMyBBMCwwIDAgMCAwIDIwMSwzMTIuMTEzMyBMNDY5LDMxMi4xMTMzIEEwLDAgMCAwIDAgNDY5LDMxMi4xMTMzIEw0NjksMjU2LjQ1NyBMNDU5LDI0Ni40NTcgTDIwMSwyNDYuNDU3IEEwLDAgMCAwIDAgMjAxLDI0Ni40NTciIGZpbGw9IiNGRUZGREQiIHN0eWxlPSJzdHJva2U6IzE4MTgxODtzdHJva2Utd2lkdGg6MC41OyIvPjxwYXRoIGQ9Ik00NTksMjQ2LjQ1NyBMNDU5LDI1Ni40NTcgTDQ2OSwyNTYuNDU3IEw0NTksMjQ2LjQ1NyIgZmlsbD0iI0ZFRkZERCIgc3R5bGU9InN0cm9rZTojMTgxODE4O3N0cm9rZS13aWR0aDowLjU7Ii8+PHRleHQgZmlsbD0iIzAwMDAwMCIgZm9udC1mYW1pbHk9InNhbnMtc2VyaWYiIGZvbnQtc2l6ZT0iMTMiIGxlbmd0aEFkanVzdD0ic3BhY2luZyIgdGV4dExlbmd0aD0iMjQ3IiB4PSIyMDciIHk9IjI2My43NDYxIj5CZXJkYXNhcmthbiBwZXJzZW50YXNlIFRvdGFsIEFjdGl2aXR5OjwvdGV4dD48dGV4dCBmaWxsPSIjMDAwMDAwIiBmb250LWZhbWlseT0ic2Fucy1zZXJpZiIgZm9udC1zaXplPSIxMyIgbGVuZ3RoQWRqdXN0PSJzcGFjaW5nIiB0ZXh0TGVuZ3RoPSI5MSIgeD0iMjA3IiB5PSIyNzcuNjYwMiI+LSAmIzg4MDQ7MzAlOiBSZW5kYWg8L3RleHQ+PHRleHQgZmlsbD0iIzAwMDAwMCIgZm9udC1mYW1pbHk9InNhbnMtc2VyaWYiIGZvbnQtc2l6ZT0iMTMiIGxlbmd0aEFkanVzdD0ic3BhY2luZyIgdGV4dExlbmd0aD0iMTA0IiB4PSIyMDciIHk9IjI5MS41NzQyIj4tIDMxLTcwJTogU2VkYW5nPC90ZXh0Pjx0ZXh0IGZpbGw9IiMwMDAwMDAiIGZvbnQtZmFtaWx5PSJzYW5zLXNlcmlmIiBmb250LXNpemU9IjEzIiBsZW5ndGhBZGp1c3Q9InNwYWNpbmciIHRleHRMZW5ndGg9IjkxIiB4PSIyMDciIHk9IjMwNS40ODgzIj4tICZndDs3MCU6IFRpbmdnaTwvdGV4dD48cmVjdCBmaWxsPSIjRjFGMUYxIiBoZWlnaHQ9IjMyLjg0MzgiIHJ4PSIxMi41IiByeT0iMTIuNSIgc3R5bGU9InN0cm9rZTojMTgxODE4O3N0cm9rZS13aWR0aDowLjU7IiB3aWR0aD0iMTI4IiB4PSI1MyIgeT0iMjYyLjg2MzMiLz48dGV4dCBmaWxsPSIjMDAwMDAwIiBmb250LWZhbWlseT0ic2Fucy1zZXJpZiIgZm9udC1zaXplPSIxMiIgbGVuZ3RoQWRqdXN0PSJzcGFjaW5nIiB0ZXh0TGVuZ3RoPSIxMDgiIHg9IjYzIiB5PSIyODQuMjA3Ij5MYWJlbGluZyBBa3Rpdml0YXM8L3RleHQ+PHBhdGggZD0iTTI0MywzMjkuNjIxMSBMMjQzLDM0NC41MzUyIEwyMjMsMzQ4LjUzNTIgTDI0MywzNTIuNTM1MiBMMjQzLDM2Ny40NDkyIEEwLDAgMCAwIDAgMjQzLDM2Ny40NDkyIEw0NDYsMzY3LjQ0OTIgQTAsMCAwIDAgMCA0NDYsMzY3LjQ0OTIgTDQ0NiwzMzkuNjIxMSBMNDM2LDMyOS42MjExIEwyNDMsMzI5LjYyMTEgQTAsMCAwIDAgMCAyNDMsMzI5LjYyMTEiIGZpbGw9IiNGRUZGREQiIHN0eWxlPSJzdHJva2U6IzE4MTgxODtzdHJva2Utd2lkdGg6MC41OyIvPjxwYXRoIGQ9Ik00MzYsMzI5LjYyMTEgTDQzNiwzMzkuNjIxMSBMNDQ2LDMzOS42MjExIEw0MzYsMzI5LjYyMTEiIGZpbGw9IiNGRUZGREQiIHN0eWxlPSJzdHJva2U6IzE4MTgxODtzdHJva2Utd2lkdGg6MC41OyIvPjx0ZXh0IGZpbGw9IiMwMDAwMDAiIGZvbnQtZmFtaWx5PSJzYW5zLXNlcmlmIiBmb250LXNpemU9IjEzIiBsZW5ndGhBZGp1c3Q9InNwYWNpbmciIHRleHRMZW5ndGg9IjExNyIgeD0iMjQ5IiB5PSIzNDYuOTEwMiI+LSBTcGxpdCBkYXRhIDgwLzIwPC90ZXh0Pjx0ZXh0IGZpbGw9IiMwMDAwMDAiIGZvbnQtZmFtaWx5PSJzYW5zLXNlcmlmIiBmb250LXNpemU9IjEzIiBsZW5ndGhBZGp1c3Q9InNwYWNpbmciIHRleHRMZW5ndGg9IjE4MiIgeD0iMjQ5IiB5PSIzNjAuODI0MiI+LSBNb2RlbCB0cmFpbmluZyBkYW4gdGVzdGluZzwvdGV4dD48cmVjdCBmaWxsPSIjRjFGMUYxIiBoZWlnaHQ9IjMyLjg0MzgiIHJ4PSIxMi41IiByeT0iMTIuNSIgc3R5bGU9InN0cm9rZTojMTgxODE4O3N0cm9rZS13aWR0aDowLjU7IiB3aWR0aD0iMjEyIiB4PSIxMSIgeT0iMzMyLjExMzMiLz48dGV4dCBmaWxsPSIjMDAwMDAwIiBmb250LWZhbWlseT0ic2Fucy1zZXJpZiIgZm9udC1zaXplPSIxMiIgbGVuZ3RoQWRqdXN0PSJzcGFjaW5nIiB0ZXh0TGVuZ3RoPSIxOTIiIHg9IjIxIiB5PSIzNTMuNDU3Ij5LbGFzaWZpa2FzaSBkZW5nYW4gUmFuZG9tIEZvcmVzdDwvdGV4dD48cGF0aCBkPSJNMTg5LDM3OCBMMTg5LDM5OS44NzExIEwxNjksNDAzLjg3MTEgTDE4OSw0MDcuODcxMSBMMTg5LDQyOS43NDIyIEEwLDAgMCAwIDAgMTg5LDQyOS43NDIyIEwzOTIsNDI5Ljc0MjIgQTAsMCAwIDAgMCAzOTIsNDI5Ljc0MjIgTDM5MiwzODggTDM4MiwzNzggTDE4OSwzNzggQTAsMCAwIDAgMCAxODksMzc4IiBmaWxsPSIjRkVGRkREIiBzdHlsZT0ic3Ryb2tlOiMxODE4MTg7c3Ryb2tlLXdpZHRoOjAuNTsiLz48cGF0aCBkPSJNMzgyLDM3OCBMMzgyLDM4OCBMMzkyLDM4OCBMMzgyLDM3OCIgZmlsbD0iI0ZFRkZERCIgc3R5bGU9InN0cm9rZTojMTgxODE4O3N0cm9rZS13aWR0aDowLjU7Ii8+PHRleHQgZmlsbD0iIzAwMDAwMCIgZm9udC1mYW1pbHk9InNhbnMtc2VyaWYiIGZvbnQtc2l6ZT0iMTMiIGxlbmd0aEFkanVzdD0ic3BhY2luZyIgdGV4dExlbmd0aD0iMTgyIiB4PSIxOTUiIHk9IjM5NS4yODkxIj4tIEFrdXJhc2ksIFByZWNpc2lvbiwgUmVjYWxsPC90ZXh0Pjx0ZXh0IGZpbGw9IiMwMDAwMDAiIGZvbnQtZmFtaWx5PSJzYW5zLXNlcmlmIiBmb250LXNpemU9IjEzIiBsZW5ndGhBZGp1c3Q9InNwYWNpbmciIHRleHRMZW5ndGg9IjExNyIgeD0iMTk1IiB5PSI0MDkuMjAzMSI+LSBDb25mdXNpb24gTWF0cml4PC90ZXh0Pjx0ZXh0IGZpbGw9IiMwMDAwMDAiIGZvbnQtZmFtaWx5PSJzYW5zLXNlcmlmIiBmb250LXNpemU9IjEzIiBsZW5ndGhBZGp1c3Q9InNwYWNpbmciIHRleHRMZW5ndGg9IjEzNi41IiB4PSIxOTUiIHk9IjQyMy4xMTcyIj4tIFZpc3VhbGlzYXNpIGtsYXN0ZXI8L3RleHQ+PHJlY3QgZmlsbD0iI0YxRjFGMSIgaGVpZ2h0PSIzMi44NDM4IiByeD0iMTIuNSIgcnk9IjEyLjUiIHN0eWxlPSJzdHJva2U6IzE4MTgxODtzdHJva2Utd2lkdGg6MC41OyIgd2lkdGg9IjEwNCIgeD0iNjUiIHk9IjM4Ny40NDkyIi8+PHRleHQgZmlsbD0iIzAwMDAwMCIgZm9udC1mYW1pbHk9InNhbnMtc2VyaWYiIGZvbnQtc2l6ZT0iMTIiIGxlbmd0aEFkanVzdD0ic3BhY2luZyIgdGV4dExlbmd0aD0iODQiIHg9Ijc1IiB5PSI0MDguNzkzIj5FdmFsdWFzaSBNb2RlbDwvdGV4dD48ZWxsaXBzZSBjeD0iMTE3IiBjeT0iNDYwLjc0MjIiIGZpbGw9Im5vbmUiIHJ4PSIxMSIgcnk9IjExIiBzdHlsZT0ic3Ryb2tlOiMyMjIyMjI7c3Ryb2tlLXdpZHRoOjE7Ii8+PGVsbGlwc2UgY3g9IjExNyIgY3k9IjQ2MC43NDIyIiBmaWxsPSIjMjIyMjIyIiByeD0iNiIgcnk9IjYiIHN0eWxlPSJzdHJva2U6IzIyMjIyMjtzdHJva2Utd2lkdGg6MTsiLz48bGluZSBzdHlsZT0ic3Ryb2tlOiMxODE4MTg7c3Ryb2tlLXdpZHRoOjE7IiB4MT0iMTE3IiB4Mj0iMTE3IiB5MT0iNjUuOTg0NCIgeTI9Ijg1Ljk4NDQiLz48cG9seWdvbiBmaWxsPSIjMTgxODE4IiBwb2ludHM9IjExMyw3NS45ODQ0LDExNyw4NS45ODQ0LDEyMSw3NS45ODQ0LDExNyw3OS45ODQ0IiBzdHlsZT0ic3Ryb2tlOiMxODE4MTg7c3Ryb2tlLXdpZHRoOjE7Ii8+PGxpbmUgc3R5bGU9InN0cm9rZTojMTgxODE4O3N0cm9rZS13aWR0aDoxOyIgeDE9IjExNyIgeDI9IjExNyIgeTE9IjExOC44MjgxIiB5Mj0iMTM4LjgyODEiLz48cG9seWdvbiBmaWxsPSIjMTgxODE4IiBwb2ludHM9IjExMywxMjguODI4MSwxMTcsMTM4LjgyODEsMTIxLDEyOC44MjgxLDExNywxMzIuODI4MSIgc3R5bGU9InN0cm9rZTojMTgxODE4O3N0cm9rZS13aWR0aDoxOyIvPjxsaW5lIHN0eWxlPSJzdHJva2U6IzE4MTgxODtzdHJva2Utd2lkdGg6MTsiIHgxPSIxMTciIHgyPSIxMTciIHkxPSIxNzEuNjcxOSIgeTI9IjIwMS4xMjExIi8+PHBvbHlnb24gZmlsbD0iIzE4MTgxOCIgcG9pbnRzPSIxMTMsMTkxLjEyMTEsMTE3LDIwMS4xMjExLDEyMSwxOTEuMTIxMSwxMTcsMTk1LjEyMTEiIHN0eWxlPSJzdHJva2U6IzE4MTgxODtzdHJva2Utd2lkdGg6MTsiLz48bGluZSBzdHlsZT0ic3Ryb2tlOiMxODE4MTg7c3Ryb2tlLXdpZHRoOjE7IiB4MT0iMTE3IiB4Mj0iMTE3IiB5MT0iMjMzLjk2NDgiIHkyPSIyNjIuODYzMyIvPjxwb2x5Z29uIGZpbGw9IiMxODE4MTgiIHBvaW50cz0iMTEzLDI1Mi44NjMzLDExNywyNjIuODYzMywxMjEsMjUyLjg2MzMsMTE3LDI1Ni44NjMzIiBzdHlsZT0ic3Ryb2tlOiMxODE4MTg7c3Ryb2tlLXdpZHRoOjE7Ii8+PGxpbmUgc3R5bGU9InN0cm9rZTojMTgxODE4O3N0cm9rZS13aWR0aDoxOyIgeDE9IjExNyIgeDI9IjExNyIgeTE9IjI5NS43MDciIHkyPSIzMzIuMTEzMyIvPjxwb2x5Z29uIGZpbGw9IiMxODE4MTgiIHBvaW50cz0iMTEzLDMyMi4xMTMzLDExNywzMzIuMTEzMywxMjEsMzIyLjExMzMsMTE3LDMyNi4xMTMzIiBzdHlsZT0ic3Ryb2tlOiMxODE4MTg7c3Ryb2tlLXdpZHRoOjE7Ii8+PGxpbmUgc3R5bGU9InN0cm9rZTojMTgxODE4O3N0cm9rZS13aWR0aDoxOyIgeDE9IjExNyIgeDI9IjExNyIgeTE9IjM2NC45NTciIHkyPSIzODcuNDQ5MiIvPjxwb2x5Z29uIGZpbGw9IiMxODE4MTgiIHBvaW50cz0iMTEzLDM3Ny40NDkyLDExNywzODcuNDQ5MiwxMjEsMzc3LjQ0OTIsMTE3LDM4MS40NDkyIiBzdHlsZT0ic3Ryb2tlOiMxODE4MTg7c3Ryb2tlLXdpZHRoOjE7Ii8+PGxpbmUgc3R5bGU9InN0cm9rZTojMTgxODE4O3N0cm9rZS13aWR0aDoxOyIgeDE9IjExNyIgeDI9IjExNyIgeTE9IjQyMC4yOTMiIHkyPSI0NDkuNzQyMiIvPjxwb2x5Z29uIGZpbGw9IiMxODE4MTgiIHBvaW50cz0iMTEzLDQzOS43NDIyLDExNyw0NDkuNzQyMiwxMjEsNDM5Ljc0MjIsMTE3LDQ0My43NDIyIiBzdHlsZT0ic3Ryb2tlOiMxODE4MTg7c3Ryb2tlLXdpZHRoOjE7Ii8+PCEtLVNSQz1bUFBCMVJqaW0zOFJsVldmVTJnbjBpd05CT0tLQTNDWVE1SVpJUjRMU1I2Vk1PWHAyaWNIR0xCT3pHai1aSnhPZEFNTXFHOWhVZjl5S2x2LV9oUW9VT0NkTzJsUW15NWNXdmdKS212c0d1b3VuckZNb2dmQVlRNU5EUnlBRzVQUWVjNFpYRGhRYjMxeS1EY2JfVWNiclVwTDhSMldiM2t0T1RyYzVnMEoyeEt3aDJUbkhfcTJJVThTMWQ5TERNaU1tQm5CeW1Ld3AySi1ZekVXdmVNYlJyWW1MMUdUYloxNmtWM1BfS2lPeDJnc0RNS3RNWDI0VFdLUWRTX1dqUkU4NmJTdldHLVhVWmxUSHFTRVlLVHdwX2hGc2RyZDdfWGJxN1dsV2E3Y0IzLUdCU1Q2RDNfMGp4MWs5bXVKSWNQZDFEZzVHdVpiWXAwdG9fXzVmRFpzUGN2N1dTNlYyeDdwb2ZHV3JFR29qMkxfN3d4c25NWnZxaTM5SmxFTWtIRkFveldRM1lwclNIdzZhSHlsTldzU1R5dU1Cd1FWRkt2Rk1xUDQ3NVVHbVBjU0pyMXhRLVAzcFZPeS01eVpPVlpIcnFNTW5zYmR2RG5mRTc0RjlqNDdsaE5XTG1wT04zVFFlbWR6RC1pS2ZsdHg3endhY1pTQ3BdLS0+PC9nPjwvc3ZnPg==;" parent="1" vertex="1">
            <mxGeometry x="1050" y="80" width="554" height="482" as="geometry" />
          </mxCell>
        </UserObject>
      </root>
    </mxGraphModel>
  </diagram>
</mxfile>
